<?xml version="1.0" encoding="UTF-8"?>
<svg width="320px" height="144px" viewBox="0 0 320 144" version="1.1" xmlns="http://www.w3.org/2000/svg" xmlns:xlink="http://www.w3.org/1999/xlink">
    <!-- Generator: Sketch 49.1 (51147) - http://www.bohemiancoding.com/sketch -->
    <title>signin_bg</title>
    <desc>Created with Sketch.</desc>
    <defs>
        <path d="M37.1541743,6.22962963 C37.1541743,5.48493455 36.9337824,4.96222373 36.4929921,4.66148148 C36.0522017,4.36073924 35.5900898,4.21037037 35.1066423,4.21037037 C33.9122427,4.21037037 32.5614538,4.55407064 31.0542352,5.24148148 C29.5470166,5.92889233 28.0256018,6.89554933 26.4899452,8.14148148 C24.9542885,9.38741364 23.4542019,10.8839419 21.9896405,12.6311111 C20.525079,14.3782803 19.2240561,16.3187548 18.0865326,18.4525926 C16.9490091,20.5864304 16.0318946,22.8777655 15.3351615,25.3266667 C14.6384284,27.7755678 14.290067,30.3175177 14.290067,32.9525926 C14.290067,35.1866778 14.5104589,37.1486335 14.9512492,38.8385185 C15.3920396,40.5284035 15.8896986,41.9461671 16.4442413,43.0918519 C16.998784,44.2375366 17.5248807,45.1254289 18.0225472,45.7555556 C18.5202137,46.3856822 18.8401374,46.772345 18.9823278,46.9155556 C19.2098325,47.1446925 19.2809267,47.4096281 19.1956124,47.7103704 C19.1102982,48.0111126 18.8259216,48.1614815 18.3424741,48.1614815 C18.2287218,48.1614815 17.8803604,48.1400002 17.2973796,48.097037 C16.7143989,48.0540739 15.9821291,47.9395071 15.1005484,47.7533333 C14.2189678,47.5671596 13.2307591,47.3022239 12.1358927,46.9585185 C11.0410264,46.6148131 9.93195768,46.1350648 8.80865326,45.5192593 C7.68534884,44.9034537 6.59760835,44.1372885 5.54539915,43.2207407 C4.49318995,42.3041929 3.55474717,41.1943275 2.73004266,39.8911111 C1.90533815,38.5878947 1.24416255,37.0698852 0.746496039,35.337037 C0.248829525,33.6041889 0,31.6207519 0,29.3866667 C0,25.1476331 1.24414762,21.2380426 3.7324802,17.6577778 C6.22081277,14.077513 9.69020728,10.9770501 14.1407678,8.3562963 C18.5913284,5.73554245 23.8878425,3.6876617 30.0304692,2.21259259 C36.1730959,0.737523489 42.9128213,0 50.2498477,0 L69.1042048,0 C69.7014046,0 70,0.272096044 70,0.816296296 L70,12.76 C70,13.2182739 69.8151552,13.4688887 69.4454601,13.5118519 C69.075765,13.554815 68.8056072,13.3471628 68.6349787,12.8888889 C68.5212263,12.6311098 68.3221627,12.1943241 68.0377818,11.5785185 C67.753401,10.962713 67.3552737,10.268152 66.8433882,9.49481481 C66.3315026,8.72147761 65.7058741,7.92667075 64.9664839,7.11037037 C64.2270936,6.29406999 63.359745,5.54222566 62.3644119,4.85481481 C61.3690789,4.16740397 60.2529008,3.60173061 59.015844,3.15777778 C57.7787872,2.71382494 56.3924513,2.49185185 54.8567946,2.49185185 C54.1458425,2.49185185 53.5628704,2.59925819 53.1078611,2.81407407 C52.6528517,3.02888996 52.2902715,3.31530685 52.0201097,3.67333333 C51.7499479,4.03135981 51.5579937,4.45382473 51.4442413,4.94074074 C51.330489,5.42765676 51.2593948,5.92888631 51.2309567,6.44444444 L51.2309567,50.0088889 C51.2309567,51.3550685 51.5153333,52.4434526 52.0840951,53.2740741 C52.6528568,54.1046955 53.3140324,54.7634544 54.0676417,55.2503704 C54.821251,55.7372864 55.5677395,56.0738262 56.3071298,56.26 C57.04652,56.4461738 57.5868356,56.5679009 57.9280926,56.6251852 C58.1840354,56.6824694 58.3759896,56.7827153 58.503961,56.9259259 C58.6319324,57.0691365 58.6888077,57.2195054 58.6745887,57.377037 C58.6603696,57.5345687 58.5821661,57.6777771 58.4399756,57.8066667 C58.2977852,57.9355562 58.0845027,58 57.8001219,58 L30.5850091,58 C30.3006283,58 30.0873458,57.9355562 29.9451554,57.8066667 C29.802965,57.6777771 29.7247614,57.5345687 29.7105424,57.377037 C29.6963233,57.2195054 29.7531986,57.0691365 29.88117,56.9259259 C30.0091414,56.7827153 30.2010956,56.6824694 30.4570384,56.6251852 C30.7982954,56.5679009 31.338611,56.4461738 32.0780012,56.26 C32.8173915,56.0738262 33.56388,55.7372864 34.3174893,55.2503704 C35.0710986,54.7634544 35.7322742,54.1046955 36.301036,53.2740741 C36.8697977,52.4434526 37.1541743,51.3550685 37.1541743,50.0088889 L37.1541743,6.22962963 Z" id="path-1"></path>
    </defs>
    <g id="signin_bg" stroke="none" stroke-width="1" fill="none" fill-rule="evenodd">
        <g id="logo_icons">
            <g id="terra-icon">
                <rect id="Rectangle-2" fill-opacity="0.04" fill="#000000" opacity="0" x="0" y="0" width="96" height="96" rx="18"></rect>
                <g id="Terro-logo" transform="translate(10.000000, 19.000000)">
                    <mask id="mask-2" fill="white">
                        <use xlink:href="#path-1"></use>
                    </mask>
                    <use id="T" fill="#3DBD86" xlink:href="#path-1"></use>
                    <circle id="Oval-Copy" fill="#0059FF" opacity="0.6" mask="url(#mask-2)" cx="69" cy="31" r="32"></circle>
                    <circle id="Oval-Copy-3" fill="#26BEFF" opacity="0.6" mask="url(#mask-2)" cx="37" cy="-1" r="32"></circle>
                    <circle id="Oval-Copy-2" fill="#43C7DD" opacity="0.6" mask="url(#mask-2)" cx="37" cy="63" r="32"></circle>
                    <circle id="Oval" fill="#87EAFA" opacity="0.6" mask="url(#mask-2)" cx="5" cy="31" r="32"></circle>
                </g>
            </g>
            <g id="hercules-icon" transform="translate(96.000000, 0.000000)">
                <rect id="Rectangle-2-Copy" fill-opacity="0.04" fill="#000000" opacity="0" x="0" y="0" width="96" height="96" rx="18"></rect>
                <g id="hercules" transform="translate(19.000000, 19.000000)">
                    <rect id="Rectangle" fill="#3DBD86" x="0" y="0" width="18" height="18" rx="2"></rect>
                    <rect id="Rectangle-Copy-4" fill="#B6BCBF" x="20" y="20" width="18" height="18" rx="2"></rect>
                    <rect id="Rectangle-Copy-7" fill="#2D333A" x="40" y="20" width="18" height="18" rx="2"></rect>
                    <rect id="Rectangle-Copy-5" fill="#2D333A" x="0" y="20" width="18" height="18" rx="2"></rect>
                    <rect id="Rectangle-Copy-2" fill="#D9532E" x="40" y="0" width="18" height="18" rx="2"></rect>
                    <rect id="Rectangle-Copy-8" fill="#3BA9E2" x="0" y="40" width="18" height="18" rx="2"></rect>
                    <rect id="Rectangle-Copy-6" fill="#F7B954" x="40" y="40" width="18" height="18" rx="2"></rect>
                </g>
            </g>
            <g id="neso-icon" transform="translate(192.000000, 0.000000)">
                <rect id="Rectangle-2-Copy-2" fill-opacity="0.04" fill="#000000" opacity="0" x="0" y="0" width="96" height="96" rx="18"></rect>
                <path d="M31.6,57.6040956 C36.6245865,49.6040556 40.3789349,43.3037773 42.8631579,38.7030717 C45.3473808,34.1023661 46.5894737,31.1740677 46.5894737,29.9180887 C46.5894737,29.4539226 46.4210543,29.0716739 46.0842105,28.7713311 C45.7473667,28.4709883 45.3543882,28.3208191 44.9052632,28.3208191 C44.0350834,28.3208191 41.5789676,29.1399235 37.5368421,30.778157 C34.1964745,32.1433515 31.7543937,33.2286649 30.2105263,34.0341297 C28.6666589,34.8395945 26.5403644,35.9931666 23.8315789,37.4948805 C21.1227935,38.9965945 19.5719318,39.7474403 19.1789474,39.7474403 C18.3929785,39.7474403 18,39.2150224 18,38.1501706 C18,36.1296827 19.3613899,33.4129863 22.0842105,30 C24.8070312,26.5870137 28.4701524,23.5972825 33.0736842,21.0307167 C33.6350905,20.6757661 33.9157895,20.7030696 33.9157895,21.112628 C33.9157895,21.2491474 33.5789507,21.5631375 32.9052632,22.0546075 C32.2315756,22.5460775 31.6350903,23.0443661 31.1157895,23.5494881 C30.5964886,24.05461 30.0140383,24.8122816 29.3684211,25.8225256 C35.2631874,22.9556171 39.5929686,20.9351595 42.3578947,19.7610922 C45.1228208,18.5870248 47.4877095,18 49.4526316,18 C51.1649208,18 52.5122758,18.3481194 53.4947368,19.0443686 C54.4771979,19.7406178 54.9684211,20.7440208 54.9684211,22.0546075 C54.9684211,23.2013709 54.4982503,24.8668833 53.5578947,27.0511945 C52.6175392,29.2355058 51.2491318,31.8907694 49.4526316,35.0170648 C47.6561314,38.1433603 45.8245707,41.2354796 43.9578947,44.2935154 C42.0912187,47.3515511 38.7158139,52.8805061 33.8315789,60.8805461 C39.2772202,54.2457006 44.2876964,48.4437109 48.8631579,43.4744027 C53.4386194,38.5050946 57.4245444,34.4641794 60.8210526,31.3515358 C64.2175608,28.2388923 67.0806901,25.8976188 69.4105263,24.3276451 C71.7403625,22.7576713 73.4526261,21.9726962 74.5473684,21.9726962 C74.9403528,21.9726962 75.4035061,22.3344674 75.9368421,23.0580205 C76.4701781,23.7815736 76.9473663,24.6621109 77.3684211,25.6996587 C77.7894758,26.7372066 78,27.5836145 78,28.2389078 C78,30.0409646 77.5298293,31.8293427 76.5894737,33.6040956 C75.6491181,35.3788485 74.2526408,37.50852 72.4,39.9931741 C67.1227806,46.9283623 63.2701876,52.3890586 60.8421053,56.3754266 C58.4140229,60.3617947 57.2,63.5699537 57.2,66 C57.2,67.8293607 58.1824463,68.7440273 60.1473684,68.7440273 C61.0456185,68.7440273 62.0982396,68.4163855 63.3052632,67.7610922 C64.5122867,67.1057988 65.9578863,66.09557 67.6421053,64.7303754 C69.3263242,63.3651809 71.0245528,61.8771412 72.7368421,60.2662116 L72.8210526,63.4607509 C70.4070055,65.8634932 68.2456236,67.9180802 66.3368421,69.6245734 C64.4280606,71.3310666 62.6245699,72.8259322 60.9263158,74.109215 C59.2280617,75.3924979 57.7052699,76.3617715 56.3578947,77.0170648 C55.0105196,77.6723582 53.831584,78 52.8210526,78 C51.3613962,78 50.1894781,77.5153632 49.3052632,76.5460751 C48.4210482,75.576787 47.9789474,74.3003492 47.9789474,72.7167235 C47.9789474,71.2423134 48.3087686,69.4607613 48.9684211,67.3720137 C49.6280735,65.283266 50.6385897,62.8737338 52,60.1433447 C53.3614103,57.4129556 55.045604,54.4505279 57.0526316,51.2559727 C59.0596592,48.0614175 61.3263032,44.7303928 63.8526316,41.2627986 C66.3228194,37.8225084 67.5578947,35.6109264 67.5578947,34.6279863 C67.5578947,34.0546046 67.2491259,33.7679181 66.6315789,33.7679181 C64.1333208,33.7679181 58.4351322,38.614286 49.5368421,48.3071672 C48.9754358,48.9078528 48.0000069,50.0204697 46.6105263,51.6450512 C45.2210457,53.2696327 43.803516,54.9965779 42.3578947,56.8259386 C40.9122735,58.6552992 39.2912371,60.7098862 37.4947368,62.9897611 C35.6982366,65.269636 33.8736935,67.583606 32.0210526,69.9317406 C31.1508728,71.0512001 30.4070206,71.6109215 29.7894737,71.6109215 C29.1157861,71.6109215 28.2315844,71.0785036 27.1368421,70.0136519 C26.0420998,68.9488001 25.4947368,68.1706509 25.4947368,67.6791809 C25.4947368,67.1057992 26.2736764,65.6723664 27.8315789,63.3788396 C29.3894815,61.0853128 30.6456093,59.1604173 31.6,57.6040956 Z" id="N" fill="#F15046"></path>
            </g>
        </g>
        <g id="close_eye" transform="translate(0.000000, 112.000000)" fill="#999999">
            <g id="AK-IN闭眼">
                <path d="M11.4431667,7.23432647 L12.6743507,8.41250829 C12.7331001,8.17048611 12.7726922,7.92207813 12.7726922,7.66281427 C12.7726922,5.90224665 11.3403551,4.46990962 9.5797875,4.46990962 C9.27199149,4.46990962 8.98079859,4.5273819 8.69854582,4.60912026 L9.92462121,5.78219343 C10.676231,5.91948833 11.2726656,6.49484975 11.4431667,7.23432647 Z M10.4629449,10.7158697 L9.23814671,9.54343512 C8.48398263,9.4067788 7.88435513,8.83014021 7.71513118,8.08747059 L6.48522431,6.91120452 C6.42647487,7.15386527 6.38688285,7.40291183 6.38688285,7.66281427 C6.38688285,9.4233819 7.81921988,10.8557189 9.5797875,10.8557189 C9.88822209,10.8557189 10.1800536,10.7976081 10.4629449,10.7158697 Z M2.93343717,0.176730015 L17.6207986,14.2255105 C17.8749538,14.4694484 17.8845325,14.8736701 17.6405946,15.1284639 C17.5147942,15.259373 17.347486,15.3257854 17.1789006,15.3257854 C17.0144923,15.3260089 16.8563713,15.2626232 16.7376412,15.1488985 L2.05027974,1.10011804 C1.79548595,0.856180126 1.78654582,0.451958397 2.03048373,0.197164605 C2.27378307,-0.0576291864 2.6780048,-0.0665693195 2.93343717,0.176730015 Z M9.5797875,13.4100427 C10.6219516,13.4100427 11.6577299,13.1929251 12.6379516,12.7963664 L13.6328607,13.7657322 C12.3531445,14.3672755 10.9731711,14.7223265 9.5797875,14.7223265 C5.68827531,14.7223265 1.88488728,12.1597012 0.116018102,8.29500939 L0.0253396102,8.02297392 C0.0183152199,7.99615352 0.00426643942,7.72731095 0.00426643942,7.72731095 C-0.000842208029,7.68261028 -0.00148078896,7.64684975 0.00298927756,7.60214908 C0.00298927756,7.60214908 0.0189538008,7.45335973 0.0349183241,7.37864576 C0.0323640004,7.3939717 0.0323640004,7.32564354 0.0674859516,7.22474775 C0.0711897344,7.21389163 0.075452637,7.20323437 0.0802575702,7.19281871 C0.0898362842,7.15705818 0.104523646,7.11746616 0.125596816,7.07531982 C0.775033623,5.65639299 1.70480746,4.40924443 2.81210679,3.39837081 L3.7361334,4.28152824 C2.73547708,5.18065019 1.89191167,6.30072115 1.29866999,7.58043733 C1.29611566,7.58937747 1.2916456,7.59704044 1.28909127,7.60598057 C1.28717553,7.62066793 1.2782354,7.63535529 1.2782354,7.65004265 L1.2782354,7.65834421 C1.2782354,7.66728434 1.28334404,7.67622447 1.28398263,7.68324886 C1.28525979,7.68963467 1.28845269,7.6985748 1.28972985,7.70943068 C1.29356134,7.72092514 1.29739283,7.73178101 1.30058573,7.74391405 C2.88809793,11.1437189 6.20169438,13.4100427 9.5797875,13.4100427 Z M19.1585015,7.66473002 C19.1585015,7.7758431 19.139344,7.86779875 19.127211,7.92910252 C19.1278496,7.92910252 19.1278496,7.92846394 19.1278496,7.92846394 C19.1304039,7.92846394 19.1240181,8.00573223 19.0933662,8.09513356 C19.0895347,8.10662802 19.0850647,8.11812248 19.079956,8.13025551 C19.067823,8.17176327 19.0505813,8.21837968 19.0231223,8.268189 C18.3787942,9.67881427 17.4528518,10.919577 16.3487454,11.9272577 L15.4240802,11.0428231 C16.4234593,10.1443398 17.265109,9.02618456 17.8577121,7.7490227 C17.8602664,7.7388054 17.8634593,7.72986527 17.8660137,7.72156372 C17.8666522,7.71837081 17.8679294,7.71517791 17.868568,7.711985 C17.8711223,7.6985748 17.8730381,7.68644177 17.876231,7.67303157 C17.8730381,7.65962137 17.8698452,7.63535529 17.8666522,7.60981206 C17.8647365,7.60470341 17.8628208,7.5983176 17.8615436,7.59257037 C17.8596279,7.58873888 17.8583507,7.58299166 17.856435,7.57660585 C16.2887188,4.19148833 12.9674593,1.91558589 9.5797875,1.91558589 C8.538262,1.91558589 7.5037609,2.13270341 6.52353917,2.52862359 L5.52863008,1.57777658 C6.80834626,0.974956179 8.18768107,0.638424029 9.5797875,0.638424029 C13.4732154,0.638424029 17.2759649,3.23425551 19.0429183,7.09894731 C19.0544128,7.12321339 19.0652687,7.15386527 19.0748474,7.18515574 C19.0805946,7.19920452 19.0863418,7.2132533 19.0914505,7.2266635 C19.1099693,7.28094288 19.1291267,7.38439299 19.1329582,7.44250385 C19.1387055,7.45335973 19.1585015,7.54914687 19.1585015,7.66473002 Z" id="Combined-Shape" fill-rule="nonzero"></path>
            </g>
        </g>
        <g id="open_eye" transform="translate(48.000000, 112.000000)" fill="#999999">
            <g id="AK-IN睁眼">
                <path d="M19.1599998,7.66698429 C19.1599998,7.77746945 19.1408406,7.87007263 19.1287064,7.93202096 L19.129345,7.93138231 C19.1318996,7.93138231 19.1255131,8.00801942 19.0948583,8.09742938 C19.0910264,8.10828631 19.086556,8.11978187 19.0814468,8.13191608 C19.0693126,8.17342785 19.0520693,8.22004876 19.0246076,8.26986288 C17.2779202,12.0946933 13.4748036,14.6901367 9.58036116,14.6901367 C5.68847328,14.6901367 1.88535672,12.0927774 0.116316774,8.22707383 C0.106737136,8.20599862 0.0965188543,8.17725971 0.0869392156,8.14660486 C0.0696958659,8.10700902 0.0562843718,8.06677454 0.0473433757,8.02526277 L0.0479820183,8.02526277 C0.0371250944,7.97608729 0.0281840983,7.92244132 0.025629528,7.88603869 C0.0186044596,7.8592157 0.00391568028,7.7302099 0.00391568028,7.7302099 C-0.00119346036,7.68486628 -0.00119346036,7.64974094 0.0032770377,7.60439731 C0.0032770377,7.60439731 0.017965817,7.45623223 0.0345705241,7.38151105 C0.0313773112,7.39939305 0.0320159538,7.32850372 0.0671412956,7.22695955 C0.0712334355,7.21625006 0.0754915656,7.20560473 0.0799141472,7.19502742 C0.0894937859,7.15990208 0.104182565,7.12030624 0.12525777,7.07815583 C1.88407943,3.23480479 5.68719599,0.639999986 9.58036116,0.639999986 C13.474165,0.639999986 17.2772815,3.23672071 19.0444055,7.10114696 C19.0559011,7.12541538 19.066758,7.15607022 19.0763377,7.18736371 C19.0820855,7.20141385 19.0878332,7.21546398 19.0929424,7.22887548 C19.111463,7.28379874 19.1306223,7.38725884 19.1344541,7.44473667 C19.1402019,7.45559359 19.1599998,7.55202862 19.1599998,7.66698429 Z M17.8693032,7.71424384 C17.8718578,7.70147099 17.8737737,7.68869813 17.8776055,7.67592528 C17.8744123,7.66315243 17.8712191,7.63824537 17.8680259,7.61269967 C17.86611,7.60695188 17.8641941,7.6012041 17.8629168,7.59545632 C17.8610008,7.59098582 17.8597236,7.58523804 17.8578076,7.57885161 C16.2899401,4.19404594 12.96836,1.91728514 9.58036116,1.91728514 C6.19363956,1.91728514 2.87142086,4.19213001 1.29844419,7.58204482 C1.29588962,7.59098582 1.29333505,7.59928817 1.29078048,7.60759053 C1.28886455,7.62291795 1.28630998,7.63760673 1.28311677,7.65165686 L1.28247812,7.65995922 C1.28375541,7.66890021 1.28503269,7.67784121 1.28630998,7.68486628 C1.28694862,7.6912527 1.28886455,7.70083234 1.29014184,7.71168927 C1.29397369,7.72254619 1.2971669,7.73404176 1.30036012,7.74553732 C2.88802557,11.1463091 6.20194191,13.4128516 9.58036116,13.4128516 C12.9670828,13.4128516 16.2867469,11.139284 17.8584463,7.75128511 C17.8610008,7.74106683 17.8641941,7.73212583 17.8667486,7.72382348 C17.8673873,7.72063026 17.8686646,7.71743705 17.8693032,7.71424384 Z M9.71963361,4.46999979 C11.5555937,4.46999979 13.0492673,5.96367349 13.0492673,7.79963353 C13.0492673,9.63559357 11.5555937,11.1292673 9.71963361,11.1292673 C7.88367356,11.1292673 6.38999987,9.63559357 6.38999987,7.79963353 C6.38999987,5.96367349 7.88367356,4.46999979 9.71963361,4.46999979 Z M9.71963361,9.79741377 C10.8210764,9.79741377 11.7174139,8.90107637 11.7174139,7.79963353 C11.7174139,6.69819069 10.8210764,5.80185329 9.71963361,5.80185329 C8.61819077,5.80185329 7.72185336,6.69819069 7.72185336,7.79963353 C7.72185336,8.90107637 8.61819077,9.79741377 9.71963361,9.79741377 Z" id="Combined-Shape" fill-rule="nonzero"></path>
            </g>
        </g>
        <g id="error" transform="translate(96.000000, 112.000000)">
            <circle id="Oval-2" fill="#E61122" cx="8" cy="8" r="8"></circle>
            <rect id="Rectangle-5" fill="#FFFFFF" x="7" y="3" width="2" height="7" rx="1"></rect>
            <rect id="Rectangle-6" fill="#FFFFFF" x="7" y="11" width="2" height="2" rx="1"></rect>
        </g>
        <g id="ok" transform="translate(128.000000, 112.000000)">
            <circle id="Oval-2" fill="#008800" cx="8" cy="8" r="8"></circle>
            <polyline id="Rectangle-5" stroke="#FFFFFF" stroke-width="2" stroke-linecap="round" transform="translate(7.858757, 6.858757) rotate(45.000000) translate(-7.858757, -6.858757) " points="9.60875721 3.85875721 9.60875721 9.85875721 6.10875721 9.85875721"></polyline>
        </g>
    </g>
</svg>