<?xml version="1.0" encoding="UTF-8"?>
<svg width="228px" height="200px" viewBox="0 0 228 200" version="1.1" xmlns="http://www.w3.org/2000/svg" xmlns:xlink="http://www.w3.org/1999/xlink">
    <!-- Generator: Sketch 50 (54983) - http://www.bohemiancoding.com/sketch -->
    <title>404</title>
    <desc>Created with Sketch.</desc>
    <defs>
        <path d="M61,28.9140625 C76.929696,28.9140625 85,26.2784348 85,20 C85,11.3152574 74.1832439,2 61,2 C47.8167561,2 37,11.3152574 37,20 C37,26.2784348 45.070304,28.9140625 61,28.9140625 Z" id="path-1"></path>
        <filter x="-3.1%" y="-5.6%" width="106.2%" height="111.1%" filterUnits="objectBoundingBox" id="filter-2">
            <feOffset dx="0" dy="-3" in="SourceAlpha" result="shadowOffsetInner1"></feOffset>
            <feComposite in="shadowOffsetInner1" in2="SourceAlpha" operator="arithmetic" k2="-1" k3="1" result="shadowInnerInner1"></feComposite>
            <feColorMatrix values="0 0 0 0 0.866666667   0 0 0 0 0.847058824   0 0 0 0 1  0 0 0 1 0" type="matrix" in="shadowInnerInner1"></feColorMatrix>
        </filter>
    </defs>
    <g id="404" stroke="none" stroke-width="1" fill="none" fill-rule="evenodd">
        <g>
            <g id="Group-2" transform="translate(13.000000, 171.000000)" fill="#8F7EFF">
                <path d="M21,0 L31,0 C31.5522847,-1.01453063e-16 32,0.44771525 32,1 C32,1.55228475 31.5522847,2 31,2 L21,2 C20.4477153,2 20,1.55228475 20,1 C20,0.44771525 20.4477153,1.01453063e-16 21,0 Z M153,0 L171,0 C171.552285,-1.01453063e-16 172,0.44771525 172,1 C172,1.55228475 171.552285,2 171,2 L153,2 C152.447715,2 152,1.55228475 152,1 C152,0.44771525 152.447715,1.01453063e-16 153,0 Z M176,0 L181,0 C181.552285,-1.01453063e-16 182,0.44771525 182,1 C182,1.55228475 181.552285,2 181,2 L176,2 C175.447715,2 175,1.55228475 175,1 C175,0.44771525 175.447715,1.01453063e-16 176,0 Z M37,0 L149,0 C149.552285,-1.01453063e-16 150,0.44771525 150,1 C150,1.55228475 149.552285,2 149,2 L37,2 C36.4477153,2 36,1.55228475 36,1 C36,0.44771525 36.4477153,1.01453063e-16 37,0 Z M35,18 L62.9048446,18 C64.5894599,14.7091432 67.1525169,13 70.496582,13 C73.8401041,13 76.4357468,14.7077246 78.1918971,18 L124.094457,18 L124.35265,18.6104598 C125.610404,21.5842313 127.611837,23 130.5,23 C133.390452,23 135.407921,21.5813646 136.692392,18.6038904 L136.952909,18 L166,18 C166.552285,18 167,18.4477153 167,19 C167,19.5522847 166.552285,20 166,20 L138.2504,20 C136.628779,23.2940286 134.006069,25 130.5,25 C126.993883,25 124.382885,23.2935313 122.787098,20 L76.9473491,20 L76.6752752,19.4320008 C75.2368186,16.4289843 73.213215,15 70.496582,15 C67.7861499,15 65.8063778,16.4213232 64.44198,19.4147476 L64.1752229,20 L35,20 C34.4477153,20 34,19.5522847 34,19 C34,18.4477153 34.4477153,18 35,18 Z M1,20 C0.44771525,20 -6.76353751e-17,19.5522847 0,19 C6.76353751e-17,18.4477153 0.44771525,18 1,18 L25,18 C25.5522847,18 26,18.4477153 26,19 C26,19.5522847 25.5522847,20 25,20 L1,20 Z M171,20 C170.447715,20 170,19.5522847 170,19 C170,18.4477153 170.447715,18 171,18 L189,18 C189.552285,18 190,18.4477153 190,19 C190,19.5522847 189.552285,20 189,20 L171,20 Z M194,20 C193.447715,20 193,19.5522847 193,19 C193,18.4477153 193.447715,18 194,18 L202,18 C202.552285,18 203,18.4477153 203,19 C203,19.5522847 202.552285,20 202,20 L194,20 Z" id="Combined-Shape"></path>
            </g>
            <path d="M55.9917308,171.358657 C36.6783039,155.032924 24.4142136,130.628006 24.4142136,103.358657 C24.4142136,91.8397289 26.6025288,80.8319097 30.5861112,70.7282468 L21.9289322,62.0710678 C18.0236893,58.1658249 18.0236893,51.8341751 21.9289322,47.9289322 C25.3486581,44.5092063 30.6289716,44.0840509 34.5113304,46.653466 L44.0416306,56.1837662 C47.9468735,60.0890091 54.2785233,60.0890091 58.1837662,56.1837662 C62.0890091,52.2785233 62.0890091,45.9468735 58.1837662,42.0416306 L41.653466,25.5113304 C39.0840509,21.6289716 39.5092063,16.3486581 42.9289322,12.9289322 C46.8341751,9.02368927 53.1658249,9.02368927 57.0710678,12.9289322 L69.865123,25.7229874 C82.7386948,18.486149 97.5944404,14.3586566 113.414214,14.3586566 C160.968133,14.3586566 199.811183,51.6543273 202.288695,98.5910023 L213.740115,110.042423 C217.645358,113.947666 217.645358,120.279315 213.740115,124.184558 C210.320389,127.604284 205.040076,128.02944 201.157717,125.460025 L199.223611,123.525918 C195.318368,119.620676 188.986718,119.620676 185.081475,123.525918 C181.176233,127.431161 181.176233,133.762811 185.081475,137.668054 L192.203028,144.789607 C192.178218,144.836691 192.153367,144.883749 192.128476,144.930783 L201.740115,154.542423 C205.645358,158.447666 205.645358,164.779315 201.740115,168.684558 C197.834872,172.589801 191.503223,172.589801 187.59798,168.684558 L180.620571,161.70715 C177.612027,165.169448 174.340357,168.396995 170.836695,171.358657 L55.9917308,171.358657 Z" id="Combined-Shape" fill="#8F7EFF" opacity="0.0994977679"></path>
            <g id="Group-5" transform="translate(30.000000, 23.000000)" fill="#8F7EFF">
                <path d="M12.8743034,36 C13.4265882,36 13.8743034,36.4477153 13.8743034,37 L13.8743034,39 C13.8743034,39.5522847 13.4265882,40 12.8743034,40 C12.3220187,40 11.8743034,39.5522847 11.8743034,39 L11.8743034,37 C11.8743034,36.4477153 12.3220187,36 12.8743034,36 Z M17.5559213,38.2474 C17.9034853,38.6766059 17.8373016,39.3063023 17.4080957,39.6538664 L15.8538038,40.9125071 C15.4245979,41.2600712 14.7949015,41.1938874 14.4473374,40.7646816 C14.0997734,40.3354757 14.1659571,39.7057793 14.595163,39.3582152 L16.1494549,38.0995744 C16.5786608,37.7520104 17.2083572,37.8181941 17.5559213,38.2474 Z M18.7227552,43.3399858 C18.5985182,43.8781156 18.0615638,44.2136419 17.5234341,44.0894049 L15.5746939,43.6395027 C15.0365642,43.5152657 14.7010379,42.9783114 14.8252749,42.4401816 C14.949512,41.9020519 15.4864663,41.5665256 16.0245961,41.6907626 L17.9733362,42.1406647 C18.5114659,42.2649018 18.8469922,42.8018561 18.7227552,43.3399858 Z M15.4865807,47.4014636 C14.9901904,47.6435693 14.3915212,47.4374309 14.1494155,46.9410407 L13.2726732,45.1434526 C13.0305675,44.6470623 13.2367058,44.0483931 13.7330961,43.8062874 C14.2294863,43.5641817 14.8281556,43.77032 15.0702613,44.2667103 L15.9470036,46.0642984 C16.1891093,46.5606886 15.9829709,47.1593579 15.4865807,47.4014636 Z M10.2620262,47.4014636 C9.76563592,47.1593579 9.55949757,46.5606886 9.80160327,46.0642984 L10.6783456,44.2667103 C10.9204513,43.77032 11.5191205,43.5641817 12.0155108,43.8062874 C12.511901,44.0483931 12.7180394,44.6470623 12.4759337,45.1434526 L11.5991914,46.9410407 C11.3570857,47.4374309 10.7584164,47.6435693 10.2620262,47.4014636 Z M7.02585164,43.3399858 C6.9016146,42.8018561 7.23714092,42.2649018 7.77527065,42.1406647 L9.72401078,41.6907626 C10.2621405,41.5665256 10.7990949,41.9020519 10.9233319,42.4401816 C11.0475689,42.9783114 10.7120426,43.5152657 10.1739129,43.6395027 L8.22517276,44.0894049 C7.68704303,44.2136419 7.15008868,43.8781156 7.02585164,43.3399858 Z M8.19268557,38.2474 C8.54024962,37.8181941 9.16994606,37.7520104 9.59915192,38.0995744 L11.1534438,39.3582152 C11.5826497,39.7057793 11.6488335,40.3354757 11.3012694,40.7646816 C10.9537054,41.1938874 10.3240089,41.2600712 9.89480306,40.9125071 L8.34051114,39.6538664 C7.91130527,39.3063023 7.84512151,38.6766059 8.19268557,38.2474 Z" id="Rectangle-8-Copy"></path>
                <path d="M72,4 L72,1 C72,0.44771525 72.4477153,1.01453063e-16 73,1.23259516e-32 C73.5522847,-1.01453063e-16 74,0.44771525 74,1 L74,4 L77,4 C77.5522847,4 78,4.44771525 78,5 C78,5.55228475 77.5522847,6 77,6 L74,6 L74,9 C74,9.55228475 73.5522847,10 73,10 C72.4477153,10 72,9.55228475 72,9 L72,6 L69,6 C68.4477153,6 68,5.55228475 68,5 C68,4.44771525 68.4477153,4 69,4 L72,4 Z" id="Combined-Shape"></path>
                <path d="M160.830127,71.830127 L160.830127,68.830127 C160.830127,68.2778423 161.277842,67.830127 161.830127,67.830127 C162.382412,67.830127 162.830127,68.2778423 162.830127,68.830127 L162.830127,71.830127 L165.830127,71.830127 C166.382412,71.830127 166.830127,72.2778423 166.830127,72.830127 C166.830127,73.3824118 166.382412,73.830127 165.830127,73.830127 L162.830127,73.830127 L162.830127,76.830127 C162.830127,77.3824118 162.382412,77.830127 161.830127,77.830127 C161.277842,77.830127 160.830127,77.3824118 160.830127,76.830127 L160.830127,73.830127 L157.830127,73.830127 C157.277842,73.830127 156.830127,73.3824118 156.830127,72.830127 C156.830127,72.2778423 157.277842,71.830127 157.830127,71.830127 L160.830127,71.830127 Z" id="Combined-Shape" transform="translate(161.830127, 72.830127) rotate(30.000000) translate(-161.830127, -72.830127) "></path>
                <path d="M4,105 C1.23857625,105 -1,102.761424 -1,100 C-1,97.2385763 1.23857625,95 4,95 C6.76142375,95 9,97.2385763 9,100 C9,102.761424 6.76142375,105 4,105 Z M4,103 C5.65685425,103 7,101.656854 7,100 C7,98.3431458 5.65685425,97 4,97 C2.34314575,97 1,98.3431458 1,100 C1,101.656854 2.34314575,103 4,103 Z" id="Oval" fill-rule="nonzero"></path>
                <path d="M138.5,31 C135.462434,31 133,28.5375661 133,25.5 C133,22.4624339 135.462434,20 138.5,20 C141.537566,20 144,22.4624339 144,25.5 C144,28.5375661 141.537566,31 138.5,31 Z M138.5,29 C140.432997,29 142,27.4329966 142,25.5 C142,23.5670034 140.432997,22 138.5,22 C136.567003,22 135,23.5670034 135,25.5 C135,27.4329966 136.567003,29 138.5,29 Z" id="Oval" fill-rule="nonzero"></path>
            </g>
            <g id="Group-3" transform="translate(53.000000, 63.000000)">
                <polygon id="Path" fill="#8F7EFF" points="82.2928595 49 95.2344142 110 26.7183156 110 42.0128802 49"></polygon>
                <polygon id="Path" fill="#FFFFFF" points="43.5733267 51 29.2816844 108 92.7655858 108 80.6726577 51"></polygon>
                <path d="M52.4788988,84.1823579 C52.7298237,84.1823579 52.9332084,84.2927671 53.0895639,84.5135889 C53.2465927,84.7344106 53.3139635,85.0126419 53.2911736,85.3482909 C53.2683837,85.68394 53.1625974,85.9577549 52.973327,86.1697438 C52.7834101,86.3817327 52.5601819,86.4877255 52.3041204,86.4877255 L51.2327103,86.4877255 L50.8875443,90.5419927 C50.8574643,90.8953075 50.7336951,91.1956206 50.5156239,91.442941 C50.2967406,91.6902613 50.045983,91.8139197 49.7639527,91.8139197 C49.4819223,91.8139197 49.2578303,91.6902613 49.0922571,91.442941 C48.927467,91.1956206 48.8633586,90.8953075 48.8993428,90.5419927 L49.3122583,86.4877255 L43.7732704,86.4877255 C43.5306858,86.4877255 43.33074,86.3640672 43.1740577,86.1167468 C43.0182166,85.8694264 42.9671807,85.5779461 43.0203179,85.242297 C43.0706584,84.9243137 43.1883361,84.6416661 43.3728761,84.3943457 L50.7694811,73.7684559 C50.8691893,73.6094642 50.9860665,73.4858059 51.120149,73.3974772 C51.2540139,73.3091485 51.3864576,73.2649848 51.517647,73.2649848 C51.7561733,73.2649848 51.9449188,73.3886431 52.0844765,73.6359635 C52.2248173,73.8832838 52.2802405,74.1835969 52.2501605,74.5369117 L51.4289812,84.1823579 L52.4788988,84.1823579 Z M45.6841491,84.1823579 L49.5470534,84.1823579 L50.2217521,77.5577383 L45.6841491,84.1823579 Z M60.614131,92.0789044 C59.4552584,92.0789044 58.474592,91.6725985 57.6803929,90.8599744 C56.8972481,90.0473504 56.3341377,88.9255927 55.9901795,87.4946677 C55.6561216,86.0637427 55.5382626,84.4120207 55.6291738,82.5394522 C55.7200849,80.6668837 55.9861306,79.0151618 56.4198938,77.5842368 C56.8437566,76.1533118 57.4193467,75.0315541 58.1458161,74.21893 C58.8612313,73.4063059 59.7024857,73 60.6778953,73 C61.6533048,73 62.4918434,73.4063059 63.2018267,74.21893 C63.9228643,75.0315541 64.4909564,76.1533118 64.9052545,77.5842368 C65.3294529,79.0151618 65.5844581,80.6668837 65.6628525,82.5394522 C65.7412469,84.4120207 65.6123473,86.0637427 65.2687248,87.4946677 C64.9152018,88.9255927 64.3445933,90.0473504 63.5560167,90.8599744 C62.7563859,91.6725985 61.7730036,92.0789044 60.614131,92.0789044 Z M60.6226329,89.5350505 C61.6325352,89.5350505 62.4103825,88.9255916 62.9475142,87.7066555 C63.4730675,86.4877194 63.7050701,84.7653355 63.6522126,82.5394522 C63.5993551,80.3135689 63.304302,78.591185 62.7757282,77.3722489 C62.2587327,76.1533128 61.5595227,75.5438539 60.6693934,75.5438539 C59.779264,75.5438539 59.0759802,76.1533128 58.550837,77.3722489 C58.0141155,78.591185 57.7075495,80.3135689 57.6398137,82.5394522 C57.5720778,84.7653355 57.7925675,86.4877194 58.3099731,87.7066555 C58.8389571,88.9255916 59.6127306,89.5350505 60.6226329,89.5350505 Z M77.2609159,84.1823579 C77.5118408,84.1823579 77.7395214,84.2927671 77.9444694,84.5135889 C78.1500907,84.7344106 78.2786873,85.0126419 78.329758,85.3482909 C78.3808287,85.68394 78.3352963,85.9577549 78.1926746,86.1697438 C78.0494066,86.3817327 77.8495025,86.4877255 77.5934409,86.4877255 L76.5220309,86.4877255 L77.0690192,90.5419927 C77.1166872,90.8953075 77.0590029,91.1956206 76.8953553,91.442941 C76.7308957,91.6902613 76.5073495,91.8139197 76.2253191,91.8139197 C75.9432888,91.8139197 75.6919853,91.6902613 75.4719885,91.442941 C75.2527748,91.1956206 75.1225816,90.8953075 75.0808176,90.5419927 L74.6015789,86.4877255 L69.062591,86.4877255 C68.8200064,86.4877255 68.5928491,86.3640672 68.3817432,86.1167468 C68.1714785,85.8694264 68.0563014,85.5779461 68.035578,85.242297 C68.0159452,84.9243137 68.0714254,84.6416661 68.2015417,84.3943457 L73.2598861,73.7684559 C73.3246076,73.6094642 73.4142734,73.4858059 73.5289189,73.3974772 C73.6433468,73.3091485 73.7660721,73.2649848 73.8972616,73.2649848 C74.1357878,73.2649848 74.3517447,73.3886431 74.5457261,73.6359635 C74.7404905,73.8832838 74.8619985,74.1835969 74.9096666,74.5369117 L76.2109983,84.1823579 L77.2609159,84.1823579 Z M70.4661662,84.1823579 L74.3290705,84.1823579 L73.5460006,77.5577383 L70.4661662,84.1823579 Z" id="404" fill="#8F7EFF"></path>
                <rect id="Rectangle-22" fill="#8F7EFF" x="47" y="64" width="28" height="1.5" rx="0.75"></rect>
                <rect id="Rectangle-22" fill="#8F7EFF" x="38" y="100" width="46" height="1.5" rx="0.75"></rect>
                <path d="M99,63 C93.4771525,63 89,58.5228475 89,53 C89,47.4771525 93.4771525,43 99,43 C104.522847,43 109,47.4771525 109,53 C109,58.5228475 104.522847,63 99,63 Z" id="Path" fill="#8F7DFF"></path>
                <path d="M99,61 C103.418278,61 107,57.418278 107,53 C107,48.581722 103.418278,45 99,45 C94.581722,45 91,48.581722 91,53 C91,57.418278 94.581722,61 99,61 Z" id="Path" fill="#DDD8FF"></path>
                <path d="M25,63 C19.4771525,63 15,58.5228475 15,53 C15,47.4771525 19.4771525,43 25,43 C30.5228475,43 35,47.4771525 35,53 C35,58.5228475 30.5228475,63 25,63 Z" id="Path" fill="#8F7DFF"></path>
                <path d="M25,61 C29.418278,61 33,57.418278 33,53 C33,48.581722 29.418278,45 25,45 C20.581722,45 17,48.581722 17,53 C17,57.418278 20.581722,61 25,61 Z" id="Path" fill="#DDD8FF"></path>
                <path d="M61,59.2222222 C27.3132115,59.2222222 0,50.1178184 0,38.2222222 C0,25.9394049 28.4510232,15 61,15 C93.5489768,15 122,25.9394049 122,38.2222222 C122,50.1178184 94.6867885,59.2222222 61,59.2222222 Z" id="Path" fill="#8F7DFF"></path>
                <path d="M61,57.2222222 C93.5873814,57.2222222 120,48.418016 120,38.2222222 C120,27.5659004 92.5203811,17 61,17 C29.4796189,17 2,27.5659004 2,38.2222222 C2,48.418016 28.4126186,57.2222222 61,57.2222222 Z" id="Path" fill="#FFFFFF"></path>
                <path d="M112.842721,41.621971 C112.538982,42.0832311 111.918828,42.2109271 111.457568,41.9071879 C110.996307,41.6034487 110.868611,40.9832942 111.172351,40.522034 C111.725963,39.6813152 112,38.808285 112,37.8846125 C112,32.7436416 103.480587,27.0557098 89.9706185,23.5069045 C89.4364552,23.3665903 89.1171776,22.8198182 89.2574918,22.285655 C89.3978061,21.7514918 89.9445781,21.4322141 90.4787413,21.5725284 C104.806746,25.3362157 114,31.4740333 114,37.8846125 C114,39.208677 113.60662,40.4619095 112.842721,41.621971 Z M87.0074209,20.7314104 C87.5464919,20.8514971 87.8861458,21.3858501 87.766059,21.9249212 C87.6459723,22.4639923 87.1116193,22.8036462 86.5725482,22.6835594 C78.7526778,20.9415572 70.0007808,20 61,20 C44.4432792,20 28.8247796,23.224004 19.0199005,28.3118569 C18.5296858,28.5662344 17.9260744,28.3750505 17.6716969,27.8848358 C17.4173194,27.394621 17.6085033,26.7910097 18.0987181,26.5366322 C28.212774,21.2883442 44.142966,18 61,18 C70.1454639,18 79.0431588,18.9572427 87.0074209,20.7314104 Z M11.6454493,30.9145938 C12.0487617,30.5372908 12.6815755,30.5583757 13.0588785,30.9616882 C13.4361814,31.3650006 13.4150965,31.9978144 13.0117841,32.3751174 C11.0091128,34.2486369 10,36.1200641 10,37.8846125 C10,43.5620068 20.79307,47.8187529 39.4406554,49.6218377 C39.9903763,49.6749916 40.3929234,50.1637183 40.3397694,50.7134392 C40.2866154,51.2631602 39.7978887,51.6657072 39.2481678,51.6125532 C19.5121319,49.7042233 8,45.163882 8,37.8846125 C8,35.4944782 9.27258717,33.1344306 11.6454493,30.9145938 Z M61,52.5656566 C60.4477153,52.5656566 60,52.1179413 60,51.5656566 C60,51.0133718 60.4477153,50.5656566 61,50.5656566 C81.155382,50.5656566 97.3704354,48.4616521 105.793897,44.5528271 C106.294871,44.3203549 106.889447,44.5380188 107.121919,45.038993 C107.354391,45.5399672 107.136728,46.1345429 106.635753,46.3670151 C97.8781633,50.4308891 81.4260268,52.5656566 61,52.5656566 Z" id="Oval-4" fill="#8F7DFF" fill-rule="nonzero"></path>
                <path d="M61,30.9140625 C43.9585546,30.9140625 35,27.9883468 35,20 C35,10.1387922 46.773034,9.99200722e-16 61,0 C75.226966,0 87,10.1387922 87,20 C87,27.9883468 78.0414454,30.9140625 61,30.9140625 Z" id="Path" fill="#8F7DFF"></path>
                <g id="Path">
                    <use fill="#FFFFFF" fill-rule="evenodd" xlink:href="#path-1"></use>
                    <use fill="black" fill-opacity="1" filter="url(#filter-2)" xlink:href="#path-1"></use>
                </g>
                <g id="Group" transform="translate(13.500000, 32.500000)">
                    <path d="M3.75,8 C1.71814575,8 0,6.71139069 0,5 C0,3.28860931 1.71814575,2 3.75,2 C5.78185425,2 7.5,3.28860931 7.5,5 C7.5,6.71139069 5.78185425,8 3.75,8 Z" id="Path" fill="#8F7DFF" transform="translate(3.750000, 5.000000) rotate(100.000000) translate(-3.750000, -5.000000) "></path>
                    <path d="M3.75,6.5 C5.03185425,6.5 6,5.77389069 6,5 C6,4.22610931 5.03185425,3.5 3.75,3.5 C2.46814575,3.5 1.5,4.22610931 1.5,5 C1.5,5.77389069 2.46814575,6.5 3.75,6.5 Z" id="Path" fill="#DDD8FF" transform="translate(3.750000, 5.000000) rotate(100.000000) translate(-3.750000, -5.000000) "></path>
                </g>
                <g id="Group" transform="translate(33.000000, 39.000000)">
                    <path d="M4.75,8 C2.71814575,8 1,6.71139069 1,5 C1,3.28860931 2.71814575,2 4.75,2 C6.78185425,2 8.5,3.28860931 8.5,5 C8.5,6.71139069 6.78185425,8 4.75,8 Z" id="Path" fill="#8F7DFF" transform="translate(4.750000, 5.000000) rotate(200.000000) translate(-4.750000, -5.000000) "></path>
                    <path d="M4.75,6.5 C6.03185425,6.5 7,5.77389069 7,5 C7,4.22610931 6.03185425,3.5 4.75,3.5 C3.46814575,3.5 2.5,4.22610931 2.5,5 C2.5,5.77389069 3.46814575,6.5 4.75,6.5 Z" id="Path" fill="#DDD8FF" transform="translate(4.750000, 5.000000) rotate(200.000000) translate(-4.750000, -5.000000) "></path>
                </g>
                <g id="Group" transform="translate(61.408564, 45.408564) rotate(-20.000000) translate(-61.408564, -45.408564) translate(56.408564, 40.408564)">
                    <path d="M4.75,8 C2.71814575,8 1,6.71139069 1,5 C1,3.28860931 2.71814575,2 4.75,2 C6.78185425,2 8.5,3.28860931 8.5,5 C8.5,6.71139069 6.78185425,8 4.75,8 Z" id="Path" fill="#8F7DFF" transform="translate(4.750000, 5.000000) rotate(200.000000) translate(-4.750000, -5.000000) "></path>
                    <path d="M4.75,6.5 C6.03185425,6.5 7,5.77389069 7,5 C7,4.22610931 6.03185425,3.5 4.75,3.5 C3.46814575,3.5 2.5,4.22610931 2.5,5 C2.5,5.77389069 3.46814575,6.5 4.75,6.5 Z" id="Path" fill="#DDD8FF" transform="translate(4.750000, 5.000000) rotate(200.000000) translate(-4.750000, -5.000000) "></path>
                </g>
                <g id="Group" transform="translate(85.784831, 44.187158) rotate(-20.000000) translate(-85.784831, -44.187158) translate(81.784831, 41.187158)">
                    <path d="M3.75,6 C1.71814575,6 0,4.71139069 0,3 C0,1.28860931 1.71814575,0 3.75,0 C5.78185425,0 7.5,1.28860931 7.5,3 C7.5,4.71139069 5.78185425,6 3.75,6 Z" id="Path" fill="#8F7DFF" transform="translate(3.750000, 3.000000) rotate(180.000000) translate(-3.750000, -3.000000) "></path>
                    <path d="M3.75,4.5 C5.03185425,4.5 6,3.77389069 6,3 C6,2.22610931 5.03185425,1.5 3.75,1.5 C2.46814575,1.5 1.5,2.22610931 1.5,3 C1.5,3.77389069 2.46814575,4.5 3.75,4.5 Z" id="Path" fill="#DDD8FF" transform="translate(3.750000, 3.000000) rotate(180.000000) translate(-3.750000, -3.000000) "></path>
                </g>
                <g id="Group" transform="translate(104.649016, 37.460176) rotate(-100.000000) translate(-104.649016, -37.460176) translate(100.649016, 34.460176)">
                    <path d="M3.75,6 C1.71814575,6 0,4.71139069 0,3 C0,1.28860931 1.71814575,0 3.75,0 C5.78185425,0 7.5,1.28860931 7.5,3 C7.5,4.71139069 5.78185425,6 3.75,6 Z" id="Path" fill="#8F7DFF" transform="translate(3.750000, 3.000000) rotate(180.000000) translate(-3.750000, -3.000000) "></path>
                    <path d="M3.75,4.5 C5.03185425,4.5 6,3.77389069 6,3 C6,2.22610931 5.03185425,1.5 3.75,1.5 C2.46814575,1.5 1.5,2.22610931 1.5,3 C1.5,3.77389069 2.46814575,4.5 3.75,4.5 Z" id="Path" fill="#DDD8FF" transform="translate(3.750000, 3.000000) rotate(180.000000) translate(-3.750000, -3.000000) "></path>
                </g>
            </g>
        </g>
    </g>
</svg>