<?xml version="1.0" encoding="UTF-8"?>
<svg width="204px" height="187px" viewBox="0 0 204 187" version="1.1" xmlns="http://www.w3.org/2000/svg" xmlns:xlink="http://www.w3.org/1999/xlink">
    <!-- Generator: Sketch 50 (54983) - http://www.bohemiancoding.com/sketch -->
    <title>cart-empty</title>
    <desc>Created with Sketch.</desc>
    <defs></defs>
    <g id="Symbols" stroke="none" stroke-width="1" fill="none" fill-rule="evenodd">
        <g id="cart_empty" transform="translate(-13.000000, -9.000000)">
            <g id="cart-empty">
                <g id="Group-2" transform="translate(13.000000, 171.000000)" fill="#8F7EFF">
                    <path d="M21,0 L31,0 C31.5522847,-1.01453063e-16 32,0.44771525 32,1 C32,1.55228475 31.5522847,2 31,2 L21,2 C20.4477153,2 20,1.55228475 20,1 C20,0.44771525 20.4477153,1.01453063e-16 21,0 Z M153,0 L171,0 C171.552285,-1.01453063e-16 172,0.44771525 172,1 C172,1.55228475 171.552285,2 171,2 L153,2 C152.447715,2 152,1.55228475 152,1 C152,0.44771525 152.447715,1.01453063e-16 153,0 Z M176,0 L181,0 C181.552285,-1.01453063e-16 182,0.44771525 182,1 C182,1.55228475 181.552285,2 181,2 L176,2 C175.447715,2 175,1.55228475 175,1 C175,0.44771525 175.447715,1.01453063e-16 176,0 Z M37,0 L149,0 C149.552285,-1.01453063e-16 150,0.44771525 150,1 C150,1.55228475 149.552285,2 149,2 L37,2 C36.4477153,2 36,1.55228475 36,1 C36,0.44771525 36.4477153,1.01453063e-16 37,0 Z M35,20 C34.4477153,20 34,19.5522847 34,19 C34,18.4477153 34.4477153,18 35,18 L64.1752229,18 L64.44198,18.5852524 C65.8063778,21.5786768 67.7861499,23 70.496582,23 C73.213215,23 75.2368186,21.5710157 76.6752752,18.5679992 L76.9473491,18 L122.787098,18 C124.382885,14.7064687 126.993883,13 130.5,13 C134.006069,13 136.628779,14.7059714 138.2504,18 L166,18 C166.552285,18 167,18.4477153 167,19 C167,19.5522847 166.552285,20 166,20 L136.952909,20 L136.692392,19.3961096 C135.407921,16.4186354 133.390452,15 130.5,15 C127.611837,15 125.610404,16.4157687 124.35265,19.3895402 L124.094457,20 L78.1918971,20 C76.4357468,23.2922754 73.8401041,25 70.496582,25 C67.1525169,25 64.5894599,23.2908568 62.9048446,20 L35,20 Z M1,18 L25,18 C25.5522847,18 26,18.4477153 26,19 C26,19.5522847 25.5522847,20 25,20 L1,20 C0.44771525,20 6.76353751e-17,19.5522847 0,19 C-6.76353751e-17,18.4477153 0.44771525,18 1,18 Z M171,18 L189,18 C189.552285,18 190,18.4477153 190,19 C190,19.5522847 189.552285,20 189,20 L171,20 C170.447715,20 170,19.5522847 170,19 C170,18.4477153 170.447715,18 171,18 Z M194,18 L202,18 C202.552285,18 203,18.4477153 203,19 C203,19.5522847 202.552285,20 202,20 L194,20 C193.447715,20 193,19.5522847 193,19 C193,18.4477153 193.447715,18 194,18 Z" id="Combined-Shape"></path>
                </g>
                <path d="M55.5775173,171 C36.2640903,154.674268 24,130.26935 24,103 C24,91.4810723 26.1883152,80.4732531 30.1718976,70.3695902 L21.5147186,61.7124112 C17.6094757,57.8071683 17.6094757,51.4755185 21.5147186,47.5702756 C24.9344445,44.1505497 30.214758,43.7253943 34.0971168,46.2948094 L43.627417,55.8251096 C47.5326599,59.7303525 53.8643097,59.7303525 57.7695526,55.8251096 C61.6747955,51.9198667 61.6747955,45.5882169 57.7695526,41.682974 L41.2392524,25.1526738 C38.6698373,21.270315 39.0949927,15.9900015 42.5147186,12.5702756 C46.4199615,8.66503268 52.7516113,8.66503268 56.6568542,12.5702756 L69.4509095,25.3643308 C82.3244812,18.1274924 97.1802269,14 113,14 C160.55392,14 199.396969,51.2956707 201.874481,98.2323457 L213.325902,109.683766 C217.231145,113.589009 217.231145,119.920659 213.325902,123.825902 C209.906176,127.245628 204.625862,127.670783 200.743504,125.101368 L198.809398,123.167262 C194.904155,119.262019 188.572505,119.262019 184.667262,123.167262 C180.762019,127.072505 180.762019,133.404155 184.667262,137.309398 L191.788815,144.430951 C191.764005,144.478034 191.739154,144.525093 191.714262,144.572126 L201.325902,154.183766 C205.231145,158.089009 205.231145,164.420659 201.325902,168.325902 C197.420659,172.231145 191.089009,172.231145 187.183766,168.325902 L180.206357,161.348493 C177.197813,164.810792 173.926144,168.038339 170.422482,171.000001 L55.5775173,171 Z" id="Combined-Shape" fill="#8F7EFF" opacity="0.0994977679"></path>
                <g id="Group-5" transform="translate(39.000000, 23.000000)">
                    <path d="M5.87430342,75 C6.42658817,75 6.87430342,75.4477153 6.87430342,76 L6.87430342,78 C6.87430342,78.5522847 6.42658817,79 5.87430342,79 C5.32201867,79 4.87430342,78.5522847 4.87430342,78 L4.87430342,76 C4.87430342,75.4477153 5.32201867,75 5.87430342,75 Z M10.5559213,77.2474 C10.9034853,77.6766059 10.8373016,78.3063023 10.4080957,78.6538664 L8.85380378,79.9125071 C8.42459791,80.2600712 7.79490148,80.1938874 7.44733743,79.7646816 C7.09977337,79.3354757 7.16595713,78.7057793 7.595163,78.3582152 L9.14945492,77.0995744 C9.57866078,76.7520104 10.2083572,76.8181941 10.5559213,77.2474 Z M11.7227552,82.3399858 C11.5985182,82.8781156 11.0615638,83.2136419 10.5234341,83.0894049 L8.57469395,82.6395027 C8.03656422,82.5152657 7.7010379,81.9783114 7.82527494,81.4401816 C7.94951197,80.9020519 8.48646633,80.5665256 9.02459606,80.6907626 L10.9733362,81.1406647 C11.5114659,81.2649018 11.8469922,81.8018561 11.7227552,82.3399858 Z M8.48658067,86.4014636 C7.99019042,86.6435693 7.39152117,86.4374309 7.14941548,85.9410407 L6.27267318,84.1434526 C6.03056748,83.6470623 6.23670584,83.0483931 6.73309608,82.8062874 C7.22948633,82.5641817 7.82815558,82.77032 8.07026127,83.2667103 L8.94700357,85.0642984 C9.18910927,85.5606886 8.98297091,86.1593579 8.48658067,86.4014636 Z M3.26202617,86.4014636 C2.76563592,86.1593579 2.55949757,85.5606886 2.80160327,85.0642984 L3.67834556,83.2667103 C3.92045126,82.77032 4.51912051,82.5641817 5.01551076,82.8062874 C5.511901,83.0483931 5.71803935,83.6470623 5.47593366,84.1434526 L4.59919136,85.9410407 C4.35708566,86.4374309 3.75841641,86.6435693 3.26202617,86.4014636 Z M0.0258516401,82.3399858 C-0.0983853967,81.8018561 0.237140923,81.2649018 0.775270651,81.1406647 L2.72401078,80.6907626 C3.26214051,80.5665256 3.79909486,80.9020519 3.9233319,81.4401816 C4.04756894,81.9783114 3.71204262,82.5152657 3.17391289,82.6395027 L1.22517276,83.0894049 C0.687043032,83.2136419 0.150088677,82.8781156 0.0258516401,82.3399858 Z M1.19268557,77.2474 C1.54024962,76.8181941 2.16994606,76.7520104 2.59915192,77.0995744 L4.15344384,78.3582152 C4.5826497,78.7057793 4.64883347,79.3354757 4.30126941,79.7646816 C3.95370536,80.1938874 3.32400892,80.2600712 2.89480306,79.9125071 L1.34051114,78.6538664 C0.911305273,78.3063023 0.845121511,77.6766059 1.19268557,77.2474 Z" id="Rectangle-8" fill="#8F7EFF"></path>
                    <path d="M119.874303,15 C120.426588,15 120.874303,15.4477153 120.874303,16 L120.874303,18 C120.874303,18.5522847 120.426588,19 119.874303,19 C119.322019,19 118.874303,18.5522847 118.874303,18 L118.874303,16 C118.874303,15.4477153 119.322019,15 119.874303,15 Z M124.555921,17.2474 C124.903485,17.6766059 124.837302,18.3063023 124.408096,18.6538664 L122.853804,19.9125071 C122.424598,20.2600712 121.794901,20.1938874 121.447337,19.7646816 C121.099773,19.3354757 121.165957,18.7057793 121.595163,18.3582152 L123.149455,17.0995744 C123.578661,16.7520104 124.208357,16.8181941 124.555921,17.2474 Z M125.722755,22.3399858 C125.598518,22.8781156 125.061564,23.2136419 124.523434,23.0894049 L122.574694,22.6395027 C122.036564,22.5152657 121.701038,21.9783114 121.825275,21.4401816 C121.949512,20.9020519 122.486466,20.5665256 123.024596,20.6907626 L124.973336,21.1406647 C125.511466,21.2649018 125.846992,21.8018561 125.722755,22.3399858 Z M122.486581,26.4014636 C121.99019,26.6435693 121.391521,26.4374309 121.149415,25.9410407 L120.272673,24.1434526 C120.030567,23.6470623 120.236706,23.0483931 120.733096,22.8062874 C121.229486,22.5641817 121.828156,22.77032 122.070261,23.2667103 L122.947004,25.0642984 C123.189109,25.5606886 122.982971,26.1593579 122.486581,26.4014636 Z M117.262026,26.4014636 C116.765636,26.1593579 116.559498,25.5606886 116.801603,25.0642984 L117.678346,23.2667103 C117.920451,22.77032 118.519121,22.5641817 119.015511,22.8062874 C119.511901,23.0483931 119.718039,23.6470623 119.475934,24.1434526 L118.599191,25.9410407 C118.357086,26.4374309 117.758416,26.6435693 117.262026,26.4014636 Z M114.025852,22.3399858 C113.901615,21.8018561 114.237141,21.2649018 114.775271,21.1406647 L116.724011,20.6907626 C117.262141,20.5665256 117.799095,20.9020519 117.923332,21.4401816 C118.047569,21.9783114 117.712043,22.5152657 117.173913,22.6395027 L115.225173,23.0894049 C114.687043,23.2136419 114.150089,22.8781156 114.025852,22.3399858 Z M115.192686,17.2474 C115.54025,16.8181941 116.169946,16.7520104 116.599152,17.0995744 L118.153444,18.3582152 C118.58265,18.7057793 118.648833,19.3354757 118.301269,19.7646816 C117.953705,20.1938874 117.324009,20.2600712 116.894803,19.9125071 L115.340511,18.6538664 C114.911305,18.3063023 114.845122,17.6766059 115.192686,17.2474 Z" id="Rectangle-8-Copy" fill="#8F7EFF"></path>
                    <path d="M63,4 L63,1 C63,0.44771525 63.4477153,1.01453063e-16 64,1.23259516e-32 C64.5522847,-1.01453063e-16 65,0.44771525 65,1 L65,4 L68,4 C68.5522847,4 69,4.44771525 69,5 C69,5.55228475 68.5522847,6 68,6 L65,6 L65,9 C65,9.55228475 64.5522847,10 64,10 C63.4477153,10 63,9.55228475 63,9 L63,6 L60,6 C59.4477153,6 59,5.55228475 59,5 C59,4.44771525 59.4477153,4 60,4 L63,4 Z" id="Combined-Shape" fill="#8F7EFF"></path>
                    <path d="M144.830127,72.830127 L144.830127,69.830127 C144.830127,69.2778423 145.277842,68.830127 145.830127,68.830127 C146.382412,68.830127 146.830127,69.2778423 146.830127,69.830127 L146.830127,72.830127 L149.830127,72.830127 C150.382412,72.830127 150.830127,73.2778423 150.830127,73.830127 C150.830127,74.3824118 150.382412,74.830127 149.830127,74.830127 L146.830127,74.830127 L146.830127,77.830127 C146.830127,78.3824118 146.382412,78.830127 145.830127,78.830127 C145.277842,78.830127 144.830127,78.3824118 144.830127,77.830127 L144.830127,74.830127 L141.830127,74.830127 C141.277842,74.830127 140.830127,74.3824118 140.830127,73.830127 C140.830127,73.2778423 141.277842,72.830127 141.830127,72.830127 L144.830127,72.830127 Z" id="Combined-Shape" fill="#8F7EFF" transform="translate(145.830127, 73.830127) rotate(30.000000) translate(-145.830127, -73.830127) "></path>
                    <circle id="Oval" stroke="#8F7EFF" stroke-width="2" cx="9.5" cy="41.5" r="3.5"></circle>
                </g>
                <g id="Group-4" transform="translate(75.000000, 70.000000)">
                    <g id="Group">
                        <path d="M14.3262019,17 L63.6737981,17 C67.2187771,17 70.20413,19.6500988 70.6244256,23.1700743 L77.4587088,80.4071959 C77.7861054,83.1491428 75.8287257,85.6373373 73.0867789,85.964734 C72.8900508,85.9882239 72.6921004,86 72.4939748,86 L5.50602517,86 C2.74460142,86 0.506025172,83.7614237 0.506025172,81 C0.506025172,80.8018745 0.517801282,80.6039241 0.541291206,80.4071959 L7.37557438,23.1700743 C7.79586997,19.6500988 10.7812229,17 14.3262019,17 Z" id="Path" fill="#8F7EFF"></path>
                        <path d="M14.3262019,19 C11.7940741,19 9.6616791,20.8929277 9.36146797,23.4071959 L2.52718479,80.6443176 C2.51309084,80.7623544 2.50602517,80.8811247 2.50602517,81 C2.50602517,82.6568542 3.84917092,84 5.50602517,84 L72.4939748,84 C72.6128502,84 72.7316204,83.9929343 72.8496573,83.9788404 C74.4948254,83.7824024 75.6692532,82.2894857 75.4728152,80.6443176 L68.638532,23.4071959 C68.3383209,20.8929277 66.2059259,19 63.6737981,19 L14.3262019,19 Z" id="Path" fill="#FFFFFF"></path>
                        <path d="M26,37 C26,37.5522847 25.5522847,38 25,38 C24.4477153,38 24,37.5522847 24,37 L24,15 C24,6.71572875 30.7157288,0 39,0 C47.2842712,0 54,6.71572875 54,15 L54,37 C54,37.5522847 53.5522847,38 53,38 C52.4477153,38 52,37.5522847 52,37 L52,15 C52,7.82029825 46.1797017,2 39,2 C31.8202983,2 26,7.82029825 26,15 L26,37 Z" id="Rectangle-10" fill="#8F7EFF" fill-rule="nonzero"></path>
                        <path d="M75.4769671,68 L76.9656053,80.5280216 C77.2262717,82.7217281 75.6592332,84.7113905 73.4655267,84.9720569 C73.3088891,84.9906694 73.1512878,85 72.9935483,85 L6,85 C3.790861,85 2,83.209139 2,81 C2,80.8423856 2.00931586,80.684909 2.02789884,80.5283939 L3.51539055,68 L75.4769671,68 Z" id="Rectangle-21" fill-opacity="0.5" fill="#8F7EFF"></path>
                        <rect id="Rectangle-11" fill="#8F7DFF" x="3" y="67" width="72" height="2"></rect>
                    </g>
                    <g id="Group-3" transform="translate(14.000000, 33.000000)">
                        <circle id="Oval-3" fill="#8F7EFF" cx="11" cy="4" r="3.5"></circle>
                        <path d="M20,16 L30,16 L30,17 C30,19.7614237 27.7614237,22 25,22 L25,22 C22.2385763,22 20,19.7614237 20,17 L20,16 Z" id="Rectangle-12" fill="#8F7EFF"></path>
                        <circle id="Oval-3" fill="#8F7EFF" cx="39" cy="4" r="3.5"></circle>
                        <circle id="Oval-4" fill="#8F7DFF" opacity="0.160100446" cx="2.5" cy="13.5" r="2.5"></circle>
                        <circle id="Oval-4" fill="#8F7DFF" opacity="0.160100446" cx="47.5" cy="13.5" r="2.5"></circle>
                        <circle id="Oval-5" fill="#FFFFFF" cx="13" cy="3" r="2"></circle>
                        <circle id="Oval-5" fill="#FFFFFF" cx="41" cy="3" r="2"></circle>
                        <ellipse id="Oval-6" fill="#FFFFFF" cx="25" cy="20.5" rx="3" ry="1.5"></ellipse>
                    </g>
                </g>
            </g>
        </g>
    </g>
</svg>