<?xml version="1.0" encoding="UTF-8"?>
<svg width="88px" height="80px" viewBox="0 0 88 80" version="1.1" xmlns="http://www.w3.org/2000/svg" xmlns:xlink="http://www.w3.org/1999/xlink">
    <!-- Generator: Sketch 50 (54983) - http://www.bohemiancoding.com/sketch -->
    <title>coming-soon</title>
    <desc>Created with Sketch.</desc>
    <defs></defs>
    <g id="product-details" stroke="none" stroke-width="1" fill="none" fill-rule="evenodd">
        <g id="FS/03_product_details_comingsoon" transform="translate(-1347.000000, -309.000000)">
            <g id="pd-top" transform="translate(260.000000, 120.000000)">
                <g id="right" transform="translate(870.000000, 1.000000)">
                    <g id="Group" transform="translate(20.000000, 160.000000)">
                        <g id="coming-soon" transform="translate(197.000000, 28.000000)">
                            <path d="M20.6181616,74.9989997 L10.5779566,79.3510573 C10.3245926,79.4608813 10.0301707,79.344519 9.92034672,79.091155 C9.87732068,78.9918939 9.8676498,78.8813552 9.89278566,78.7761306 L12.2693409,68.8273185 C4.70611569,61.5500555 0,51.3246139 0,40 C0,17.90861 17.90861,0 40,0 C62.09139,0 80,17.90861 80,40 C80,62.09139 62.09139,80 40,80 C32.9680078,80 26.35983,78.1854349 20.6181616,74.9989997 Z" id="Combined-Shape-Copy" fill="#43BD63" opacity="0.16"></path>
                            <path d="M27.7553893,74.5060535 L16.5779566,79.3510573 C16.3245926,79.4608813 16.0301707,79.344519 15.9203467,79.091155 C15.8773207,78.9918939 15.8676498,78.8813552 15.8927857,78.7761306 L18.6607761,67.1886798 C12.0446682,60.0526219 8,50.4986524 8,40 C8,17.90861 25.90861,0 48,0 C70.09139,0 88,17.90861 88,40 C88,62.09139 70.09139,80 48,80 C40.6130597,80 33.6937987,77.997627 27.7553893,74.5060535 Z" id="Combined-Shape" fill="#1EB144" opacity="0.800111607"></path>
                            <path d="M27.252,26.344 C27.5826683,26.5146675 27.748,26.7866648 27.748,27.16 C27.748,27.3840011 27.6680008,27.6026656 27.508,27.816 C27.3373325,28.0400011 27.118668,28.152 26.852,28.152 C26.6706658,28.152 26.4893342,28.1040005 26.308,28.008 C25.7853307,27.7626654 25.220003,27.64 24.612,27.64 C23.8653296,27.64 23.2146694,27.7973318 22.66,28.112 C22.1053306,28.4266682 21.6786682,28.8693305 21.38,29.44 C21.0813318,30.0106695 20.932,30.6639963 20.932,31.4 C20.932,32.658673 21.2706633,33.6133301 21.948,34.264 C22.6253367,34.9146699 23.5133278,35.24 24.612,35.24 C25.2626699,35.24 25.8279976,35.1173346 26.308,34.872 C26.500001,34.7866662 26.6706659,34.744 26.82,34.744 C27.0973347,34.744 27.331999,34.8613322 27.524,35.096 C27.6840008,35.2986677 27.764,35.5173322 27.764,35.752 C27.764,35.9226675 27.7213338,36.0773326 27.636,36.216 C27.5506662,36.3546674 27.4280008,36.461333 27.268,36.536 C26.4359958,36.9520021 25.5506714,37.16 24.612,37.16 C23.5666614,37.16 22.606671,36.9386689 21.732,36.496 C20.857329,36.0533311 20.1586693,35.4000043 19.636,34.536 C19.1133307,33.6719957 18.852,32.6266728 18.852,31.4 C18.852,30.3119946 19.0999975,29.3360043 19.596,28.472 C20.0920025,27.6079957 20.777329,26.9333358 21.652,26.448 C22.526671,25.9626642 23.5133278,25.72 24.612,25.72 C25.5613381,25.72 26.4413293,25.9279979 27.252,26.344 Z M39.248,31.4 C39.248,32.4560053 39.0133357,33.4239956 38.544,34.304 C38.0746643,35.1840044 37.4266708,35.8799974 36.6,36.392 C35.7733292,36.9040026 34.8426718,37.16 33.808,37.16 C32.7733282,37.16 31.8426708,36.9040026 31.016,36.392 C30.1893292,35.8799974 29.5440023,35.1840044 29.08,34.304 C28.6159977,33.4239956 28.384,32.4560053 28.384,31.4 C28.384,30.3439947 28.6159977,29.3760044 29.08,28.496 C29.5440023,27.6159956 30.1893292,26.9200026 31.016,26.408 C31.8426708,25.8959974 32.7733282,25.64 33.808,25.64 C34.8426718,25.64 35.7733292,25.8959974 36.6,26.408 C37.4266708,26.9200026 38.0746643,27.6159956 38.544,28.496 C39.0133357,29.3760044 39.248,30.3439947 39.248,31.4 Z M37.168,31.4 C37.168,30.6853298 37.0240014,30.0373362 36.736,29.456 C36.4479986,28.8746638 36.0480026,28.413335 35.536,28.072 C35.0239974,27.730665 34.4480032,27.56 33.808,27.56 C33.1573301,27.56 32.5786692,27.7279983 32.072,28.064 C31.5653308,28.4000017 31.1706681,28.8613304 30.888,29.448 C30.6053319,30.0346696 30.464,30.6853298 30.464,31.4 C30.464,32.1146702 30.6053319,32.7653304 30.888,33.352 C31.1706681,33.9386696 31.5653308,34.3999983 32.072,34.736 C32.5786692,35.0720017 33.1573301,35.24 33.808,35.24 C34.4480032,35.24 35.0239974,35.069335 35.536,34.728 C36.0480026,34.386665 36.4479986,33.9253362 36.736,33.344 C37.0240014,32.7626638 37.168,32.1146702 37.168,31.4 Z M50.3,25.784 C50.566668,25.784 50.7986657,25.8773324 50.996,26.064 C51.1933343,26.2506676 51.292,26.4826653 51.292,26.76 L51.292,36.024 C51.292,36.3013347 51.2013342,36.5333324 51.02,36.72 C50.8386658,36.9066676 50.5986682,37 50.3,37 C50.0013318,37 49.7586676,36.9093342 49.572,36.728 C49.3853324,36.5466658 49.292,36.3120014 49.292,36.024 L49.292,29.576 L46.652,33.608 C46.5453328,33.7360006 46.4226674,33.8399996 46.284,33.92 C46.1453326,34.0000004 46.0013341,34.0346667 45.852,34.024 C45.7133326,34.0346667 45.5746674,34.0000004 45.436,33.92 C45.2973326,33.8399996 45.1746672,33.7360006 45.068,33.608 L42.428,29.432 L42.428,36.024 C42.428,36.3120014 42.3426675,36.5466658 42.172,36.728 C42.0013325,36.9093342 41.7773347,37 41.5,37 C41.233332,37 41.0146675,36.9066676 40.844,36.72 C40.6733325,36.5333324 40.588,36.3013347 40.588,36.024 L40.588,26.76 C40.588,26.493332 40.6866657,26.264001 40.884,26.072 C41.0813343,25.879999 41.3186653,25.784 41.596,25.784 C41.7560008,25.784 41.9159992,25.8239996 42.076,25.904 C42.2360008,25.9840004 42.3586662,26.0879994 42.444,26.216 L45.932,31.576 L49.516,26.216 C49.6013338,26.0879994 49.7159993,25.9840004 49.86,25.904 C50.0040007,25.8239996 50.1506659,25.784 50.3,25.784 Z M55.192,36.024 C55.192,36.3013347 55.0906677,36.5333324 54.888,36.72 C54.6853323,36.9066676 54.450668,37 54.184,37 C53.8959986,37 53.6586676,36.9066676 53.472,36.72 C53.2853324,36.5333324 53.192,36.3013347 53.192,36.024 L53.192,26.776 C53.192,26.4986653 53.287999,26.2666676 53.48,26.08 C53.672001,25.8933324 53.9173318,25.8 54.216,25.8 C54.482668,25.8 54.711999,25.8933324 54.904,26.08 C55.096001,26.2666676 55.192,26.4986653 55.192,26.776 L55.192,36.024 Z M65.588,25.8 C65.8440013,25.8 66.0519992,25.8853325 66.212,26.056 C66.3720008,26.2266675 66.452,26.4399987 66.452,26.696 L66.452,36.024 C66.452,36.3013347 66.3586676,36.5333324 66.172,36.72 C65.9853324,36.9066676 65.7533347,37 65.476,37 C65.3266659,37 65.1800007,36.9760002 65.036,36.928 C64.8919993,36.8799998 64.7880003,36.8133338 64.724,36.728 L58.852,29.272 L58.852,36.104 C58.852,36.3600013 58.7693342,36.5733325 58.604,36.744 C58.4386658,36.9146675 58.222668,37 57.956,37 C57.6999987,37 57.4920008,36.9146675 57.332,36.744 C57.1719992,36.5733325 57.092,36.3600013 57.092,36.104 L57.092,26.776 C57.092,26.4986653 57.1853324,26.2666676 57.372,26.08 C57.5586676,25.8933324 57.7906653,25.8 58.068,25.8 C58.2280008,25.8 58.3853326,25.8319997 58.54,25.896 C58.6946674,25.9600003 58.809333,26.0453328 58.884,26.152 L64.708,33.576 L64.708,26.696 C64.708,26.4399987 64.7906658,26.2266675 64.956,26.056 C65.1213342,25.8853325 65.3319987,25.8 65.588,25.8 Z M76.608,30.952 C76.8853347,30.952 77.1146658,31.0453324 77.296,31.232 C77.4773342,31.4186676 77.568,31.6506653 77.568,31.928 L77.568,35.32 C77.568,35.6933352 77.4026683,35.9813323 77.072,36.184 C76.0266614,36.8346699 74.8800062,37.16 73.632,37.16 C72.5759947,37.16 71.6000045,36.9013359 70.704,36.384 C69.8079955,35.8666641 69.0986693,35.1680044 68.576,34.288 C68.0533307,33.4079956 67.792,32.4453386 67.792,31.4 C67.792,30.3546614 68.0533307,29.3920044 68.576,28.512 C69.0986693,27.6319956 69.8079955,26.9333359 70.704,26.416 C71.6000045,25.8986641 72.5759947,25.64 73.632,25.64 C74.6880053,25.64 75.6053294,25.8533312 76.384,26.28 C76.5440008,26.3653338 76.6639996,26.4773326 76.744,26.616 C76.8240004,26.7546674 76.864,26.9039992 76.864,27.064 C76.864,27.330668 76.7760009,27.5626657 76.6,27.76 C76.4239991,27.9573343 76.2080013,28.056 75.952,28.056 C75.7919992,28.056 75.616001,28.0133338 75.424,27.928 C74.8479971,27.6826654 74.2506698,27.56 73.632,27.56 C72.9493299,27.56 72.3200029,27.7333316 71.744,28.08 C71.1679971,28.4266684 70.7120017,28.8933304 70.376,29.48 C70.0399983,30.0666696 69.872,30.7066632 69.872,31.4 C69.872,32.0933368 70.0399983,32.7333304 70.376,33.32 C70.7120017,33.9066696 71.1679971,34.3733316 71.744,34.72 C72.3200029,35.0666684 72.9493299,35.24 73.632,35.24 C73.9306682,35.24 74.250665,35.2133336 74.592,35.16 C74.933335,35.1066664 75.2319987,35.0373338 75.488,34.952 L75.488,32.872 L73.984,32.872 C73.7066653,32.872 73.4746676,32.7813342 73.288,32.6 C73.1013324,32.4186658 73.008,32.1893347 73.008,31.912 C73.008,31.6346653 73.1013324,31.4053342 73.288,31.224 C73.4746676,31.0426658 73.7066653,30.952 73.984,30.952 L76.608,30.952 Z M24.375,57.21 C23.366995,57.21 22.4710039,57.0840013 21.687,56.832 C20.9029961,56.5799987 20.1680034,56.153003 19.482,55.551 C19.1039981,55.2149983 18.915,54.844002 18.915,54.438 C18.915,54.1159984 19.0339988,53.8325012 19.272,53.5875 C19.5100012,53.3424988 19.7969983,53.22 20.133,53.22 C20.3990013,53.22 20.636999,53.3039992 20.847,53.472 C21.4070028,53.9340023 21.9529973,54.269999 22.485,54.48 C23.0170027,54.6900011 23.6469964,54.795 24.375,54.795 C25.1590039,54.795 25.8344972,54.6200018 26.4015,54.27 C26.9685028,53.9199983 27.252,53.4860026 27.252,52.968 C27.252,52.3379969 26.9720028,51.8445018 26.412,51.4875 C25.8519972,51.1304982 24.9630061,50.8610009 23.745,50.679 C20.6789847,50.2309978 19.146,48.803012 19.146,46.395 C19.146,45.5129956 19.3769977,44.7465033 19.839,44.0955 C20.3010023,43.4444967 20.930996,42.9475017 21.729,42.6045 C22.527004,42.2614983 23.4159951,42.09 24.396,42.09 C25.2780044,42.09 26.1074961,42.2229987 26.8845,42.489 C27.6615039,42.7550013 28.3089974,43.1049978 28.827,43.539 C29.233002,43.8610016 29.436,44.2319979 29.436,44.652 C29.436,44.9740016 29.3170012,45.2574988 29.079,45.5025 C28.8409988,45.7475012 28.5610016,45.87 28.239,45.87 C28.028999,45.87 27.8400008,45.8070006 27.672,45.681 C27.3079982,45.3869985 26.8005033,45.1175012 26.1495,44.8725 C25.4984967,44.6274988 24.9140026,44.505 24.396,44.505 C23.5139956,44.505 22.8315024,44.6694984 22.3485,44.9985 C21.8654976,45.3275016 21.624,45.7579973 21.624,46.29 C21.624,46.892003 21.8724975,47.3469985 22.3695,47.655 C22.8665025,47.9630015 23.6469947,48.214999 24.711,48.411 C25.915006,48.6210011 26.8774964,48.8904984 27.5985,49.2195 C28.3195036,49.5485016 28.8619982,49.9964972 29.226,50.5635 C29.5900018,51.1305028 29.772,51.8829953 29.772,52.821 C29.772,53.7030044 29.5235025,54.4764967 29.0265,55.1415 C28.5294975,55.8065033 27.8680041,56.3174982 27.042,56.6745 C26.2159959,57.0315018 25.3270048,57.21 24.375,57.21 Z M45.711,49.65 C45.711,51.0360069 45.4030031,52.3064942 44.787,53.4615 C44.1709969,54.6165058 43.3205054,55.5299966 42.2355,56.202 C41.1504946,56.8740034 39.9290068,57.21 38.571,57.21 C37.2129932,57.21 35.9915054,56.8740034 34.9065,56.202 C33.8214946,55.5299966 32.974503,54.6165058 32.3655,53.4615 C31.756497,52.3064942 31.452,51.0360069 31.452,49.65 C31.452,48.2639931 31.756497,46.9935058 32.3655,45.8385 C32.974503,44.6834942 33.8214946,43.7700034 34.9065,43.098 C35.9915054,42.4259966 37.2129932,42.09 38.571,42.09 C39.9290068,42.09 41.1504946,42.4259966 42.2355,43.098 C43.3205054,43.7700034 44.1709969,44.6834942 44.787,45.8385 C45.4030031,46.9935058 45.711,48.2639931 45.711,49.65 Z M42.981,49.65 C42.981,48.7119953 42.7920019,47.8615038 42.414,47.0985 C42.0359981,46.3354962 41.5110034,45.7300022 40.839,45.282 C40.1669966,44.8339978 39.4110042,44.61 38.571,44.61 C37.7169957,44.61 36.9575033,44.8304978 36.2925,45.2715 C35.6274967,45.7125022 35.1095019,46.3179962 34.7385,47.088 C34.3674981,47.8580039 34.182,48.7119953 34.182,49.65 C34.182,50.5880047 34.3674981,51.4419962 34.7385,52.212 C35.1095019,52.9820039 35.6274967,53.5874978 36.2925,54.0285 C36.9575033,54.4695022 37.7169957,54.69 38.571,54.69 C39.4110042,54.69 40.1669966,54.4660022 40.839,54.018 C41.5110034,53.5699978 42.0359981,52.9645038 42.414,52.2015 C42.7920019,51.4384962 42.981,50.5880047 42.981,49.65 Z M61.65,49.65 C61.65,51.0360069 61.3420031,52.3064942 60.726,53.4615 C60.1099969,54.6165058 59.2595054,55.5299966 58.1745,56.202 C57.0894946,56.8740034 55.8680068,57.21 54.51,57.21 C53.1519932,57.21 51.9305054,56.8740034 50.8455,56.202 C49.7604946,55.5299966 48.913503,54.6165058 48.3045,53.4615 C47.695497,52.3064942 47.391,51.0360069 47.391,49.65 C47.391,48.2639931 47.695497,46.9935058 48.3045,45.8385 C48.913503,44.6834942 49.7604946,43.7700034 50.8455,43.098 C51.9305054,42.4259966 53.1519932,42.09 54.51,42.09 C55.8680068,42.09 57.0894946,42.4259966 58.1745,43.098 C59.2595054,43.7700034 60.1099969,44.6834942 60.726,45.8385 C61.3420031,46.9935058 61.65,48.2639931 61.65,49.65 Z M58.92,49.65 C58.92,48.7119953 58.7310019,47.8615038 58.353,47.0985 C57.9749981,46.3354962 57.4500034,45.7300022 56.778,45.282 C56.1059966,44.8339978 55.3500042,44.61 54.51,44.61 C53.6559957,44.61 52.8965033,44.8304978 52.2315,45.2715 C51.5664967,45.7125022 51.0485019,46.3179962 50.6775,47.088 C50.3064981,47.8580039 50.121,48.7119953 50.121,49.65 C50.121,50.5880047 50.3064981,51.4419962 50.6775,52.212 C51.0485019,52.9820039 51.5664967,53.5874978 52.2315,54.0285 C52.8965033,54.4695022 53.6559957,54.69 54.51,54.69 C55.3500042,54.69 56.1059966,54.4660022 56.778,54.018 C57.4500034,53.5699978 57.9749981,52.9645038 58.353,52.2015 C58.7310019,51.4384962 58.92,50.5880047 58.92,49.65 Z M75.216,42.3 C75.5520017,42.3 75.824999,42.4119989 76.035,42.636 C76.2450011,42.8600011 76.35,43.1399983 76.35,43.476 L76.35,55.719 C76.35,56.0830018 76.2275012,56.3874988 75.9825,56.6325 C75.7374988,56.8775012 75.4330018,57 75.069,57 C74.872999,57 74.6805009,56.9685003 74.4915,56.9055 C74.3024991,56.8424997 74.1660004,56.7550006 74.082,56.643 L66.375,46.857 L66.375,55.824 C66.375,56.1600017 66.2665011,56.4399989 66.0495,56.664 C65.8324989,56.8880011 65.5490018,57 65.199,57 C64.8629983,57 64.5900011,56.8880011 64.38,56.664 C64.169999,56.4399989 64.065,56.1600017 64.065,55.824 L64.065,43.581 C64.065,43.2169982 64.1874988,42.9125012 64.4325,42.6675 C64.6775012,42.4224988 64.9819982,42.3 65.346,42.3 C65.5560011,42.3 65.762499,42.3419996 65.9655,42.426 C66.168501,42.5100004 66.3189995,42.6219993 66.417,42.762 L74.061,52.506 L74.061,43.476 C74.061,43.1399983 74.1694989,42.8600011 74.3865,42.636 C74.6035011,42.4119989 74.8799983,42.3 75.216,42.3 Z" id="Coming-Soon" fill="#FFFFFF"></path>
                        </g>
                    </g>
                </g>
            </g>
        </g>
    </g>
</svg>