<?xml version="1.0" encoding="UTF-8"?>
<svg width="200px" height="288px" viewBox="0 0 200 288" version="1.1" xmlns="http://www.w3.org/2000/svg" xmlns:xlink="http://www.w3.org/1999/xlink">
    <!-- Generator: Sketch 50 (54983) - http://www.bohemiancoding.com/sketch -->
    <title>fs-bg</title>
    <desc>Created with Sketch.</desc>
    <defs>
        <circle id="path-1" cx="48" cy="48" r="48"></circle>
    </defs>
    <g id="fs-bg" stroke="none" stroke-width="1" fill="none" fill-rule="evenodd">
        <g id="logo-2" fill="#9222D8">
            <g id="logo-icon" transform="translate(0.000000, 0.228828)">
                <path d="M38.6977683,33.1181605 L29.0422022,36.3810816 L32.7815783,38.6845143 C33.7969838,39.3100215 34.1121422,40.6383988 33.4860779,41.6521356 C33.0773641,42.3125504 32.3700295,42.6767221 31.6456849,42.6767221 C31.2587062,42.6767221 30.8670026,42.5724709 30.5135715,42.3550057 L26.1599436,39.6732496 L26.1599436,43.4272364 C26.1599436,44.61787 25.1927332,45.5834909 24.0001397,45.5834909 C22.8070737,45.5834909 21.8398633,44.61787 21.8398633,43.4272364 L21.8398633,39.6732496 L17.4862354,42.3550057 C17.1328043,42.5724709 16.7411006,42.6767221 16.3545945,42.6767221 C15.6302499,42.6767221 14.9229153,42.3125504 14.5142015,41.6521356 C13.8876647,40.6383988 14.2028231,39.3100215 15.2182286,38.6845143 L18.9576047,36.3810816 L9.30251107,33.1181605 C8.17228771,32.7360633 7.56654091,31.5124089 7.94926705,30.384043 C8.33152068,29.2561487 9.55766182,28.6509257 10.6878852,29.0334946 L18.2129425,31.5760918 L10.4076918,20.9509602 C9.70271975,19.9905283 9.91014787,18.6413951 10.8721607,17.9366381 C11.8341736,17.2323528 13.1860001,17.4403835 13.8914447,18.4008154 L21.8398633,29.2217128 L21.8398633,11.0810602 C21.8398633,9.89042654 22.8070737,8.92480568 24.0001397,8.92480568 C25.1927332,8.92480568 26.1599436,9.89042654 26.1599436,11.0810602 L26.1599436,29.2217128 L34.1083622,18.4008154 C34.8138068,17.4403835 36.1656333,17.2323528 37.1276462,17.9366381 C38.089659,18.6413951 38.2975596,19.9905283 37.5921151,20.9509602 L29.7873369,31.5760918 L37.3123942,29.0334946 C38.4426176,28.6509257 39.6682862,29.2561487 40.0510124,30.384043 C40.4337385,31.5124089 39.8275192,32.7360633 38.6977683,33.1181605 M45.8400995,12.1754619 L26.1599436,0.831893343 C24.8237096,0.0615665867 23.1765698,0.0615665867 21.8398633,0.831893343 L2.16017986,12.1754619 C0.823473393,12.9457887 -9.65517241e-05,14.3694544 -9.65517241e-05,15.910108 L-9.65517241e-05,38.5977169 C-9.65517241e-05,40.1383704 0.823473393,41.5620361 2.16017986,42.3328346 L21.8398633,53.6764032 C23.1765698,54.44673 24.8237096,54.44673 26.1599436,53.6764032 L45.8400995,42.3328346 C47.1763335,41.5620361 47.9999034,40.1383704 47.9999034,38.5977169 L47.9999034,15.910108 C47.9999034,14.3694544 47.1763335,12.9457887 45.8400995,12.1754619" id="Fill-1"></path>
            </g>
            <g id="flowersouring" transform="translate(57.000000, 9.000000)">
                <path d="M11.4779724,0.114655172 C12.1953517,0.114655172 12.7765931,0.695896552 12.7765931,1.4127931 C12.7765931,2.13017241 12.1953517,2.71141379 11.4779724,2.71141379 L3.08569655,2.71141379 L3.08569655,7.12237931 L9.92397241,7.12237931 C10.6413517,7.12237931 11.2225931,7.70313793 11.2225931,8.42051724 C11.2225931,9.13741379 10.6413517,9.71913793 9.92397241,9.71913793 L3.08569655,9.71913793 L3.08569655,16.1562414 C3.08569655,16.8736207 2.50445517,17.4548621 1.78707586,17.4548621 C1.06969655,17.4548621 0.488455172,16.8736207 0.488455172,16.1562414 L0.488455172,1.4127931 C0.488455172,0.695896552 1.06969655,0.114655172 1.78707586,0.114655172 L11.4779724,0.114655172 Z M25.7405448,17.5118759 C21.9803379,17.5118759 18.9206138,14.4521517 18.9206138,10.6919448 C18.9206138,6.93173793 21.9803379,3.87201379 25.7405448,3.87201379 C29.0068897,3.87201379 31.8237862,6.19746207 32.4383379,9.40056552 C32.5194414,9.82394483 32.5604759,10.2584276 32.5604759,10.6919448 C32.5604759,14.4521517 29.5012345,17.5118759 25.7405448,17.5118759 Z M25.7405448,6.46925517 C23.4122,6.46925517 21.5178552,8.3636 21.5178552,10.6919448 C21.5178552,13.0202897 23.4122,14.9146345 25.7405448,14.9146345 C28.0688897,14.9146345 29.9637172,13.0202897 29.9637172,10.6919448 C29.9637172,10.4220828 29.9376483,10.1527034 29.8879241,9.89056552 C29.5075103,7.90787586 27.7633034,6.46925517 25.7405448,6.46925517 Z M70.9699586,3.93052414 C71.6868552,3.93052414 72.2680966,4.51176552 72.2680966,5.22914483 C72.2680966,5.94652414 71.6868552,6.52776552 70.9699586,6.52776552 L70.9694759,6.52776552 C68.9274069,6.52776552 67.2715448,8.18362759 67.2715448,10.2256966 L67.2715448,16.2510069 C67.2715448,16.9683862 66.6903034,17.5501103 65.9729241,17.5501103 C65.2555448,17.5501103 64.6743034,16.9683862 64.6743034,16.2510069 L64.6743034,5.22238621 C64.6743034,4.50452414 65.2555448,3.92328276 65.9729241,3.92328276 C66.6613379,3.92328276 67.2189241,4.46107586 67.2628552,5.13886897 C68.3032,4.37997241 69.5834759,3.93052414 70.9694759,3.93052414 L70.9699586,3.93052414 Z M15.833131,17.4736897 C15.1162345,17.4736897 14.5349931,16.8924483 14.5349931,16.1755517 L14.5349931,1.47168966 C14.5349931,0.754310345 15.1162345,0.172586207 15.833131,0.172586207 C16.5500276,0.172586207 17.131269,0.754310345 17.131269,1.47168966 L17.131269,16.1755517 C17.131269,16.8924483 16.5500276,17.4736897 15.833131,17.4736897 Z M62.8928759,9.8950069 C62.8981862,9.95535172 62.9020483,10.0152138 62.9020483,10.0760414 C62.9020483,10.1668 62.8938414,10.2551448 62.8812897,10.3420414 C62.7688069,11.158869 62.1470138,11.8120414 61.3451517,11.9689379 C61.2249448,11.9925931 61.1003931,12.0061103 60.9724621,12.0061103 L52.1008069,12.0061103 C52.6492207,13.7015586 54.2394276,14.9292138 56.1178414,14.9292138 C58.6098414,14.9292138 59.4257034,14.0129379 59.4257034,14.0129379 C59.4257034,14.0129379 59.1423241,14.270731 59.4257034,14.0134207 C59.6902552,13.7759034 59.9861862,13.6325241 60.3453586,13.6325241 C60.9956345,13.6325241 61.5295655,14.1104552 61.6270828,14.7332138 C61.6372207,14.798869 61.6473586,14.8650069 61.6473586,14.9340414 C61.6473586,15.2898345 61.5034966,15.6123172 61.2708069,15.8479034 C61.2630828,15.8546621 61.2548759,15.862869 61.2461862,15.8701103 C61.1834276,15.9246621 61.1153586,15.9729379 61.0501862,16.0255586 C59.8823931,16.9625931 58.4056345,17.5308 56.7912897,17.5308 C56.6783241,17.5308 56.5658414,17.5279034 56.4548069,17.5221103 C56.3428069,17.5279034 56.2308069,17.5308 56.1178414,17.5308 C52.3489448,17.5308 49.2935655,14.4754207 49.2935655,10.7060414 C49.2935655,6.93714483 52.3489448,3.88128276 56.1178414,3.88128276 C56.2308069,3.88128276 56.3428069,3.88466207 56.4548069,3.88997241 C59.626531,4.04397241 62.2286,6.36411034 62.8161172,9.40211034 C62.8161172,9.40211034 62.8658414,9.68162759 62.884669,9.8308 C62.8875655,9.85252414 62.8909448,9.87376552 62.8928759,9.8950069 Z M52.1027379,9.40211034 L60.1314966,9.40211034 C59.6144621,7.81238621 58.1821172,6.63686897 56.4548069,6.50024828 C56.3428069,6.49155862 56.2317724,6.48335172 56.1178414,6.48335172 C54.2413586,6.48335172 52.6526,7.7085931 52.1027379,9.40211034 Z M44.4682,17.4930483 C43.9057862,17.4930483 43.4080621,17.1300138 43.2357172,16.5951172 L40.9286138,9.41842759 L38.6215103,16.5951172 C38.4486828,17.1300138 37.9509586,17.4930483 37.3885448,17.4930483 C36.8266138,17.4930483 36.3288897,17.1300138 36.1560621,16.5951172 L32.6164759,5.58628966 C32.3977862,4.9056 32.7719241,4.17615172 33.4526138,3.95746207 C34.134269,3.73828966 34.8627517,4.11291034 35.0814414,4.79311724 L37.3885448,12.2570483 L39.6956483,4.79311724 C39.8684759,4.25822069 40.3662,3.89518621 40.9286138,3.89518621 C41.4905448,3.89518621 41.988269,4.25822069 42.1610966,4.79311724 L44.4682,12.2570483 L46.7753034,4.79311724 C46.9939931,4.1133931 47.7229586,3.73828966 48.404131,3.95746207 C49.0848207,4.17615172 49.4589586,4.9056 49.240269,5.58628966 L45.7006828,16.5951172 C45.5283379,17.1300138 45.030131,17.4930483 44.4682,17.4930483 Z" id="Combined-Shape"></path>
                <path d="M6.40992414,37.9362345 C4.48275172,37.9362345 2.87806207,37.3564414 1.64123448,36.2127862 C0.626958621,35.223131 0.0433034483,33.8834759 0.0433034483,32.5409241 C0.0433034483,31.8037517 0.699855172,31.2041655 1.50654483,31.2041655 C2.31371724,31.2041655 2.96978621,31.8037517 2.96978621,32.5409241 C2.96978621,33.5518207 3.6944069,35.2622345 6.40992414,35.2622345 C9.12544138,35.2622345 9.85006207,33.5518207 9.85006207,32.5409241 C9.85006207,30.935269 8.75323448,30.4853379 6.05944138,29.773269 L5.99378621,29.7558897 C4.77723448,29.423269 3.52013103,29.0800276 2.50344138,28.4196138 C1.11695862,27.547269 0.444958621,26.3538897 0.444958621,24.7694759 C0.444958621,23.5109241 0.987096552,22.2581655 1.93282069,21.3322345 C2.69992414,20.5974759 4.10185517,19.7188552 6.40992414,19.7188552 C8.7179931,19.7188552 10.1199241,20.5974759 10.8889586,21.3336828 C11.8515793,22.2499586 12.4038552,23.5022345 12.4038552,24.7694759 C12.4038552,25.5066483 11.734269,26.1062345 10.9116483,26.1062345 C10.1049586,26.1062345 9.44888966,25.5066483 9.44888966,24.7694759 C9.44888966,23.9473379 8.81357931,22.3928552 6.40992414,22.3928552 C4.00626897,22.3928552 3.37144138,23.9473379 3.37144138,24.7694759 C3.37144138,25.9778207 3.99323448,26.4079586 6.87433793,27.1914759 C8.1102,27.5144414 9.50971724,27.8803724 10.6297172,28.6243034 C12.0553034,29.5376828 12.7765448,30.8541655 12.7765448,32.5409241 C12.7765448,33.8834759 12.1928897,35.223131 11.174269,36.2161655 C10.3550276,37.0001655 8.86233793,37.9362345 6.40992414,37.9362345 Z M21.1892414,37.7234345 C17.3078621,37.7234345 14.1496552,34.5657103 14.1496552,30.684331 C14.1496552,26.8034345 17.3078621,23.6452276 21.1892414,23.6452276 C24.5603448,23.6452276 27.4675172,26.0455034 28.1013793,29.3519172 C28.1858621,29.788331 28.2283448,30.2372966 28.2283448,30.684331 C28.2283448,34.5657103 25.0706207,37.7234345 21.1892414,37.7234345 Z M21.1892414,26.3259862 C18.7855862,26.3259862 16.8304138,28.2811586 16.8304138,30.684331 C16.8304138,33.0879862 18.7855862,35.0431586 21.1892414,35.0431586 C23.5928966,35.0431586 25.5475862,33.0879862 25.5475862,30.684331 C25.5475862,30.4062621 25.5215172,30.1277103 25.4693793,29.8568828 C25.0768966,27.8109517 23.2766897,26.3259862 21.1892414,26.3259862 Z M35.4952138,37.7236276 C32.2452828,37.7236276 29.6012138,35.0800414 29.6012138,31.8301103 L29.6012138,24.9329379 C29.6012138,24.192869 30.2012828,23.5928 30.9413517,23.5928 C31.6819034,23.5928 32.2819724,24.192869 32.2819724,24.9329379 L32.2819724,31.8301103 C32.2819724,33.6018345 33.7234897,35.042869 35.4952138,35.042869 C37.2669379,35.042869 38.7079724,33.6018345 38.7079724,31.8301103 L38.7079724,24.9329379 C38.7079724,24.192869 39.3075586,23.5928 40.0481103,23.5928 C40.7886621,23.5928 41.3882483,24.192869 41.3882483,24.9329379 L41.3882483,31.8301103 C41.3882483,35.0800414 38.7446621,37.7236276 35.4952138,37.7236276 Z M79.6228276,37.7236276 C78.8827586,37.7236276 78.2826897,37.1235586 78.2826897,36.3834897 L78.2826897,29.4863172 C78.2826897,27.7150759 76.8411724,26.2730759 75.0694483,26.2730759 C73.2982069,26.2730759 71.8566897,27.7150759 71.8566897,29.4863172 L71.8566897,36.3834897 C71.8566897,37.1235586 71.2566207,37.7236276 70.5165517,37.7236276 C69.7764828,37.7236276 69.175931,37.1235586 69.175931,36.3834897 L69.175931,29.4863172 C69.175931,26.2363862 71.82,23.5928 75.0694483,23.5928 C78.3198621,23.5928 80.9629655,26.2363862 80.9629655,29.4863172 L80.9629655,36.3834897 C80.9629655,37.1235586 80.3628966,37.7236276 79.6228276,37.7236276 Z M94.6778,23.5794276 C95.3879379,23.5794276 95.9633862,24.1548759 95.9633862,24.8650138 L95.9633862,35.7854966 L95.9633862,36.5680483 C95.9633862,40.2910828 92.9345586,43.3203931 89.2110414,43.3203931 C86.6166966,43.3203931 84.2212483,41.8054966 83.1080069,39.4602552 C82.803869,38.8191517 83.0766276,38.0520483 83.7182138,37.7479103 C84.3593172,37.4432897 85.1264207,37.716531 85.4310414,38.3576345 C86.1204207,39.8102552 87.6044207,40.7487379 89.2110414,40.7487379 C91.5162138,40.7487379 93.3922138,38.8737034 93.3922138,36.5680483 C93.3922138,36.3006 93.3666276,36.0341172 93.3173862,35.7743931 C93.3111103,35.742531 93.3125586,35.7121172 93.3086966,35.6802552 C92.1713172,36.5516345 90.7510414,37.0710828 89.2110414,37.0710828 C85.4880069,37.0710828 82.4586966,34.0417724 82.4586966,30.3187379 C82.4586966,26.5957034 85.4880069,23.5668759 89.2110414,23.5668759 C90.7751793,23.5668759 92.2326276,24.1090138 93.3922138,25.0238414 L93.3922138,24.8650138 C93.3922138,24.1548759 93.9681448,23.5794276 94.6778,23.5794276 Z M89.2110414,34.4999103 C91.5162138,34.4999103 93.3922138,32.6239103 93.3922138,30.3187379 C93.3922138,30.0517724 93.3666276,29.7843241 93.3173862,29.5246 C92.9408345,27.5621862 91.2135241,26.1380483 89.2110414,26.1380483 C86.905869,26.1380483 85.0303517,28.0130828 85.0303517,30.3187379 C85.0303517,32.6239103 86.905869,34.4999103 89.2110414,34.4999103 Z M66.0212,37.7236276 C65.281131,37.7236276 64.6810621,37.1235586 64.6810621,36.3834897 L64.6810621,24.9995586 C64.6810621,24.2590069 65.281131,23.6589379 66.0212,23.6589379 C66.7617517,23.6589379 67.3613379,24.2590069 67.3613379,24.9995586 L67.3613379,36.3834897 C67.3613379,37.1235586 66.7617517,37.7236276 66.0212,37.7236276 Z M67.5651586,21.3418897 C67.5651586,22.1944414 66.8738483,22.885269 66.0212966,22.885269 C65.1687448,22.885269 64.4774345,22.1944414 64.4774345,21.3418897 C64.4774345,20.4888552 65.1687448,19.7980276 66.0212966,19.7980276 C66.8738483,19.7980276 67.5651586,20.4888552 67.5651586,21.3418897 Z M49.7007241,23.6666138 C50.4407931,23.6666138 51.0408621,24.2666828 51.0408621,25.0067517 C51.0408621,25.7473034 50.4407931,26.3473724 49.7007241,26.3473724 L49.7002414,26.3473724 C47.5925172,26.3473724 45.8835517,28.0563379 45.8835517,30.1640621 L45.8835517,36.3834414 C45.8835517,37.1235103 45.2834828,37.7235793 44.542931,37.7235793 C43.8028621,37.7235793 43.2027931,37.1235103 43.2027931,36.3834414 L43.2027931,24.9995103 C43.2027931,24.2594414 43.8028621,23.6588897 44.542931,23.6588897 C45.2540345,23.6588897 45.8294828,24.2140621 45.8743793,24.9135793 C46.9480345,24.1300621 48.2698276,23.6666138 49.7002414,23.6666138 L49.7007241,23.6666138 Z M57.4786414,37.7236276 C53.609331,37.7236276 50.4612621,34.5755586 50.4612621,30.7062483 C50.4612621,26.8369379 53.609331,23.6893517 57.4786414,23.6893517 C59.3556069,23.6893517 61.1186414,24.4202483 62.4452621,25.7483172 C62.9661586,26.2701793 62.9656759,27.1159724 62.4438138,27.6378345 C61.921469,28.1592138 61.0751931,28.1592138 60.5538138,27.6363862 C59.7326414,26.8142483 58.6406414,26.3614207 57.4786414,26.3614207 C55.0827103,26.3614207 53.1338138,28.3103172 53.1338138,30.7062483 C53.1338138,33.1021793 55.0827103,35.0515586 57.4786414,35.0515586 C58.6391931,35.0515586 59.7307103,34.5992138 60.5514,33.7785241 C61.0732621,33.2571448 61.9190552,33.2571448 62.4409172,33.7790069 C62.9622966,34.300869 62.9622966,35.1471448 62.4404345,35.6685241 C61.1147793,36.9936966 59.3531931,37.7236276 57.4786414,37.7236276 Z" id="Combined-Shape"></path>
            </g>
        </g>
        <g id="info-icon-copy" transform="translate(0.000000, 72.000000)" fill="#00AADD">
            <g id="info-icon" stroke-width="1" opacity="0.12">
                <circle id="Oval-2" cx="8" cy="8" r="8"></circle>
            </g>
            <circle id="Oval-4" cx="8" cy="3.75" r="1.25"></circle>
            <rect id="Rectangle" x="7" y="6.5" width="2" height="7" rx="1"></rect>
        </g>
        <g id="default-photo" transform="translate(0.000000, 104.000000)">
            <mask id="mask-2" fill="white">
                <use xlink:href="#path-1"></use>
            </mask>
            <use id="Mask" fill="#F0F0F0" xlink:href="#path-1"></use>
            <g id="Page-1" opacity="0.7" mask="url(#mask-2)">
                <g transform="translate(17.000000, 21.000000)">
                    <path d="M40.3331111,9 C34.7865859,15.5355634 22.2132328,15.6029924 15,15.0234501 L15,37.2980878 C15.0014062,39.975668 15.8306194,42.5858192 17.3732653,44.7634455 L17.866387,44.6097828 C21.0540541,48.2916716 23.6486486,49.1458383 28.1997551,50 L34.2929954,50 C38.8515585,49.149939 43.0623115,48.3881905 45.3196401,44.3860324 C46.4368201,42.4238001 47.0168162,40.1951677 46.9996288,37.9313207 L46.9996288,17.0851679 C42.9996557,15.7376926 40.3331111,9 40.3331111,9 Z" id="Fill-1" fill="#FFFFFF"></path>
                    <path d="M60,78 L60,64.6666536 C60,59.321315 55.9734208,54.801293 50.5813225,54.0933208 L42.6829102,53.066597 C40.944442,52.8334709 39.6468331,51.3772138 39.6428571,49.6532991 L39.6428571,46 L23.3571429,46 L23.3571429,49.6532991 C23.3530078,51.37737 22.0557171,52.8334709 20.3170898,53.066597 L12.4185184,54.0933208 C7.02657924,54.801293 3,59.321315 3,64.6666536 L3,78 L60,78 Z" id="Fill-5" fill="#FFFFFF"></path>
                    <path d="M47,18 L47,12.3333887 C47,8.42189453 43.9613868,5.25 40.2142516,5.25 C37.6069542,2.53 34.0732504,1.00282227 30.3886178,1 L26.6429139,1 C18.5948672,1 11.7143312,8.08338867 9,15.1666113 C9,15.1666113 32.0715763,19.4166113 40.2144107,9.5 C40.2142516,9.5 42.9284237,16.5833887 47,18" id="Fill-9" fill="#C8C8C8" opacity="0.600000024"></path>
                    <path d="M42.3601264,35.2817337 C41.6948109,36.3911753 40.2254291,36.766532 39.078705,36.1228473 C38.7640161,35.9461288 38.4960461,35.7022905 38.2933889,35.4108335 C37.060102,33.6448578 35.0039987,32.5818257 32.799926,32.5729066 L29.2000656,32.5729066 C26.9959929,32.5819768 24.9400459,33.6448578 23.706759,35.4108335 C22.9667556,36.475075 21.4761237,36.757613 20.3761186,36.0416687 C20.074711,35.8456003 19.8228348,35.5849821 19.6401777,35.2818849 L15,27 L15,39.0227542 C15.0014063,41.586004 15.8306288,44.0847039 17.3732922,46.1693474 L17.8665757,46.8400917 C20.249243,50.0715158 24.0972295,51.9936508 28.1999048,52 L34.2932142,52 C41.3185591,51.9934997 47.0079604,46.4775844 46.9999916,39.6806489 L47,27 L42.3601264,35.2817337 Z" id="Fill-11" fill="#E6E6E6" opacity="0.600000024"></path>
                    <path d="M42.6827994,53.4199992 C42.2362159,53.364054 41.8033097,53.2211558 41.4069827,53 L31.4997614,67.000082 L21.5928583,53.0001641 C21.2006663,53.2369058 20.7661697,53.3937492 20.3172006,53.4623272 L12.4184921,54.5402157 C7.04151774,55.282269 3.02051613,60.0044707 3,65.6001395 L3,81 L60,81 L60,65.5999754 C59.999841,59.9874082 55.9731139,55.2414175 50.5811898,54.4980518 L42.6827994,53.4199992 Z" id="Fill-17" fill="#F0F0F0"></path>
                    <path d="M30.0952381,68.2989067 C30.0431696,68.2404902 29.9952078,68.1767942 29.9520528,68.1082104 L27.7556545,64.6298002 L21.7007593,68.5073021 C21.4671239,68.6555041 21.1957789,68.7320463 20.92427,68.7320463 C20.7396571,68.7320463 20.5535685,68.6969251 20.3771533,68.6257377 C19.9434932,68.4483992 19.6314875,68.0734054 19.5475427,67.6284842 L17.1834684,55.1387518 L11.8040692,55.839924 C7.01631314,56.4691241 3.40677748,60.5310792 3.40677748,65.2875003 L3.40677748,80 L0.640633684,80 L0.640633684,65.2875003 C0.640633684,59.173424 5.28188199,53.9513661 11.4387722,53.139773 L19.4890805,52.0899359 C20.5650372,51.9455215 21.383795,51.0262159 21.3865501,49.9521236 L21.5317642,49.9524084 C19.9200272,49.020011 18.4988607,47.7887853 17.3718222,46.3087417 L16.8640267,45.6407763 C15.1066309,43.3406076 14.1746032,40.626679 14.1746032,37.794662 L14.1746032,27.2385336 C11.545543,26.9616603 9.49206349,24.7647643 9.49206349,22.1035506 C9.49206349,19.4423368 11.545543,17.2453087 14.1746032,16.9684181 L14.1746032,16 L16.9119834,16 L16.9119834,26.8938093 L21.3873959,34.419149 C21.5753387,34.7321693 21.9335643,34.9363941 22.317875,34.9443206 L22.3193332,34.9443206 C22.6566582,34.9443206 22.992687,34.7705586 23.1945635,34.4788311 C24.586092,32.5044824 26.7874738,31.2497857 29.2110756,31.0073332 C29.1621123,30.8317805 29.1467766,30.6453465 29.1681241,30.4592115 L30.4203226,19.7559846 L32.9047619,20.0877412 L31.663863,30.7092832 L31.663863,30.9642691 L33.8318045,30.9642691 C36.5819268,30.9762366 39.1381115,32.2852023 40.6742202,34.467019 C40.8885722,34.7786405 41.1926832,34.9365495 41.6100459,34.944476 C42.0402082,34.944476 42.4050765,34.7414946 42.6029026,34.4140201 L47.023968,26.8945671 L47.023968,17.2818445 L47.820028,17.2818445 L47.820028,16.9389961 L49.1311084,16.9389961 C52.0233828,16.9389961 54.3755836,19.2552838 54.3755836,22.1033993 C54.3755836,24.7414581 52.357551,26.9233737 49.7615086,27.230869 L49.7615086,27.6366211 L49.7619048,27.6368353 L49.7615086,38.3971229 C49.7804346,40.7676037 49.12091,43.1150979 47.8547894,45.1780383 C46.4101816,47.5489141 44.2499784,49.4128253 41.712368,50.584302 C41.9606357,51.3688605 42.6543301,51.9750771 43.5155182,52.0899359 L51.5583414,53.139773 C57.717412,53.94993 62.3593663,59.173424 62.3593663,65.2875003 L62.3593663,80 L59.5930604,80 L59.5930604,65.2875003 C59.5930604,60.5310792 55.9829397,56.4691241 51.1931638,55.839924 L46.5860975,55.2387532 L44.2833876,67.6189086 C44.2001091,68.0673373 43.8926443,68.4448362 43.4618038,68.6236681 C43.2903767,68.6966608 43.1061251,68.7320463 42.9217111,68.7320463 C42.6532069,68.7320463 42.3842157,68.654928 42.1530489,68.504341 L34.8614508,63.7530494 L32.9033605,66.8540541 L32.9047619,66.8540541 L32.9047619,80 L30.0952381,80 L30.0952381,68.2989067 Z M43.8377398,54.8801232 L43.1477472,54.7900869 C42.3662065,54.6854188 41.6462322,54.4026651 41.0279016,53.9873135 L36.3172114,61.4475784 L41.9338949,65.1085966 L43.8377398,54.8801232 Z M19.959026,54.7755348 L21.9204586,65.1369254 L26.3034672,62.3299882 L21.2814093,54.3766138 C20.8691867,54.5669335 20.4254427,54.7032292 19.959026,54.7755347 Z M30.045356,63.1634954 L31.0310513,64.7246068 L39.1741012,51.8301158 L39.2657203,51.9011242 C39.2079851,51.7720819 39.1557851,51.6402721 39.1093996,51.5060119 C37.9011962,51.812838 36.6414699,51.9741279 35.3589462,51.9741279 L35.3465961,51.9741279 L29.093141,51.9741279 C27.3357922,51.9711723 25.6164343,51.6663872 24.0118446,51.0968503 C23.8796946,51.6285646 23.6581641,52.1290039 23.363085,52.5803369 L29.3162107,62.0086992 L30.0952381,63.1315513 L30.045356,63.1634954 Z M16.9119834,32.2465986 L16.9119834,37.7948122 C16.9119834,40.0883704 17.6661383,42.2857752 19.0924887,44.1511504 L19.601407,44.8191158 C21.785922,47.6870401 25.3347165,49.4036781 29.096028,49.4087862 L35.3480396,49.4087862 L35.3575026,49.4087862 C39.5347061,49.4087862 43.4123005,47.2985204 45.4789288,43.9022033 C46.5068698,42.230487 47.0404882,40.3317586 47.023968,38.4061372 L47.023968,32.2939564 L45.0056546,35.7270268 C44.3102661,36.8835233 43.025936,37.5956678 41.6461763,37.5956678 C41.6419638,37.5955124 41.5825026,37.5969112 41.5509087,37.5969112 C40.2856969,37.5969112 39.0927459,36.9815947 38.3749987,35.9390226 C37.3604314,34.4973264 35.6569563,33.6246308 33.8262958,33.618103 L30.1004909,33.618103 C28.2547626,33.5756728 26.5292529,34.4841155 25.4950812,35.952389 C24.7885133,36.9775538 23.5898916,37.5956678 22.2942201,37.5956678 L22.2846609,37.5956678 C20.9131642,37.5678472 19.6617241,36.8555473 18.9886943,35.7388389 L16.9119834,32.2465986 Z M49.7615086,24.6102787 C50.9039661,24.3316866 51.7532692,23.3136314 51.7532692,22.1033993 C51.7532692,20.8931494 50.9040523,19.8750822 49.7615086,19.5965076 L49.7615086,24.6102787 Z M14.1746032,19.5809285 C12.9976508,19.8348385 12.1142243,20.8692454 12.1142243,22.1035506 C12.1142243,23.3377408 12.9975584,24.3722547 14.1746032,24.6261756 L14.1746032,19.5809285 Z M23.5396825,18.8169884 C25.0913654,18.8169884 26.3492063,20.2883685 26.3492063,22.1034749 C26.3492063,23.9185813 25.0913654,25.3899614 23.5396825,25.3899614 C21.9879997,25.3899614 20.7301587,23.9185813 20.7301587,22.1034749 C20.7301587,20.2883685 21.9879997,18.8169884 23.5396825,18.8169884 Z M40.3969077,18.8169884 C41.948636,18.8169884 43.2063492,20.2883685 43.2063492,22.1034749 C43.2063492,23.9185813 41.948636,25.3899614 40.3969077,25.3899614 C38.8451794,25.3899614 37.5873016,23.9185813 37.5873016,22.1034749 C37.5873016,20.2883685 38.8451794,18.8169884 40.3969077,18.8169884 Z M31.968254,37.5969112 C30.3816001,37.5969112 28.7947808,37.3897278 27.2857143,36.9763108 L28.1806989,34.7799228 C30.6229647,35.4490966 33.3135432,35.4490966 35.7571325,34.7799228 L36.6507937,36.9763108 C35.1402383,37.3909489 33.5549078,37.5969112 31.968254,37.5969112 Z" id="Combined-Shape" fill="#BBBBBB"></path>
                    <path d="M40.9998347,8.14283442 C41.0718674,8.14283442 41.1439002,8.14824177 41.2171829,8.16048783 C41.6771924,8.23778114 42.0639192,8.55411118 42.237204,8.993697 C42.7704963,10.342672 44.34131,13.5021554 46.3332261,15.2690869 L46.3332261,12.2142516 C46.3332261,9.22032863 43.9409892,6.78574837 40.9998347,6.78574837 C40.6463899,6.78574837 40.3065391,6.64324876 40.057159,6.38942135 C37.7289858,4.02116066 34.6356407,2.71560347 31.3447914,2.71433115 L27.6662779,2.71433115 C20.9914525,2.71433115 15.1219562,8.08446684 12.2753349,13.8442499 C17.5860696,14.5390945 33.8010922,15.9628182 39.9877825,8.61661379 C40.2437253,8.31252982 40.614358,8.14283442 40.9998347,8.14283442 M47.6666912,19 C47.525282,19 47.3826228,18.9769392 47.2452762,18.9308177 C44.0945861,17.8614345 41.766413,14.113027 40.5996702,11.823491 C31.3354162,19.9621904 11.0085899,16.4283275 10.1018524,16.2654708 C9.70700053,16.1948572 9.36324342,15.9465961 9.1685519,15.5882796 C8.97386038,15.2313944 8.9457348,14.8038956 9.09511288,14.4237907 C11.9111086,7.25666502 19.1954779,0 27.6662779,0 L31.3463539,0 C35.1703392,0.00143135761 38.7744762,1.45076046 41.55844,4.0917743 C45.709307,4.38361221 49,7.9162028 49,12.2142516 L49,17.6427549 C49,18.0783647 48.7948395,18.4882101 48.4467073,18.7434689 C48.2160776,18.9131643 47.9426344,19 47.6666912,19" id="Fill-46" fill="#BBBBBB"></path>
                </g>
            </g>
        </g>
        <g id="Group-4" transform="translate(0.000000, 208.000000)" fill="#D8D8D8">
            <path d="M2,8 C0.8954305,8 0,7.1045695 0,6 C0,4.8954305 0.8954305,4 2,4 C3.1045695,4 4,4.8954305 4,6 C4,7.1045695 3.1045695,8 2,8 Z M11,8 C9.8954305,8 9,7.1045695 9,6 C9,4.8954305 9.8954305,4 11,4 C12.1045695,4 13,4.8954305 13,6 C13,7.1045695 12.1045695,8 11,8 Z M20,8 C18.8954305,8 18,7.1045695 18,6 C18,4.8954305 18.8954305,4 20,4 C21.1045695,4 22,4.8954305 22,6 C22,7.1045695 21.1045695,8 20,8 Z M29,8 C27.8954305,8 27,7.1045695 27,6 C27,4.8954305 27.8954305,4 29,4 C30.1045695,4 31,4.8954305 31,6 C31,7.1045695 30.1045695,8 29,8 Z M38,8 C36.8954305,8 36,7.1045695 36,6 C36,4.8954305 36.8954305,4 38,4 C39.1045695,4 40,4.8954305 40,6 C40,7.1045695 39.1045695,8 38,8 Z M47,8 C45.8954305,8 45,7.1045695 45,6 C45,4.8954305 45.8954305,4 47,4 C48.1045695,4 49,4.8954305 49,6 C49,7.1045695 48.1045695,8 47,8 Z M56,8 C54.8954305,8 54,7.1045695 54,6 C54,4.8954305 54.8954305,4 56,4 C57.1045695,4 58,4.8954305 58,6 C58,7.1045695 57.1045695,8 56,8 Z M65,8 C63.8954305,8 63,7.1045695 63,6 C63,4.8954305 63.8954305,4 65,4 C66.1045695,4 67,4.8954305 67,6 C67,7.1045695 66.1045695,8 65,8 Z M74,8 C72.8954305,8 72,7.1045695 72,6 C72,4.8954305 72.8954305,4 74,4 C75.1045695,4 76,4.8954305 76,6 C76,7.1045695 75.1045695,8 74,8 Z M83,8 C81.8954305,8 81,7.1045695 81,6 C81,4.8954305 81.8954305,4 83,4 C84.1045695,4 85,4.8954305 85,6 C85,7.1045695 84.1045695,8 83,8 Z M93.8284271,6 L90.2928932,2.46446609 C89.9023689,2.0739418 89.9023689,1.44077682 90.2928932,1.05025253 C90.6834175,0.65972824 91.3165825,0.65972824 91.7071068,1.05025253 L95.7729708,5.11611652 C96.2611261,5.60427189 96.2611261,6.39572811 95.7729708,6.88388348 L91.7071068,10.9497475 C91.3165825,11.3402718 90.6834175,11.3402718 90.2928932,10.9497475 C89.9023689,10.5592232 89.9023689,9.9260582 90.2928932,9.53553391 L93.8284271,6 Z" id="Combined-Shape"></path>
        </g>
        <g id="Group-4" transform="translate(0.000000, 228.000000)" fill="#8F7EFF">
            <path d="M2,8 C0.8954305,8 0,7.1045695 0,6 C0,4.8954305 0.8954305,4 2,4 C3.1045695,4 4,4.8954305 4,6 C4,7.1045695 3.1045695,8 2,8 Z M11,8 C9.8954305,8 9,7.1045695 9,6 C9,4.8954305 9.8954305,4 11,4 C12.1045695,4 13,4.8954305 13,6 C13,7.1045695 12.1045695,8 11,8 Z M20,8 C18.8954305,8 18,7.1045695 18,6 C18,4.8954305 18.8954305,4 20,4 C21.1045695,4 22,4.8954305 22,6 C22,7.1045695 21.1045695,8 20,8 Z M29,8 C27.8954305,8 27,7.1045695 27,6 C27,4.8954305 27.8954305,4 29,4 C30.1045695,4 31,4.8954305 31,6 C31,7.1045695 30.1045695,8 29,8 Z M38,8 C36.8954305,8 36,7.1045695 36,6 C36,4.8954305 36.8954305,4 38,4 C39.1045695,4 40,4.8954305 40,6 C40,7.1045695 39.1045695,8 38,8 Z M47,8 C45.8954305,8 45,7.1045695 45,6 C45,4.8954305 45.8954305,4 47,4 C48.1045695,4 49,4.8954305 49,6 C49,7.1045695 48.1045695,8 47,8 Z M56,8 C54.8954305,8 54,7.1045695 54,6 C54,4.8954305 54.8954305,4 56,4 C57.1045695,4 58,4.8954305 58,6 C58,7.1045695 57.1045695,8 56,8 Z M65,8 C63.8954305,8 63,7.1045695 63,6 C63,4.8954305 63.8954305,4 65,4 C66.1045695,4 67,4.8954305 67,6 C67,7.1045695 66.1045695,8 65,8 Z M74,8 C72.8954305,8 72,7.1045695 72,6 C72,4.8954305 72.8954305,4 74,4 C75.1045695,4 76,4.8954305 76,6 C76,7.1045695 75.1045695,8 74,8 Z M83,8 C81.8954305,8 81,7.1045695 81,6 C81,4.8954305 81.8954305,4 83,4 C84.1045695,4 85,4.8954305 85,6 C85,7.1045695 84.1045695,8 83,8 Z M93.8284271,6 L90.2928932,2.46446609 C89.9023689,2.0739418 89.9023689,1.44077682 90.2928932,1.05025253 C90.6834175,0.65972824 91.3165825,0.65972824 91.7071068,1.05025253 L95.7729708,5.11611652 C96.2611261,5.60427189 96.2611261,6.39572811 95.7729708,6.88388348 L91.7071068,10.9497475 C91.3165825,11.3402718 90.6834175,11.3402718 90.2928932,10.9497475 C89.9023689,10.5592232 89.9023689,9.9260582 90.2928932,9.53553391 L93.8284271,6 Z" id="Combined-Shape"></path>
        </g>
    </g>
</svg>