<?xml version="1.0" encoding="UTF-8"?>
<svg width="280px" height="54px" viewBox="0 0 280 54" version="1.1" xmlns="http://www.w3.org/2000/svg" xmlns:xlink="http://www.w3.org/1999/xlink">
    <!-- Generator: Sketch 50 (54983) - http://www.bohemiancoding.com/sketch -->
    <title>fs-logo</title>
    <desc>Created with Sketch.</desc>
    <defs></defs>
    <g id="fs-logo" stroke="none" stroke-width="1" fill="none" fill-rule="evenodd">
        <g transform="translate(0.000000, 1.000000)" fill="#9222D8">
            <g id="flowersourcing" transform="translate(52.000000, 14.000000)">
                <path d="M14.803275,0.4173375 C15.7693125,0.4173375 16.55245,1.200475 16.55245,2.1665125 C16.55245,3.13255 15.7693125,3.9153 14.803275,3.9153 L3.49835,3.9153 L3.49835,9.85645 L12.7096125,9.85645 C13.67565,9.85645 14.4587875,10.6395875 14.4587875,11.605625 C14.4587875,12.57205 13.67565,13.3548 12.7096125,13.3548 L3.49835,13.3548 L3.49835,22.026275 C3.49835,22.9923125 2.7152125,23.7750625 1.749175,23.7750625 C0.7831375,23.7750625 0,22.9923125 0,22.026275 L0,2.1665125 C0,1.200475 0.7831375,0.4173375 1.749175,0.4173375 L14.803275,0.4173375 Z M34.0142075,5.40233125 C38.4134185,5.40233125 42.2074184,8.53449375 43.0354186,12.8496938 C43.144682,13.4193188 43.2000887,14.0044438 43.2000887,14.5887938 C43.2000887,19.6541938 39.0794608,23.7752563 34.0142075,23.7752563 C28.9497291,23.7752563 24.8287138,19.6541938 24.8287138,14.5887938 C24.8287138,9.52378125 28.9497291,5.40233125 34.0142075,5.40233125 Z M34.0151763,20.2769063 C37.1516013,20.2769063 39.7036763,17.7256063 39.7036763,14.5887938 C39.7036763,14.2253188 39.6691888,13.8622313 39.6017638,13.5088313 C39.0891013,10.8385688 36.7400763,8.90068125 34.0151763,8.90068125 C30.8787513,8.90068125 28.3270638,11.4523688 28.3270638,14.5887938 C28.3270638,17.7256063 30.8787513,20.2769063 34.0151763,20.2769063 Z M94.9400962,5.4298825 C95.9061337,5.4298825 96.6892712,6.21302 96.6892712,7.1790575 C96.6892712,8.145095 95.9061337,8.9282325 94.9400962,8.9282325 L94.9397087,8.927845 L94.9397087,8.9282325 C92.1884587,8.9282325 89.9583962,11.158295 89.9583962,13.9091575 L89.9583962,22.02612 C89.9583962,22.9921575 89.1752587,23.775295 88.2092212,23.775295 C87.2431837,23.775295 86.4600462,22.9921575 86.4600462,22.02612 L86.4600462,7.16937 C86.4600462,6.2033325 87.2431837,5.420195 88.2092212,5.420195 C89.1365087,5.420195 89.8878712,6.1444325 89.9467712,7.056995 C91.3475837,6.03477 93.0727337,5.4298825 94.9397087,5.4298825 L94.9400962,5.4298825 Z M20.669715,0.47030875 C21.6357525,0.47030875 22.41889,1.25344625 22.41889,2.21948375 L22.41889,22.0261588 C22.41889,22.9921963 21.6357525,23.7753338 20.669715,23.7753338 C19.7036775,23.7753338 18.92054,22.9921963 18.92054,22.0261588 L18.92054,2.21948375 C18.92054,1.25344625 19.7036775,0.47030875 20.669715,0.47030875 Z M84.04906,13.4032375 C84.052935,13.4319125 84.057585,13.4605875 84.0602975,13.48965 C84.06766,13.57025 84.0726975,13.6512375 84.0726975,13.733775 C84.0726975,13.8558375 84.06146,13.9744125 84.045185,14.0922125 C83.8928975,15.1919375 83.05551,16.07195 81.9755475,16.2831375 C81.8127975,16.3149125 81.6453975,16.3327375 81.473735,16.3327375 L69.523235,16.3327375 C70.26181,18.61705 72.40391,20.2705125 74.934285,20.2705125 C77.63516,20.2705125 78.8724475,19.47265 79.25336,19.1607125 C79.2514225,19.16265 79.24871,19.164975 79.246385,19.1669125 C79.2483225,19.164975 79.2514225,19.16265 79.25336,19.1607125 C79.345585,19.08515 79.3893725,19.0374875 79.38976,19.0367125 C79.74626,18.717025 80.1449975,18.5236625 80.628985,18.5236625 C81.504735,18.5236625 82.2243225,19.1676875 82.35491,20.006625 C82.36886,20.0953625 82.382035,20.1844875 82.382035,20.2767125 C82.382035,20.756825 82.188285,21.1912125 81.87596,21.5078 C81.864335,21.517875 81.8538725,21.5283375 81.842635,21.5384125 C81.757385,21.61165 81.665935,21.67675 81.57836,21.747275 C80.00511,23.0101375 78.0160725,23.7750625 75.8414225,23.7750625 C75.689135,23.7750625 75.53801,23.7711875 75.38766,23.763825 C75.2376975,23.7711875 75.0865725,23.7750625 74.934285,23.7750625 C69.8568725,23.7750625 65.741235,19.659425 65.741235,14.5824 C65.741235,9.5049875 69.8568725,5.38935 74.934285,5.38935 C75.0865725,5.38935 75.2376975,5.3936125 75.38766,5.4005875 C79.660235,5.6082875 83.1651725,8.7330875 83.95761,12.825475 C83.95761,12.825475 84.0238725,13.202125 84.04906,13.4032375 Z M69.52556,12.825475 L80.3402975,12.825475 C79.64396,10.6845375 77.714985,9.100825 75.38766,8.9167625 C75.2376975,8.90475 75.0873475,8.8939 74.934285,8.8939 C72.406235,8.8939 70.2660725,10.5442625 69.52556,12.825475 Z M64.5436663,5.542645 C65.4601038,5.8375325 65.9646288,6.819845 65.6697413,7.73667 L60.9019413,22.56552 C60.6698288,23.28627 59.9986788,23.775295 59.2415038,23.775295 C58.4839413,23.775295 57.8135663,23.28627 57.5814538,22.56552 L54.4737038,12.898945 L51.3655663,22.56552 C51.1338413,23.28627 50.4630788,23.775295 49.7055163,23.775295 C48.9483413,23.775295 48.2771913,23.28627 48.0454663,22.56552 L43.2772788,7.73667 C42.9823913,6.819845 43.4869163,5.8375325 44.4033538,5.542645 C45.3217288,5.2469825 46.3024913,5.751895 46.5973788,6.66872 L49.7055163,16.722795 L52.8136538,6.66872 C53.0453788,5.94797 53.7165288,5.458945 54.4737038,5.458945 C55.2308788,5.458945 55.9016413,5.94797 56.1337538,6.66872 L59.2415038,16.722795 L62.3496413,6.66872 C62.6445288,5.7530575 63.6264538,5.2469825 64.5436663,5.542645 Z" id="Combined-Shape"></path>
                <path d="M112.301918,11.6222875 C114.162305,12.81385 115.103155,14.5324125 115.103155,16.7338 C115.103155,18.486075 114.34133,20.234475 113.011818,21.530275 C111.942705,22.553275 109.994743,23.7750625 106.79438,23.7750625 C104.279118,23.7750625 102.185068,23.018275 100.57113,21.525625 C99.24743,20.2340875 98.4852175,18.486075 98.4852175,16.7338 C98.4852175,15.7716375 99.34198,14.9888875 100.39443,14.9888875 C101.448043,14.9888875 102.304805,15.7716375 102.304805,16.7338 C102.304805,18.05285 103.250693,20.2852375 106.79438,20.2852375 C110.338455,20.2852375 111.283955,18.05285 111.283955,16.7338 C111.283955,14.6382 109.852143,14.0511375 106.336743,13.1219125 L106.250718,13.0986625 C104.663518,12.66505 103.022455,12.2171 101.69643,11.3556875 C99.886805,10.2172125 99.0091175,8.6594625 99.0091175,6.5909875 C99.0091175,4.94915 99.7166925,3.314675 100.95088,2.1060625 C101.952955,1.1466125 103.781955,0 106.79438,0 C109.806805,0 111.635805,1.1466125 112.63943,2.108 C113.896093,3.3034375 114.616843,4.937525 114.616843,6.5909875 C114.616843,7.5535375 113.743418,8.3362875 112.669655,8.3362875 C111.61643,8.3362875 110.760055,7.5535375 110.760055,6.5909875 C110.760055,5.518775 109.931193,3.489825 106.79438,3.489825 C103.657568,3.489825 102.828705,5.518775 102.828705,6.5909875 C102.828705,8.1685 103.640518,8.7296 107.40043,9.7526 C109.013593,10.1742 110.839493,10.6512125 112.301918,11.6222875 Z M126.232039,5.40233125 C130.63125,5.40233125 134.42525,8.53449375 135.252475,12.8496938 C135.362126,13.4193188 135.417532,14.0044438 135.417532,14.5887938 C135.417532,19.6541938 131.296905,23.7752563 126.232039,23.7752563 C121.167173,23.7752563 117.046157,19.6541938 117.046157,14.5887938 C117.046157,9.52378125 121.167173,5.40233125 126.232039,5.40233125 Z M126.233007,20.2769063 C123.096582,20.2769063 120.544507,17.7256063 120.544507,14.5887938 C120.544507,11.4523688 123.096582,8.90068125 126.233007,8.90068125 C128.95752,8.90068125 131.306932,10.8385688 131.819207,13.5088313 C131.886632,13.8622313 131.921507,14.2253188 131.921507,14.5887938 C131.921507,17.7256063 129.36982,20.2769063 126.233007,20.2769063 Z M151.421244,5.3331625 C152.387281,5.3331625 153.170419,6.1163 153.170419,7.0823375 L153.170419,16.0839625 C153.170419,20.32515 149.720119,23.7750625 145.479319,23.7750625 C141.238131,23.7750625 137.787444,20.32515 137.787444,16.0839625 L137.787444,7.0823375 C137.787444,6.1163 138.570581,5.3331625 139.536619,5.3331625 C140.502656,5.3331625 141.285794,6.1163 141.285794,7.0823375 L141.285794,16.0839625 C141.285794,18.3957875 143.167106,20.2767125 145.479319,20.2767125 C147.791531,20.2767125 149.672069,18.3957875 149.672069,16.0839625 L149.672069,7.0823375 C149.672069,6.1163 150.455206,5.3331625 151.421244,5.3331625 Z M197.486043,5.3331625 C201.72723,5.3331625 205.17753,8.78385 205.17753,13.0250375 L205.17753,22.026275 C205.17753,22.9923125 204.394005,23.7750625 203.427967,23.7750625 C202.462318,23.7750625 201.678793,22.9923125 201.678793,22.026275 L201.678793,13.0250375 C201.678793,10.712825 199.798255,8.8315125 197.486043,8.8315125 C195.17383,8.8315125 193.292905,10.712825 193.292905,13.0250375 L193.292905,22.026275 C193.292905,22.9923125 192.50938,23.7750625 191.54373,23.7750625 C190.577693,23.7750625 189.794168,22.9923125 189.794168,22.026275 L189.794168,13.0250375 C189.794168,8.78385 193.244855,5.3331625 197.486043,5.3331625 Z M223.076155,5.03870125 C224.003055,5.03870125 224.75403,5.78967625 224.75403,6.71657625 L224.75403,20.9680513 L224.75403,21.9895013 C224.75403,26.8483638 220.800755,30.8016388 215.941505,30.8016388 C212.555917,30.8016388 209.42918,28.8242263 207.976442,25.7645263 C207.579255,24.9271388 207.935755,23.9266138 208.772755,23.5286513 C209.609755,23.1314638 210.611055,23.4879638 211.008242,24.3253513 C211.908017,26.2210013 213.844355,27.4458888 215.941505,27.4458888 C218.950442,27.4458888 221.39828,24.9980513 221.39828,21.9895013 C221.39828,21.6407513 221.364955,21.2923888 221.300242,20.9533263 C221.292492,20.9126388 221.294042,20.8723388 221.289392,20.8312638 C219.80488,21.9681888 217.951467,22.6459263 215.941505,22.6459263 C211.082642,22.6459263 207.129367,18.6926513 207.129367,13.8337888 C207.129367,8.97492625 211.082642,5.02165125 215.941505,5.02165125 C217.982855,5.02165125 219.884705,5.72922625 221.39828,6.92350125 L221.39828,6.71657625 C221.39828,5.78967625 222.149642,5.03870125 223.076155,5.03870125 Z M215.941505,19.2901763 C218.950442,19.2901763 221.39828,16.8427263 221.39828,13.8337888 C221.39828,13.4854263 221.364955,13.1366763 221.300242,12.7976138 C220.808892,10.2362388 218.555192,8.37740125 215.941505,8.37740125 C212.932567,8.37740125 210.485117,10.8248513 210.485117,13.8337888 C210.485117,16.8427263 212.932567,19.2901763 215.941505,19.2901763 Z M185.677135,5.42023375 C186.643172,5.42023375 187.426697,6.20337125 187.426697,7.16940875 L187.426697,22.0261588 C187.426697,22.9921963 186.643172,23.7753338 185.677135,23.7753338 C184.711097,23.7753338 183.92796,22.9921963 183.92796,22.0261588 L183.92796,7.16940875 C183.92796,6.20337125 184.711097,5.42023375 185.677135,5.42023375 Z M185.677135,0.380835 C186.790035,0.380835 187.692135,1.282935 187.692135,2.395835 C187.692135,3.5083475 186.790035,4.4104475 185.677135,4.4104475 C184.564623,4.4104475 183.662523,3.5083475 183.662523,2.395835 C183.662523,1.282935 184.564623,0.380835 185.677135,0.380835 Z M164.018404,5.4298825 C164.984441,5.4298825 165.767966,6.21302 165.767966,7.1790575 C165.767966,8.145095 164.984441,8.9282325 164.018404,8.9282325 L164.018016,8.927845 L164.018016,8.9282325 C161.266766,8.9282325 159.037091,11.158295 159.037091,13.9091575 L159.037091,22.02612 C159.037091,22.9921575 158.253566,23.775295 157.287529,23.775295 C156.321879,23.775295 155.538354,22.9921575 155.538354,22.02612 L155.538354,7.16937 C155.538354,6.2033325 156.321879,5.420195 157.287529,5.420195 C158.214816,5.420195 158.966566,6.1444325 159.025466,7.056995 C160.425891,6.03477 162.151429,5.4298825 164.018016,5.4298825 L164.018404,5.4298825 Z M174.528566,8.9465225 C171.401829,8.9465225 168.857891,11.4900725 168.857891,14.6171975 C168.857891,17.743935 171.401829,20.2878725 174.528566,20.2878725 C176.043304,20.2878725 177.467366,19.69771 178.538804,18.62666 C179.219641,17.9465975 180.323629,17.94621 181.004854,18.6270475 C181.685691,19.3082725 181.685691,20.4126475 181.004466,21.093485 C179.274279,22.8228975 176.974466,23.7753725 174.528566,23.7753725 C169.479054,23.7753725 165.370391,19.66671 165.370391,14.6171975 C165.370391,9.567685 169.479054,5.4590225 174.528566,5.4590225 C176.977566,5.4590225 179.279316,6.413435 181.010279,8.1467225 C181.690341,8.8279475 181.689566,9.931935 181.008341,10.6127725 C180.327116,11.292835 179.222354,11.2924475 178.541904,10.610835 C177.470466,9.53746 176.044854,8.9465225 174.528566,8.9465225 Z" id="Combined-Shape"></path>
            </g>
            <g id="logo-icon">
                <path d="M37.085001,31.6624783 L27.8322029,34.8060594 L31.4157717,37.0252449 C32.3888687,37.62742 32.6908955,38.9076669 32.0904643,39.8843266 C31.6992332,40.5205871 31.020918,40.8709848 30.3272072,40.8709848 C29.9558999,40.8709848 29.5805172,40.771001 29.2418124,40.5614895 L25.0700385,37.9778177 L25.0700385,41.5940493 C25.0700385,42.7415905 24.1431285,43.6714397 23.0002264,43.6714397 C21.8568715,43.6714397 20.9299615,42.7415905 20.9299615,41.5940493 L20.9299615,37.9778177 L16.7577347,40.5614895 C16.41903,40.771001 16.0436473,40.8709848 15.6727928,40.8709848 C14.9786292,40.8709848 14.3007668,40.5205871 13.9090829,39.8843266 C13.3091045,38.9076669 13.6111313,37.62742 14.5837755,37.0252449 L18.1673442,34.8060594 L8.91499897,31.6624783 C7.83186825,31.2943562 7.2513609,30.1154565 7.6176873,29.0283601 C7.98446652,27.9417181 9.15951844,27.3586309 10.2421963,27.726753 L17.4537096,30.1768102 L9.97413055,19.9402886 C9.29807948,19.0149841 9.49731757,17.7147405 10.4192466,17.0362142 C11.3411755,16.3576879 12.636676,16.5576554 13.3122742,17.4829599 L20.9299615,27.9085417 L20.9299615,10.4313763 C20.9299615,9.28383517 21.8568715,8.35353151 23.0002264,8.35353151 C24.1431285,8.35353151 25.0700385,9.28383517 25.0700385,10.4313763 L25.0700385,27.9085417 L32.687273,17.4829599 C33.363324,16.5576554 34.6588245,16.3576879 35.5807534,17.0362142 C36.5022296,17.7147405 36.7019205,19.0149841 36.0258695,19.9402886 L28.5462904,30.1768102 L35.7573508,27.726753 C36.8404816,27.3586309 38.0155335,27.9417181 38.3818599,29.0283601 C38.7486391,30.1154565 38.1676789,31.2943562 37.085001,31.6624783 M43.9301879,11.4857508 L25.0700385,0.556614268 C23.7890281,-0.185538089 22.2109719,-0.185538089 20.9299615,0.556614268 L2.06981208,11.4857508 C0.788801717,12.2279031 0,13.5994988 0,15.0838036 L0,36.9416221 C0,38.4259268 0.788801717,39.7975225 2.06981208,40.5396749 L20.9299615,51.4688114 C22.2109719,52.2109637 23.7890281,52.2109637 25.0700385,51.4688114 L43.9301879,40.5396749 C45.2107455,39.7975225 46,38.4259268 46,36.9416221 L46,15.0838036 C46,13.5994988 45.2107455,12.2279031 43.9301879,11.4857508" id="Fill-1"></path>
            </g>
        </g>
    </g>
</svg>