<?xml version="1.0" encoding="UTF-8"?>
<svg width="180px" height="168px" viewBox="0 0 180 168" version="1.1" xmlns="http://www.w3.org/2000/svg" xmlns:xlink="http://www.w3.org/1999/xlink">
    <!-- Generator: Sketch 50 (54983) - http://www.bohemiancoding.com/sketch -->
    <title>null</title>
    <desc>Created with Sketch.</desc>
    <defs></defs>
    <g id="null" stroke="none" stroke-width="1" fill="none" fill-rule="evenodd">
        <g id="Null">
            <path d="M44.0921062,135.34849 C28.6868214,122.326329 18.9044142,102.859835 18.9044142,81.1085369 C18.9044142,71.9205061 20.6499159,63.140159 23.827406,55.081009 L16.9220386,48.1756416 C13.8070357,45.0606388 13.8070357,40.0102213 16.9220386,36.8952185 C19.6497705,34.1674865 23.8615934,33.8283629 26.9583428,35.8778475 L34.5601521,43.4796568 C37.675155,46.5946597 42.7255724,46.5946597 45.8405753,43.4796568 C48.9555781,40.364654 48.9555781,35.3142365 45.8405753,32.1992337 L32.6552413,19.0138998 C30.6057567,15.9171504 30.9448804,11.7053275 33.6726123,8.97759554 C36.7876152,5.8625927 41.8380326,5.8625927 44.9530355,8.97759554 L55.1581672,19.1827272 C65.4267249,13.4102893 77.2763565,10.11801 89.8949411,10.11801 C127.826153,10.11801 158.80917,39.8667663 160.785349,77.3056348 L169.919532,86.4398187 C173.034535,89.5548216 173.034535,94.605239 169.919532,97.7202419 C167.191801,100.447974 162.979978,100.787097 159.883228,98.7376129 L158.340496,97.1948801 C155.225493,94.0798773 150.175075,94.0798773 147.060072,97.1948801 C143.94507,100.309883 143.94507,105.3603 147.060072,108.475303 L152.740553,114.155784 C152.720764,114.19334 152.700941,114.230876 152.681086,114.268393 L160.347776,121.935082 C163.462779,125.050085 163.462779,130.100502 160.347776,133.215505 C157.232773,136.330508 152.182356,136.330508 149.067353,133.215505 L143.501848,127.650001 C141.102094,130.41169 138.492459,132.986132 135.697775,135.348491 L44.0921062,135.34849 Z" id="Combined-Shape" fill="#8F7EFF" opacity="0.0994977679"></path>
            <g id="Group-5" transform="translate(24.000000, 14.000000)" fill="#8F7EFF">
                <path d="M51.8743034,0 C52.4265882,-1.01453063e-16 52.8743034,0.44771525 52.8743034,1 L52.8743034,3 C52.8743034,3.55228475 52.4265882,4 51.8743034,4 C51.3220187,4 50.8743034,3.55228475 50.8743034,3 L50.8743034,1 C50.8743034,0.44771525 51.3220187,1.01453063e-16 51.8743034,0 Z M56.5559213,2.24740001 C56.9034853,2.67660587 56.8373016,3.30630231 56.4080957,3.65386636 L54.8538038,4.91250715 C54.4245979,5.2600712 53.7949015,5.19388744 53.4473374,4.76468157 C53.0997734,4.33547571 53.1659571,3.70577928 53.595163,3.35821522 L55.1494549,2.09957444 C55.5786608,1.75201039 56.2083572,1.81819415 56.5559213,2.24740001 Z M57.7227552,7.33998584 C57.5985182,7.87811557 57.0615638,8.21364189 56.5234341,8.08940485 L54.5746939,7.63950275 C54.0365642,7.51526571 53.7010379,6.97831135 53.8252749,6.44018163 C53.949512,5.9020519 54.4864663,5.56652558 55.0245961,5.69076262 L56.9733362,6.14066473 C57.5114659,6.26490176 57.8469922,6.80185612 57.7227552,7.33998584 Z M54.4865807,11.4014636 C53.9901904,11.6435693 53.3915212,11.4374309 53.1494155,10.9410407 L52.2726732,9.14345257 C52.0305675,8.64706233 52.2367058,8.04839308 52.7330961,7.80628738 C53.2294863,7.56418168 53.8281556,7.77032003 54.0702613,8.26671028 L54.9470036,10.0642984 C55.1891093,10.5606886 54.9829709,11.1593579 54.4865807,11.4014636 Z M49.2620262,11.4014636 C48.7656359,11.1593579 48.5594976,10.5606886 48.8016033,10.0642984 L49.6783456,8.26671028 C49.9204513,7.77032003 50.5191205,7.56418168 51.0155108,7.80628738 C51.511901,8.04839308 51.7180394,8.64706233 51.4759337,9.14345257 L50.5991914,10.9410407 C50.3570857,11.4374309 49.7584164,11.6435693 49.2620262,11.4014636 Z M46.0258516,7.33998584 C45.9016146,6.80185612 46.2371409,6.26490176 46.7752707,6.14066473 L48.7240108,5.69076262 C49.2621405,5.56652558 49.7990949,5.9020519 49.9233319,6.44018163 C50.0475689,6.97831135 49.7120426,7.51526571 49.1739129,7.63950275 L47.2251728,8.08940485 C46.687043,8.21364189 46.1500887,7.87811557 46.0258516,7.33998584 Z M47.1926856,2.24740001 C47.5402496,1.81819415 48.1699461,1.75201039 48.5991519,2.09957444 L50.1534438,3.35821522 C50.5826497,3.70577928 50.6488335,4.33547571 50.3012694,4.76468157 C49.9537054,5.19388744 49.3240089,5.2600712 48.8948031,4.91250715 L47.3405111,3.65386636 C46.9113053,3.30630231 46.8451215,2.67660587 47.1926856,2.24740001 Z" id="Rectangle-8"></path>
                <path d="M5,71 L5,68 C5,67.4477153 5.44771525,67 6,67 C6.55228475,67 7,67.4477153 7,68 L7,71 L10,71 C10.5522847,71 11,71.4477153 11,72 C11,72.5522847 10.5522847,73 10,73 L7,73 L7,76 C7,76.5522847 6.55228475,77 6,77 C5.44771525,77 5,76.5522847 5,76 L5,73 L2,73 C1.44771525,73 1,72.5522847 1,72 C1,71.4477153 1.44771525,71 2,71 L5,71 Z" id="Combined-Shape"></path>
                <path d="M122.830127,48.830127 L122.830127,45.830127 C122.830127,45.2778423 123.277842,44.830127 123.830127,44.830127 C124.382412,44.830127 124.830127,45.2778423 124.830127,45.830127 L124.830127,48.830127 L127.830127,48.830127 C128.382412,48.830127 128.830127,49.2778423 128.830127,49.830127 C128.830127,50.3824118 128.382412,50.830127 127.830127,50.830127 L124.830127,50.830127 L124.830127,53.830127 C124.830127,54.3824118 124.382412,54.830127 123.830127,54.830127 C123.277842,54.830127 122.830127,54.3824118 122.830127,53.830127 L122.830127,50.830127 L119.830127,50.830127 C119.277842,50.830127 118.830127,50.3824118 118.830127,49.830127 C118.830127,49.2778423 119.277842,48.830127 119.830127,48.830127 L122.830127,48.830127 Z" id="Combined-Shape" transform="translate(123.830127, 49.830127) rotate(30.000000) translate(-123.830127, -49.830127) "></path>
                <path d="M4.5,36 C2.01471863,36 0,33.9852814 0,31.5 C0,29.0147186 2.01471863,27 4.5,27 C6.98528137,27 9,29.0147186 9,31.5 C9,33.9852814 6.98528137,36 4.5,36 Z M4.5,34 C5.88071187,34 7,32.8807119 7,31.5 C7,30.1192881 5.88071187,29 4.5,29 C3.11928813,29 2,30.1192881 2,31.5 C2,32.8807119 3.11928813,34 4.5,34 Z" id="Oval" fill-rule="nonzero"></path>
            </g>
            <g id="Group-6" transform="translate(54.000000, 41.000000)">
                <path d="M6,15 L66,15 C69.3137085,15 72,17.6862915 72,21 L72,89 C72,92.3137085 69.3137085,95 66,95 L6,95 C2.6862915,95 4.05812251e-16,92.3137085 0,89 L0,21 C-4.05812251e-16,17.6862915 2.6862915,15 6,15 Z" id="Path" fill="#8F7DFF"></path>
                <path d="M6,17 C3.790861,17 2,18.790861 2,21 L2,89 C2,91.209139 3.790861,93 6,93 L66,93 C68.209139,93 70,91.209139 70,89 L70,21 C70,18.790861 68.209139,17 66,17 L6,17 Z" id="Path" fill="#FFFFFF"></path>
                <rect id="Rectangle-15" fill="#8F7DFF" x="11" y="54" width="47" height="2" rx="1"></rect>
                <rect id="Rectangle-15" fill="#8F7DFF" x="11" y="63" width="37" height="2" rx="1"></rect>
                <rect id="Rectangle-15" fill="#8F7DFF" x="11" y="72" width="43" height="2" rx="1"></rect>
                <rect id="Rectangle-15" fill="#8F7DFF" x="11" y="81" width="22" height="2" rx="1"></rect>
                <rect id="Rectangle-15" fill="#8F7DFF" x="39" y="81" width="21" height="2" rx="1"></rect>
                <path d="M25.86,32.5 C26.1000012,32.5 26.2949992,32.5799992 26.445,32.74 C26.5950007,32.9000008 26.67,33.0999988 26.67,33.34 L26.67,42.085 C26.67,42.3450013 26.5825009,42.5624991 26.4075,42.7375 C26.2324991,42.9125009 26.0150013,43 25.755,43 C25.6149993,43 25.4775007,42.9775002 25.3425,42.9325 C25.2074993,42.8874998 25.1100003,42.8250004 25.05,42.745 L19.545,35.755 L19.545,42.16 C19.545,42.4000012 19.4675008,42.5999992 19.3125,42.76 C19.1574992,42.9200008 18.9550012,43 18.705,43 C18.4649988,43 18.2700008,42.9200008 18.12,42.76 C17.9699993,42.5999992 17.895,42.4000012 17.895,42.16 L17.895,33.415 C17.895,33.1549987 17.9824991,32.9375009 18.1575,32.7625 C18.3325009,32.5874991 18.5499987,32.5 18.81,32.5 C18.9600007,32.5 19.1074993,32.5299997 19.2525,32.59 C19.3975007,32.6500003 19.5049996,32.7299995 19.575,32.83 L25.035,39.79 L25.035,33.34 C25.035,33.0999988 25.1124992,32.9000008 25.2675,32.74 C25.4225008,32.5799992 25.6199988,32.5 25.86,32.5 Z M36.375,32.485 C36.6350013,32.485 36.8449992,32.5699992 37.005,32.74 C37.1650008,32.9100009 37.245,33.1299987 37.245,33.4 L37.245,38.83 C37.245,39.6600041 37.0700017,40.3949968 36.72,41.035 C36.3699982,41.6750032 35.8800031,42.1749982 35.25,42.535 C34.6199968,42.8950018 33.900004,43.075 33.09,43.075 C32.2799959,43.075 31.5575032,42.8950018 30.9225,42.535 C30.2874968,42.1749982 29.7950017,41.6750032 29.445,41.035 C29.0949982,40.3949968 28.92,39.6600041 28.92,38.83 L28.92,33.4 C28.92,33.1399987 29.0099991,32.9225009 29.19,32.7475 C29.3700009,32.5724991 29.5999986,32.485 29.88,32.485 C30.1200012,32.485 30.3299991,32.5724991 30.51,32.7475 C30.6900009,32.9225009 30.78,33.1399987 30.78,33.4 L30.78,38.83 C30.78,39.3100024 30.8849989,39.7374981 31.095,40.1125 C31.3050011,40.4875019 31.5874982,40.774999 31.9425,40.975 C32.2975018,41.175001 32.679998,41.275 33.09,41.275 C33.5200021,41.275 33.9224981,41.175001 34.2975,40.975 C34.6725019,40.774999 34.9724989,40.4875019 35.1975,40.1125 C35.4225011,39.7374981 35.535,39.3100024 35.535,38.83 L35.535,33.4 C35.535,33.1299987 35.6099993,32.9100009 35.76,32.74 C35.9100007,32.5699992 36.1149987,32.485 36.375,32.485 Z M45.285,41.245 C45.5450013,41.245 45.7624991,41.3274992 45.9375,41.4925 C46.1125009,41.6575008 46.2,41.8699987 46.2,42.13 C46.2,42.3800012 46.1125009,42.5874992 45.9375,42.7525 C45.7624991,42.9175008 45.5450013,43 45.285,43 L40.41,43 C40.1499987,43 39.9325009,42.9125009 39.7575,42.7375 C39.5824991,42.5624991 39.495,42.3450013 39.495,42.085 L39.495,33.415 C39.495,33.1549987 39.5849991,32.9375009 39.765,32.7625 C39.9450009,32.5874991 40.1749986,32.5 40.455,32.5 C40.7050012,32.5 40.9199991,32.5874991 41.1,32.7625 C41.2800009,32.9375009 41.37,33.1549987 41.37,33.415 L41.37,41.245 L45.285,41.245 Z M53.715,41.245 C53.9750013,41.245 54.1924991,41.3274992 54.3675,41.4925 C54.5425009,41.6575008 54.63,41.8699987 54.63,42.13 C54.63,42.3800012 54.5425009,42.5874992 54.3675,42.7525 C54.1924991,42.9175008 53.9750013,43 53.715,43 L48.84,43 C48.5799987,43 48.3625009,42.9125009 48.1875,42.7375 C48.0124991,42.5624991 47.925,42.3450013 47.925,42.085 L47.925,33.415 C47.925,33.1549987 48.0149991,32.9375009 48.195,32.7625 C48.3750009,32.5874991 48.6049986,32.5 48.885,32.5 C49.1350013,32.5 49.3499991,32.5874991 49.53,32.7625 C49.7100009,32.9375009 49.8,33.1549987 49.8,33.415 L49.8,41.245 L53.715,41.245 Z" id="NULL" fill="#8675F6"></path>
                <path d="M36,0 C41.7380426,0 46.4499282,4.39349999 46.955157,10 L57,10 C59.209139,10 61,11.790861 61,14 L61,19 C61,21.209139 59.209139,23 57,23 L15,23 C12.790861,23 11,21.209139 11,19 L11,14 C11,11.790861 12.790861,10 15,10 L25.044843,10 C25.5500718,4.39349999 30.2619574,0 36,0 Z" id="Path" fill="#8F7DFF"></path>
                <path d="M27,11 L27,12 L15,12 C13.8954305,12 13,12.8954305 13,14 L13,19 C13,20.1045695 13.8954305,21 15,21 L57,21 C58.1045695,21 59,20.1045695 59,19 L59,14 C59,12.8954305 58.1045695,12 57,12 L45,12 L45,11 C45,6.02943725 40.9705627,2 36,2 C31.0294373,2 27,6.02943725 27,11 Z" id="Path" fill="#C7BEFF"></path>
                <path d="M36,16 C33.2385763,16 31,13.7614237 31,11 C31,8.23857625 33.2385763,6 36,6 C38.7614237,6 41,8.23857625 41,11 C41,13.7614237 38.7614237,16 36,16 Z" id="Path" fill="#8F7DFF"></path>
                <path d="M36,14 C37.6568542,14 39,12.6568542 39,11 C39,9.34314575 37.6568542,8 36,8 C34.3431458,8 33,9.34314575 33,11 C33,12.6568542 34.3431458,14 36,14 Z" id="Path" fill="#F4F3FF"></path>
            </g>
            <path d="M23,135 L33,135 C33.5522847,135 34,135.447715 34,136 C34,136.552285 33.5522847,137 33,137 L23,137 C22.4477153,137 22,136.552285 22,136 C22,135.447715 22.4477153,135 23,135 Z M135,135 L149,135 C149.552285,135 150,135.447715 150,136 C150,136.552285 149.552285,137 149,137 L135,137 C134.447715,137 134,136.552285 134,136 C134,135.447715 134.447715,135 135,135 Z M152,135 L157,135 C157.552285,135 158,135.447715 158,136 C158,136.552285 157.552285,137 157,137 L152,137 C151.447715,137 151,136.552285 151,136 C151,135.447715 151.447715,135 152,135 Z M39,135 L131,135 C131.552285,135 132,135.447715 132,136 C132,136.552285 131.552285,137 131,137 L39,137 C38.4477153,137 38,136.552285 38,136 C38,135.447715 38.4477153,135 39,135 Z" id="Combined-Shape" fill="#8F7EFF"></path>
            <path d="M62,149 L114,149 C114.552285,149 115,149.447715 115,150 C115,150.552285 114.552285,151 114,151 L62,151 C61.4477153,151 61,150.552285 61,150 C61,149.447715 61.4477153,149 62,149 Z M119,149 L122,149 C122.552285,149 123,149.447715 123,150 C123,150.552285 122.552285,151 122,151 L119,151 C118.447715,151 118,150.552285 118,150 C118,149.447715 118.447715,149 119,149 Z M44,149 L57,149 C57.5522847,149 58,149.447715 58,150 C58,150.552285 57.5522847,151 57,151 L44,151 C43.4477153,151 43,150.552285 43,150 C43,149.447715 43.4477153,149 44,149 Z M127,149 L137,149 C137.552285,149 138,149.447715 138,150 C138,150.552285 137.552285,151 137,151 L127,151 C126.447715,151 126,150.552285 126,150 C126,149.447715 126.447715,149 127,149 Z" id="Combined-Shape" fill="#8F7EFF" fill-rule="nonzero"></path>
        </g>
    </g>
</svg>