<?xml version="1.0" standalone="no"?>
<!DOCTYPE svg PUBLIC "-//W3C//DTD SVG 1.1//EN" "http://www.w3.org/Graphics/SVG/1.1/DTD/svg11.dtd" >
<svg xmlns="http://www.w3.org/2000/svg">
<metadata>Generated by IcoMoon</metadata>
<defs>
<font id="icomoon" horiz-adv-x="1024">
<font-face units-per-em="1024" ascent="960" descent="-64" />
<missing-glyph horiz-adv-x="1024" />
<glyph unicode="&#x20;" horiz-adv-x="512" d="" />
<glyph unicode="&#xe900;" glyph-name="angle-left" horiz-adv-x="512" d="M116.922 448l339.411 339.411c12.497 12.497 12.497 32.758 0 45.255s-32.758 12.497-45.255 0l-350.725-350.725c-18.745-18.745-18.745-49.137 0-67.882l350.725-350.725c12.497-12.497 32.758-12.497 45.255 0s12.497 32.758 0 45.255l-339.411 339.411z" />
<glyph unicode="&#xe901;" glyph-name="angle-right" horiz-adv-x="512" d="M395.078 448l-339.411 339.411c-12.497 12.497-12.497 32.758 0 45.255s32.758 12.497 45.255 0l350.725-350.725c18.745-18.745 18.745-49.137 0-67.882l-350.725-350.725c-12.497-12.497-32.758-12.497-45.255 0s-12.497 32.758 0 45.255l339.411 339.411z" />
<glyph unicode="&#xe902;" glyph-name="angle-down" horiz-adv-x="896" d="M448 308.922l339.411 339.411c12.497 12.497 32.758 12.497 45.255 0s12.497-32.758 0-45.255l-350.725-350.725c-18.745-18.745-49.137-18.745-67.882 0l-350.725 350.725c-12.497 12.497-12.497 32.758 0 45.255s32.758 12.497 45.255 0l339.411-339.411z" />
<glyph unicode="&#xe903;" glyph-name="cart" d="M1008.715 737.85c-10.886 12.387-26.586 19.495-43.076 19.499l-739.872 0.191c-4.854 0.001-8.961 3.586-9.619 8.394l-14.471 105.686c-4.164 30.409-30.449 53.445-61.14 53.581l-108.686 0.488c-16.989 0.077-30.823-13.634-30.899-30.622l-0.035-7.71c-0.077-16.989 13.634-30.823 30.623-30.899l102.396-0.459 81.113-560.538c1.392-51.178 43.457-86.394 94.966-86.394h561.993c51.556 0 93.652 35.29 94.97 86.534l55.536 397.021c2.117 16.354-2.912 32.839-13.798 45.227zM948.582 660.808l-50.806-357.533c0-14.232-11.537-25.941-25.769-25.941h-561.993c-14.232 0-25.769 9.417-25.769 25.941l-53.705 357.53c-1.992 14.543 9.313 27.497 23.992 27.493l670.046-0.171c14.602-0.003 25.877-12.837 24.003-27.318zM351.518 174.933c56.464 0 102.4-45.936 102.4-102.4s-45.936-102.4-102.4-102.4c-56.464 0-102.4 45.936-102.4 102.4s45.936 102.4 102.4 102.4zM351.518 38.4c18.821 0 34.133 15.313 34.133 34.133s-15.312 34.133-34.133 34.133c-18.821 0-34.133-15.313-34.133-34.133s15.312-34.133 34.133-34.133zM829.44 174.933c56.464 0 102.4-45.936 102.4-102.4s-45.936-102.4-102.4-102.4c-56.464 0-102.4 45.936-102.4 102.4s45.936 102.4 102.4 102.4zM829.44 38.4c18.821 0 34.133 15.313 34.133 34.133s-15.313 34.133-34.133 34.133c-18.82 0-34.133-15.313-34.133-34.133s15.313-34.133 34.133-34.133z" />
<glyph unicode="&#xe904;" glyph-name="chat" d="M781.714 886.857c113.143 0 205.714-92.571 205.714-205.714v-242.286c0-113.143-92.571-205.714-205.714-205.714h-48v-142.857l-219.429 142.857h-121.143c-113.143 0-205.714 92.571-205.714 205.714v242.286c0 113.143 92.571 205.714 205.714 205.714h388.571zM781.714 818.286h-388.571c-75.604-0.332-136.811-61.539-137.143-137.143v-242.286c0.332-75.604 61.539-136.811 137.143-137.143h142.857l124.571-82.286v82.286h121.143c75.604 0.332 136.811 61.539 137.143 137.143v242.286c-0.332 75.604-61.539 136.811-137.143 137.143zM437.714 183.086c0 0 73.143 1.543 73.143-0.229l-146.206-173.349-1.223 104.96h-121.143c-113.143 0-205.714 92.571-205.714 205.714v280c0 85.44 52.8 159.131 127.371 190.149-19.662-32.051-30.084-68.913-30.114-106.514-18.629-23.877-28.727-53.304-28.686-83.589v-280c0.332-75.604 61.539-136.811 137.143-137.143h195.429zM346.286 556.194c0 20.415 10.891 39.28 28.571 49.487s39.463 10.208 57.143 0c17.68-10.208 28.571-29.072 28.571-49.487s-10.891-39.28-28.571-49.487c-17.68-10.208-39.463-10.208-57.143 0s-28.571 29.072-28.571 49.487zM529.143 556.194c0 31.559 25.584 57.143 57.143 57.143s57.143-25.584 57.143-57.143c0-31.559-25.584-57.143-57.143-57.143s-57.143 25.584-57.143 57.143zM712 556.194c0 31.559 25.584 57.143 57.143 57.143s57.143-25.584 57.143-57.143c0-31.559-25.584-57.143-57.143-57.143s-57.143 25.584-57.143 57.143z" />
<glyph unicode="&#xe905;" glyph-name="customer-service" d="M53.878 421.327v-107.972c0-44.634 36.183-80.817 80.817-80.817s80.817 36.183 80.817 80.817v107.972c0 44.634-36.183 80.817-80.817 80.817s-80.817-36.183-80.817-80.817zM796.669 215.404c-27.060 25.387-42.4 60.846-42.375 97.95v107.972c0.057 73.981 59.773 134.070 133.752 134.588-13.82 195.712-176.99 350.208-376.204 350.208-199.241 0-362.384-154.496-376.204-350.208 73.961-0.562 133.651-60.624 133.752-134.588v-107.972c0-74.39-60.305-134.695-134.695-134.695s-134.695 60.305-134.695 134.695v107.972c0.031 53.636 31.882 102.142 81.087 123.489 8.351 230.706 198.002 415.185 430.756 415.185s422.404-184.479 430.756-415.185c49.191-21.364 81.034-69.859 81.087-123.489v-107.972c-0.030-43.763-21.318-84.783-57.087-109.999s-81.557-31.482-122.785-16.803c-50.87-53.575-113.939-94.056-183.832-117.993-1.303-51.22-43.293-92.013-94.529-91.835h-80.332c-52.262 0-94.529 42.025-94.529 94.287 0 52.181 42.133 94.287 94.556 94.287h80.278c34.024 0 63.792-17.78 80.44-44.584 56.672 19.965 108.181 52.313 150.778 94.691h0.027zM808.172 421.327v-107.972c0-44.634 36.183-80.817 80.817-80.817s80.817 36.183 80.817 80.817v107.972c0 44.634-36.183 80.817-80.817 80.817s-80.817-36.183-80.817-80.817zM485.172 30.602h80.278c22.683 0 40.678 17.995 40.678 40.409 0 22.44-18.076 40.409-40.678 40.409h-80.278c-22.683 0-40.678-17.995-40.678-40.409 0-22.44 18.076-40.409 40.678-40.409z" />
<glyph unicode="&#xe906;" glyph-name="email" d="M969.943 763.448c0.369-0.258 0.74-0.519 1.113-0.781l-0.376-0.376c10.612-16.889 16.749-36.873 16.749-58.291v-512c0-60.594-49.121-109.714-109.714-109.714h-731.429c-60.594 0-109.714 49.121-109.714 109.714v512c0 21.44 6.15 41.443 16.782 58.343l-0.324 0.324c0.315 0.216 0.629 0.431 0.941 0.644 19.521 30.322 53.574 50.403 92.316 50.403h731.429c38.684 0 72.693-20.021 92.228-50.266zM888.588 757.78c-3.515 0.707-7.151 1.078-10.873 1.078h-731.429c-3.698 0-7.311-0.366-10.804-1.064l318.375-318.375c32.135-32.135 84.235-32.135 116.37 0l318.361 318.361zM929.763 721.375l-320.746-320.746c-53.558-53.558-140.392-53.558-193.949 0l-320.809 320.809c-1.835-5.478-2.83-11.342-2.83-17.438v-512c0-30.297 24.56-54.857 54.857-54.857h731.429c30.297 0 54.857 24.56 54.857 54.857v512c0 6.073-0.987 11.915-2.809 17.375z" />
<glyph unicode="&#xe907;" glyph-name="failed" d="M512 485.73l143.307 143.307c10.414 10.414 27.298 10.414 37.712 0s10.414-27.298 0-37.712l-143.307-143.307 143.307-143.307c10.414-10.414 10.414-27.298 0-37.712s-27.298-10.414-37.712 0l-143.307 143.307-143.307-143.307c-10.414-10.414-27.298-10.414-37.712 0s-10.414 27.298 0 37.712l143.307 143.307-143.307 143.307c-10.414 10.414-10.414 27.298 0 37.712s27.298 10.414 37.712 0l143.307-143.307zM512-64c-282.256 0-512 229.744-512 512s229.744 512 512 512c282.256 0 512-229.744 512-512s-229.744-512-512-512zM512 905.299c-251.624 0-457.299-205.675-457.299-457.299s205.675-457.299 457.299-457.299c251.624 0 457.299 205.675 457.299 457.299s-205.675 457.299-457.299 457.299z" />
<glyph unicode="&#xe908;" glyph-name="ok" d="M512-64c-282.256 0-512 229.744-512 512s229.744 512 512 512c282.256 0 512-229.744 512-512s-229.744-512-512-512zM512 905.299c-251.624 0-457.299-205.675-457.299-457.299s205.675-457.299 457.299-457.299c251.624 0 457.299 205.675 457.299 457.299s-205.675 457.299-457.299 457.299zM463.686 343.098l267.758 267.758c10.414 10.414 27.298 10.414 37.712 0s10.414-27.298 0-37.712l-305.47-305.47-199.876 199.876c-10.414 10.414-10.414 27.298 0 37.712s27.298 10.414 37.712 0l162.163-162.163z" />
<glyph unicode="&#xe909;" glyph-name="phone" horiz-adv-x="704" d="M626.286 704h-548.571v-438.857h548.571v438.857zM626.286 758.857v18.286c0 30.297-24.56 54.857-54.857 54.857h-438.857c-30.297 0-54.857-24.56-54.857-54.857v-18.286h548.571zM626.286 210.286h-548.571v-91.429c0-30.297 24.56-54.857 54.857-54.857h438.857c30.297 0 54.857 24.56 54.857 54.857v91.429zM132.571 886.857h438.857c60.594 0 109.714-49.121 109.714-109.714v-658.286c0-60.594-49.121-109.714-109.714-109.714h-438.857c-60.594 0-109.714 49.121-109.714 109.714v658.286c0 60.594 49.121 109.714 109.714 109.714zM352 91.429c-25.247 0-45.714 20.467-45.714 45.714s20.467 45.714 45.714 45.714c25.247 0 45.714-20.467 45.714-45.714s-20.467-45.714-45.714-45.714z" />
<glyph unicode="&#xe90a;" glyph-name="user" d="M1021.484-18.364c-17.389 207.421-159.42 378.969-351.425 441.363 80.441 52.093 133.848 142.104 133.848 244.828 0.073 161.319-131.145 292.172-292.903 292.172-161.831 0-293.049-130.853-293.049-292.172 0-102.724 53.408-192.736 133.848-244.902-192.005-62.321-333.963-233.869-351.425-441.29-0.219-3.945-0.731-6.21 0-11.617 1.461-18.265 17.608-32.878 35.946-32.878 20.457 0 36.604 16.731 36.604 36.531 19.069 225.759 208.079 401.764 438.076 401.764 229.924 0 418.934-176.005 438.003-401.764 0-19.8 16.147-36.531 36.604-36.531 18.338 0 34.485 14.612 35.873 32.878 0.731 5.407 0.292 7.745 0 11.617zM291.236 667.828c0 120.99 98.414 219.111 219.768 219.111s219.695-98.121 219.695-219.111c0-121.063-98.341-219.184-219.695-219.184s-219.768 98.121-219.768 219.184z" />
<glyph unicode="&#xe90b;" glyph-name="warning" d="M512-64c282.77 0 512 229.23 512 512s-229.23 512-512 512c-282.77 0-512-229.23-512-512s229.23-512 512-512zM447.688 731.405c16.171 17.483 36.73 26.226 61.802 26.226 25.086 0 45.626-8.651 61.814-25.877 16.082-17.264 24.12-38.856 24.12-64.819 0-22.338-33.569-186.601-44.766-306.102h-80.854c-9.82 119.502-46.244 283.764-46.244 306.102 0.002 25.569 8.054 47.072 24.128 64.469zM570.172 163.174c-17.009-16.565-37.249-24.82-60.676-24.82-23.421 0-43.666 8.255-60.672 24.82-16.959 16.526-25.388 36.544-25.388 60.054 0 23.388 8.429 43.622 25.388 60.581 17.006 16.965 37.251 25.447 60.672 25.447 23.426 0 43.666-8.482 60.676-25.447 16.948-16.959 25.397-37.194 25.397-60.581 0-23.51-8.449-43.528-25.397-60.054z" />
<glyph unicode="&#xe90c;" glyph-name="search" d="M825.853 212.772l168.542-168.542c18.177-18.177 18.177-47.648 0-65.825s-47.648-18.177-65.825 0l-168.542 168.542c-80.238-65.661-182.805-105.056-294.574-105.056-257.063 0-465.455 208.391-465.455 465.455s208.391 465.455 465.455 465.455c257.063 0 465.455-208.391 465.455-465.455 0-111.768-39.394-214.335-105.056-294.574zM465.455 134.982c205.651 0 372.364 166.713 372.364 372.364s-166.713 372.364-372.364 372.364c-205.651 0-372.364-166.713-372.364-372.364s166.713-372.364 372.364-372.364z" />
<glyph unicode="&#xe90d;" glyph-name="shipped" d="M850.693 406.019h-133.786c-53.888-0.307-50.842 50.125-50.842 50.125v104.397c0 13.824 11.392 25.088 25.421 25.088 14.054 0 25.446-11.264 25.446-25.088 0-0.077-0.026-0.102-0.026-0.179v-104.218h134.093c14.054-0.051 25.446-11.29 25.446-25.114s-11.392-25.088-25.446-25.088c-0.102 0-0.205 0.077-0.307 0.077zM295.532 55.324c42.061 0 76.262 33.766 76.262 75.187 0 41.498-34.202 75.238-76.262 75.238s-76.288-33.741-76.288-75.238c0-41.421 34.227-75.187 76.288-75.187zM734.572 55.324c42.035 0 76.288 33.766 76.288 75.187 0 41.498-34.253 75.238-76.288 75.238-42.061 0-76.262-33.741-76.262-75.238 0-41.421 34.227-75.187 76.262-75.187zM295.532 261.123c67.405 0 122.573-50.176 130.714-114.509l177.587 0.102c8.243 64.307 63.386 114.406 130.739 114.406 72.986 0 132.403-58.598 132.403-130.611 0-71.936-59.418-130.509-132.403-130.509-63.155 0-115.994 43.93-129.101 102.4l-180.89-0.102c-13.158-58.419-65.946-102.298-129.050-102.298-73.037 0-132.378 58.573-132.378 130.509 0 72.013 59.366 130.611 132.378 130.611zM1000.3 94.876c-13.082 0-23.68 11.802-23.68 26.266v395.443l-272.922 181.222c-10.342 3.635-17.792 13.082-17.792 24.499 0 0.051 0 0.077 0 0.102v109.21c0 28.928-23.808 37.53-53.197 37.53h-526.387c-29.389 0-53.146-23.475-53.146-52.403v-689.69c0-14.49-11.93-26.24-26.598-26.24-14.694 0-26.573 11.75-26.573 26.24v694.938c0 54.963 45.21 99.61 100.992 99.61h537.037c55.808 0 101.018-29.747 101.018-84.736v-105.293l275.277-182.579-0.282-0.435c5.862-4.25 9.958-10.803 9.958-18.534v-408.883c0-14.464-10.598-26.266-23.706-26.266z" />
<glyph unicode="&#xe90e;" glyph-name="hours" d="M814.911 792.288c-3.449 0.853-6.761 2.488-9.664 4.928-81.572 68.573-184.434 106.784-293.247 106.784-251.842 0-456-204.158-456-456s204.158-456 456-456c251.842 0 456 204.158 456 456 0 13.255 10.745 24 24 24s24-10.745 24-24c0-278.352-225.648-504-504-504s-504 225.648-504 504c0 278.352 225.648 504 504 504 117.292 0 228.447-40.23 317.508-112.566l81.923 73.802c17.668 8.589 17.668 8.589 34.347-1.791 5.137-7.366 5.137-7.366 6.251-16.278v-254.836c-5.444-18.876-5.444-18.876-24.32-24.32h-238.988c-18.876 5.444-18.876 5.444-24.32 24.32 1.026 8.562 1.026 8.562 5.789 15.75 5.919 6.965 14.959 9.711 23.313 7.93h210.527v177.951l-56.089-50.529c-9.534-8.589-24.062-8.121-33.029 0.855zM742.834 744.823c10.458-8.144 12.334-23.224 4.19-33.682s-23.224-12.334-33.682-4.19c-57.15 44.504-127.345 69.049-201.343 69.049-181.149 0-328-146.851-328-328s146.851-328 328-328c77.040 0 149.929 26.615 208.192 74.531 10.237 8.419 25.362 6.945 33.781-3.292s6.945-25.362-3.292-33.781c-66.777-54.917-150.416-85.457-238.681-85.457-207.659 0-376 168.341-376 376s168.341 376 376 376c84.777 0 165.328-28.166 230.834-79.177zM472.355 327.696c5.852 0 10.901-2.228 14.892-6.564 3.93-4.269 5.912-9.567 5.912-15.689 0-6.165-2.013-11.379-6.022-15.399-3.994-4.004-8.998-6.043-14.782-6.043h-132.564c-6.052 0-11.208 2.122-15.212 6.304-3.991 4.168-5.965 9.695-5.965 16.355 0 5.815 2.074 11.287 6.178 16.379l83.297 98.192c22.582 26.113 33.754 48.948 33.754 68.369 0 13.629-4.064 24.758-12.199 33.595-8.070 8.766-18.263 13.109-30.852 13.109-8.395 0-16.462-2.592-24.284-7.84-7.862-5.275-14.254-12.849-19.492-23.313-4.687-6.682-10.583-10.221-17.465-10.221-5.31 0-10.25 2.18-14.691 6.361-4.514 4.249-6.859 9.346-6.859 15.081 0 3.721 1.136 7.504 3.334 11.324 1.983 3.446 4.774 7.395 8.204 11.636 8.566 12.407 19.485 22.291 32.721 29.621 13.273 7.35 26.755 11.047 40.4 11.047 17.375 0 32.524-3.83 45.371-11.52 12.836-7.683 22.751-18.239 29.689-31.606 6.904-13.302 10.345-28.536 10.345-45.651 0-32.182-15.829-66.572-47.245-103.174l-50.845-60.352h84.381zM687.196 408.823c5.818 0 10.846-2.133 14.839-6.304 3.969-4.145 5.965-9.4 5.965-15.544 0-6.165-2.013-11.379-6.022-15.399-3.994-4.004-8.998-6.043-14.782-6.043h-15.791v-58.062c0-6.399-2.11-11.966-6.285-16.501-4.236-4.601-9.531-6.97-15.639-6.97-6.128 0-11.385 2.386-15.501 7.023-4.023 4.532-6.050 10.077-6.050 16.447v58.062h-98.317c-5.626 0-10.697 2.373-15.031 6.919-4.316 4.526-6.52 9.975-6.52 16.146 0 5.7 1.629 10.849 4.88 15.344l119.096 162.624c2.109 2.946 4.771 5.259 7.949 6.903 3.172 1.641 6.476 2.475 9.866 2.475 6.128 0 11.385-2.386 15.501-7.023 4.023-4.532 6.050-10.077 6.050-16.447v-143.651h15.791zM627.93 408.823v84.98l-61.020-84.98h61.020z" />
<glyph unicode="&#xe90f;" glyph-name="exclusive-price" horiz-adv-x="1088" d="M977.917 583.496c-20.182 10.767-33.917 32.031-33.917 56.504 0 35.346 28.654 64 64 64s64-28.654 64-64c0-32.988-24.957-60.146-57.020-63.624 0.032-1.55-0.161-3.109-0.584-4.627l-145.503-522.191c-2.892-10.378-12.345-17.558-23.119-17.558h-603.546c-10.774 0-20.227 7.18-23.119 17.558l-145.503 522.191c-0.431 1.546-0.619 3.102-0.588 4.628-32.061 3.479-57.016 30.637-57.016 63.623 0 35.346 28.654 64 64 64s64-28.654 64-64c0-24.472-13.735-45.736-33.917-56.504l207.713-102.409c1.3-0.641 2.869-0.328 3.823 0.763l206.511 236.012c-29.9 7.149-52.129 34.047-52.129 66.138 0 37.555 30.445 68 68 68s68-30.445 68-68c0-32.135-22.291-59.064-52.254-66.168 18.677-21.27 87.555-99.931 206.635-235.982 0.955-1.091 2.523-1.404 3.823-0.763l207.713 102.409zM520 341.832v77.816c-19.22-7.197-32-22.429-32-38.908s12.78-31.711 32-38.908zM568 420.138v-78.768c45.44-9.688 80-45.105 80-88.966s-34.56-79.278-80-88.966v-11.438c0-13.255-10.745-24-24-24s-24 10.745-24 24v10.988c-37.992 7.341-69.194 32.642-79.066 66.977-3.663 12.739 3.695 26.035 16.434 29.697s26.035-3.695 29.697-16.434c3.902-13.572 16.32-25.090 32.934-30.722v79.529c-45.415 9.557-80 44.902-80 88.705s34.585 79.147 80 88.705v18.555c0 13.255 10.745 24 24 24s24-10.745 24-24v-18.268c39.306-7.77 71.145-34.849 79.398-71.007 2.95-12.922-5.135-25.789-18.057-28.739s-25.789 5.135-28.739 18.057c-3.205 14.041-15.622 26.171-32.602 32.095zM568 291.529v-78.249c19.228 7.286 32 22.578 32 39.125s-12.772 31.838-32 39.125zM948.949 515.697l-157.518-77.662c-20.802-10.256-45.9-5.248-61.173 12.206l-186.258 212.866-186.258-212.866c-15.273-17.455-40.371-22.463-61.173-12.206l-157.518 77.662 121.403-435.697h567.092l121.403 435.697zM544 756c15.464 0 28 12.536 28 28s-12.536 28-28 28c-15.464 0-28-12.536-28-28s12.536-28 28-28zM80 608c17.673 0 32 14.327 32 32s-14.327 32-32 32c-17.673 0-32-14.327-32-32s14.327-32 32-32zM1008 608c17.673 0 32 14.327 32 32s-14.327 32-32 32c-17.673 0-32-14.327-32-32s14.327-32 32-32z" />
<glyph unicode="&#xe910;" glyph-name="original" d="M512 173.33l-110.539-40.152c-18.227-6.621-38.578 0.786-48.285 17.574l-58.869 101.812-110.488 40.295c-18.218 6.644-29.047 25.4-25.692 44.499l20.347 115.832-58.737 101.888c-9.685 16.8-5.925 38.128 8.923 50.603l90.043 75.654 20.497 115.806c3.38 19.095 19.97 33.016 39.362 33.029l117.606 0.076 90.14 75.537c14.863 12.455 36.52 12.455 51.383 0l90.14-75.537 117.606-0.076c19.392-0.013 35.982-13.933 39.362-33.029l20.497-115.806 90.043-75.654c14.847-12.475 18.608-33.802 8.923-50.603l-58.737-101.888 20.347-115.832c3.355-19.1-7.473-37.855-25.692-44.499l-110.488-40.295-58.869-101.812c-9.707-16.788-30.058-24.195-48.285-17.574l-110.539 40.152zM498.343 219.438c8.822 3.205 18.491 3.205 27.313 0l106.97-38.856 56.968 98.524c4.698 8.126 12.105 14.34 20.923 17.556l106.919 38.994-19.69 112.092c-1.624 9.245 0.055 18.766 4.743 26.898l56.84 98.597-87.135 73.211c-7.186 6.038-12.021 14.411-13.657 23.654l-19.835 112.066-113.808 0.074c-9.386 0.006-18.472 3.313-25.666 9.342l-87.229 73.098-87.229-73.098c-7.194-6.029-16.28-9.336-25.666-9.342l-113.808-0.074-19.835-112.066c-1.636-9.243-6.47-17.616-13.657-23.654l-87.135-73.211 56.84-98.597c4.688-8.132 6.367-17.653 4.743-26.898l-19.69-112.092 106.919-38.994c8.818-3.216 16.225-9.431 20.923-17.556l56.968-98.524 106.97 38.856zM512 296c-119.294 0-216 96.706-216 216s96.706 216 216 216c119.294 0 216-96.706 216-216s-96.706-216-216-216zM512 344c92.784 0 168 75.216 168 168s-75.216 168-168 168c-92.784 0-168-75.216-168-168s75.216-168 168-168zM298.529 76.922c8.52 10.154 23.658 11.478 33.812 2.958s11.478-23.658 2.958-33.812l-42.397-50.526c-9.656-11.508-26.813-13.009-38.32-3.353-3.951 3.316-6.879 7.687-8.44 12.603l-19.439 61.206-63.651 8.516c-14.889 1.992-25.345 15.677-23.353 30.567 0.684 5.113 2.808 9.925 6.123 13.877l73.395 87.468c8.52 10.154 23.658 11.478 33.812 2.958s11.478-23.658 2.958-33.812l-49.085-58.497 39.239-5.25c10.436-1.396 19.13-8.691 22.317-18.726l11.984-37.732 18.087 21.555zM723.531 76.922l18.087-21.555 11.984 37.732c3.187 10.035 11.88 17.33 22.317 18.726l39.239 5.25-49.085 58.497c-8.52 10.154-7.196 25.292 2.958 33.812s25.292 7.196 33.812-2.958l73.395-87.468c3.316-3.951 5.439-8.764 6.123-13.877 1.992-14.889-8.463-28.575-23.353-30.567l-63.651-8.516-19.439-61.206c-1.561-4.916-4.489-9.287-8.44-12.603-11.508-9.656-28.664-8.155-38.32 3.353l-42.397 50.526c-8.52 10.154-7.196 25.292 2.958 33.812s25.292 7.196 33.812-2.958z" />
<glyph unicode="&#xe911;" glyph-name="warranty" d="M64 824c145.004 0 290.274 41.506 436.092 124.837l11.901 6.801 11.905-6.795c145.994-83.336 291.268-124.843 436.102-124.843h24v-123.867c0-307.336-153.86-558.778-459.146-752.4l-12.848-8.149-12.852 8.143c-305.292 193.432-459.155 444.834-459.155 752.273v124h24zM88 776.356v-76.356c0-285.804 140.555-519.685 423.994-703.489 283.447 183.987 424.006 417.914 424.006 703.622v76.224c-141.52 4.211-282.925 45.659-423.993 124.093-140.927-78.439-282.337-119.887-424.007-124.093zM697.068 617.206c9.373 9.373 24.569 9.373 33.941 0s9.373-24.569 0-33.941l-243.245-243.245-152.735 152.735c-9.373 9.373-9.373 24.569 0 33.941s24.569 9.373 33.941 0l118.794-118.794 209.304 209.304z" />
<glyph unicode="&#xe912;" glyph-name="delivery" horiz-adv-x="1229" d="M316.28 360.789c6.349 6.383 9.899 15.121 9.83 24.166 0 19.081-14.916 33.997-33.963 33.997h-171.861c-19.046 0-33.963-14.916-33.963-34.031-0.068-8.977 3.482-17.749 9.83-24.132 6.281-6.281 14.916-9.865 24.132-9.865h172.237c8.909 0 17.374 3.516 23.757 9.865zM274.092 178.176h-46.933c-22.835 0-40.755 17.92-40.755 40.823 0 19.012-14.916 33.963-33.997 33.963-19.012 0-33.963-14.95-33.963-33.963-0.034-28.672 11.571-56.695 31.812-76.971 20.48-20.514 47.753-31.812 76.766-31.812h47.070c18.739 0 33.963 15.258 33.963 33.997 0 19.046-14.95 33.963-33.963 33.963zM508.28 525.278c6.349 6.383 9.933 15.155 9.865 24.166 0 19.046-14.916 33.963-33.963 33.963h-450.185c-19.046 0-33.997-14.916-33.997-33.997-0.068-8.977 3.55-17.749 9.899-24.132 6.212-6.246 14.882-9.865 24.098-9.865h450.526c8.841 0 17.51 3.618 23.757 9.865zM354.237 650.035c8.977 0 17.442 3.482 23.757 9.899 6.315 6.246 9.933 15.053 9.865 24.064 0 19.046-14.95 33.997-33.963 33.997h-171.93c-19.012 0-33.963-14.95-33.963-34.031-0.034-9.114 3.482-17.681 9.865-24.098 6.281-6.246 14.916-9.83 24.098-9.83h172.271zM1044.993 450.492l-129.57-0.853v100.215c0 18.125-14.916 32.87-33.246 32.87s-33.28-14.746-33.28-32.87l0.034-106.155c-0.034-1.058-1.365-25.054 14.882-42.394 10.411-10.991 25.293-16.555 44.305-16.555l136.841-0.034c18.295 0 33.212 14.746 33.212 32.836 0 18.057-14.882 32.836-33.178 32.939zM926.141 41.131c-38.912 0-70.588 31.198-70.588 69.564 0 38.332 31.676 69.53 70.588 69.53 38.946 0 70.622-31.198 70.622-69.53 0-38.366-31.676-69.564-70.622-69.564zM478.004 41.131c-38.878 0-70.554 31.198-70.554 69.564 0 38.332 31.676 69.53 70.554 69.53 38.912 0 70.588-31.198 70.588-69.53 0-38.366-31.676-69.564-70.588-69.564zM926.141 251.324c-69.53 0-128.307-49.425-138.923-116.873l-169.404-0.785c-11.503 68.198-70.315 117.658-139.81 117.658-78.507 0-142.404-63.113-142.404-140.629s63.898-140.561 142.404-140.561c64.58 0 121.139 43.213 136.738 104.448l173.773 0.717c16.384-61.918 73.011-105.165 137.626-105.165 78.507 0 142.404 63.044 142.404 140.561s-63.898 140.629-142.404 140.629zM1221.121 540.433l-283.136 187.494v104.107c0 56.081-44.373 93.833-110.387 93.833h-519.305c-45.329 0-86.426-29.184-102.195-72.567l-0.785-2.253h-59.153c-19.081 0-33.997-14.916-33.997-33.997-0.068-8.943 3.516-17.715 9.865-24.132 6.246-6.212 14.916-9.83 24.132-9.83h88.508c8.841 0 17.476 3.618 23.757 9.83 6.349 6.417 9.933 15.189 9.865 24.132-0.137 10.957 4.096 21.265 11.81 28.979 7.509 7.543 17.92 11.844 28.911 11.844h57.754v-0.102h455.407c42.155 0 47.002-17.749 47.002-31.095v-111.582c0-13.892 9.114-26.999 21.436-31.061l275.354-182.477v-400.418c0-18.842 14.097-34.133 31.403-34.133s31.437 15.292 31.437 34.133v417.519c0 7.578-2.97 14.882-7.68 21.777z" />
<glyph unicode="&#xe913;" glyph-name="ordered" d="M477.867 38.4c18.851 0 34.133-15.282 34.133-34.133s-15.282-34.133-34.133-34.133h-280.94c-71.398 0-128.66 59.816-128.66 132.876v724.114c0 73.060 57.262 132.876 128.66 132.876h630.146c71.398 0 128.66-59.816 128.66-132.876v-310.857c0-18.851-15.282-34.133-34.133-34.133s-34.133 15.282-34.133 34.133v310.857c0 36.008-27.38 64.61-60.394 64.61h-630.146c-33.013 0-60.394-28.602-60.394-64.61v-724.114c0-36.008 27.38-64.61 60.394-64.61h280.94zM238.933 721.067h546.133c18.851 0 34.133-15.282 34.133-34.133s-15.282-34.133-34.133-34.133h-546.133c-18.851 0-34.133 15.282-34.133 34.133s15.282 34.133 34.133 34.133zM238.933 516.267h273.067c18.851 0 34.133-15.282 34.133-34.133s-15.282-34.133-34.133-34.133h-273.067c-18.851 0-34.133 15.282-34.133 34.133s15.282 34.133 34.133 34.133zM238.933 311.467h170.667c18.851 0 34.133-15.282 34.133-34.133s-15.282-34.133-34.133-34.133h-170.667c-18.851 0-34.133 15.282-34.133 34.133s15.282 34.133 34.133 34.133zM740.051-64l-15.223 2.355c-9.796 1.502-19.728 3.072-29.285 5.734-106.287 29.355-172.332 98.133-196.327 204.356-25.735 114.074 35.463 238.967 142.262 290.509 38.159 18.364 78.162 27.648 118.95 27.648 69.117 0 134.719-27.443 184.688-77.244 63.178-62.874 88.504-139.503 75.329-227.669-16.588-111.65-101.85-200.397-212.164-220.809-5.7-1.092-11.434-1.946-17.202-2.799l-13.721-2.082h-37.306zM757.458 399.872c-106.492 0-194.962-87.996-197.18-196.164-1.126-52.292 18.5-101.956 55.294-139.913 37.374-38.605 87.753-60.211 141.818-60.791 110.656 0 198.545 87.006 199.945 198.076-0.41 109.739-86.866 197.052-196.771 198.758l-3.106 0.034zM742.133 112.783c-0.132 7.274-0.132 82.516-0.105 115.961-4.77-4.823-9.593-9.672-14.468-14.442-5.745-5.614-12.887-8.723-20.108-8.723-9.54 0-17.894 5.324-22.295 14.232-5.086 10.226-3.189 21.374 5.060 29.781 19.633 19.95 39.399 39.796 59.348 59.482 4.981 4.928 11.358 7.616 17.999 7.616 6.905 0 13.651-2.925 19.027-8.196 19.423-19.265 38.713-38.636 57.82-58.165 5.692-5.824 8.723-12.94 8.591-20.082-0.105-6.589-2.925-12.887-7.959-17.684-4.849-4.612-10.831-7.116-17.288-7.116-7.036 0-13.809 2.952-19.554 8.513-4.902 4.849-9.777 9.725-14.758 14.785v-115.75c-0.712-15.681-11.464-26.855-25.616-26.908-14.415 0-25.378 11.464-25.695 26.697z" />
<glyph unicode="&#xe914;" glyph-name="packed" d="M950.511 64.41c0-5.291-2.765-12.595-7.987-15.531-5.803-5.837-11.059-8.055-18.637-8.055h-823.774c-15.428 0-26.624 9.899-26.624 23.586v513.877h877.022v-513.877zM94.31 657.852c1.468 3.55 2.731 6.656 3.857 8.943l85.333 152.508c12.288 18.466 42.564 35.942 62.327 35.942h227.465v-210.978l-384.205 1.434c2.048 4.506 3.721 8.567 5.222 12.151zM550.741 645.086v210.159h227.396c20.412 0 50.108-17.852 58.948-35.567l88.132-160.87c2.458-4.54 5.427-9.899 7.68-16.282l-382.532 1.434c0.034 0.375 0.375 0.717 0.375 1.126zM991.676 697.207l-85.606 156.126c-24.030 41.37-77.653 72.533-124.757 72.533h-535.484c-47.343 0-102.161-30.413-124.826-69.461l-85.436-155.853c-19.934-33.417-35.567-89.088-35.567-126.737v-509.406c0-51.951 44.919-94.276 100.113-94.276h823.774c55.194 0 100.113 42.325 100.113 94.276v506.197c0 41.335-13.961 95.846-32.324 126.601zM620.749 208.009h25.873l87.518 84.207c4.574 2.97 7.885 8.738 8.567 15.701 0.853 8.465-2.287 17.237-8.465 23.381-3.823 3.925-11.366 7.885-19.422 7.885-8.021 0-15.497-3.959-19.456-7.885l-29.355-32.017v137.626c0 15.599-11.708 27.375-27.204 27.375-8.021 0-15.565-3.925-19.422-7.851-3.891-3.959-7.851-11.537-7.851-19.524v-137.626l-29.218 31.846c-5.803 5.803-12.493 8.806-19.558 8.806s-13.79-3.004-19.456-8.636c-3.891-3.891-7.782-11.469-7.782-19.524s3.891-15.599 7.782-19.49l77.449-84.275zM308.395 332.356c7.066 0 13.756 2.97 19.558 8.738l29.218 31.881v-137.626c0-8.021 3.925-15.565 7.851-19.524 3.857-3.891 11.401-7.817 19.422-7.817 15.497 0 27.238 11.742 27.238 27.341v137.626l29.321-32.017c3.925-3.925 11.435-7.885 19.456-7.885 8.055 0 15.599 3.959 19.422 7.885 6.178 6.178 9.318 14.916 8.465 23.381-0.717 6.963-3.959 12.732-8.533 15.701l-87.518 84.241h-25.907l-77.449-84.309c-3.857-3.891-7.782-11.435-7.782-19.49s3.925-15.633 7.782-19.524c5.666-5.632 12.356-8.602 19.456-8.602zM304.811 107.042h414.379c18.534 0 33.553 15.121 33.553 33.724s-15.019 33.758-33.553 33.758h-414.379c-18.5 0-33.553-15.155-33.553-33.758s15.053-33.724 33.553-33.724z" />
<glyph unicode="&#xe915;" glyph-name="paid" d="M973.517 331.878c0-25.907-20.992-46.967-46.899-46.967h-185.958c-25.873 0-46.865 21.060-46.865 46.967v67.721c0 25.941 20.992 46.967 46.865 46.967h185.958c37.274 0 46.899-13.21 46.899-46.967v-67.721zM347.273 790.153l263.441 84.753 27.204-84.753h-290.645zM1002.359 472.713c-12.425 12.425-28.535 19.558-45.807 21.060l-0.034 185.446c0 61.269-49.664 110.933-110.933 110.933h-136.738l-54.511 169.847-527.531-169.847h-13.107c-61.269 0-110.933-49.664-110.933-110.933l0.034-251.87 69.53 69.359c0 0-0.137 167.492-0.137 188.211s20.002 36.966 41.506 36.966h731.887c31.676 0 42.667-19.149 42.667-42.667l-0.273-184.832h-170.803c-40.721 0-73.899-33.178-73.899-73.967v-114.722c0-40.789 33.178-74.001 73.899-74.001h170.803l-0.375-186.641c-1.673-21.982-19.593-39.526-42.018-39.526h-731.887c-20.446 0-36.762 14.746-40.926 33.963l-0.137 197.495-69.837 69.7-0.034-258.492c0-61.235 49.664-110.933 110.933-110.933h731.887c61.269 0 110.933 49.698 110.933 110.933l0.034 183.808c37.683 3.277 67.447 35.089 67.447 73.694v114.722c0 19.763-7.68 38.332-21.641 52.292zM764.041 409.361c-23.313 0-42.291-18.978-42.291-42.359 0-23.313 18.978-42.325 42.291-42.325 23.279 0 42.257 19.012 42.257 42.325 0 23.381-18.978 42.359-42.257 42.359zM172.851 539.546l-172.851-172.544 172.851-172.51v104.585l-25.771 25.805h235.452v84.275h-235.486l25.805 25.805v104.585zM118.101 182.238v-68.676c0-40.789 33.143-73.967 73.899-73.967h135.441v39.936h-120.081c-27.204 0-49.323 22.187-49.323 49.459v53.248h-39.936z" />
<glyph unicode="&#xe916;" glyph-name="p-payment" d="M691.2 423.808c-14.131 0-25.6 11.443-25.6 25.6s11.469 25.6 25.6 25.6c14.131 0 25.6-11.443 25.6-25.6s-11.469-25.6-25.6-25.6zM579.021 355.942v187.443h395.008v-187.443h-395.008zM967.219 593.331h-381.389c-31.309 0-56.781-25.472-56.781-56.781v-173.824c0-31.283 25.472-56.781 56.781-56.781h381.389c31.309 0 56.781 25.498 56.781 56.781v173.824c0 31.309-25.472 56.781-56.781 56.781zM916.762 240.077c-14.464 0-26.214-11.75-26.214-26.214v-121.728c0-28.979-23.578-52.531-52.531-52.531h-733.056c-28.979 0-52.557 23.552-52.557 52.531v711.731c0 28.979 23.578 52.506 52.557 52.506h736.666c28.979 0 52.557-23.526 52.557-52.506v-115.712c0-14.464 11.75-26.214 26.189-26.214s26.214 11.75 26.214 26.214v115.712c0 57.83-47.078 104.934-104.96 104.934h-736.666c-57.882 0-104.96-47.104-104.96-104.934v-711.731c0-57.856 47.078-104.934 104.96-104.934h733.056c57.856 0 104.934 47.078 104.934 104.934v121.728c0 14.464-11.75 26.214-26.189 26.214z" />
<glyph unicode="&#xe917;" glyph-name="p-shipment" d="M52.513 424.75c-13.978 0.102-25.472 11.597-25.574 25.6-0.051 6.758 2.637 13.338 7.424 18.125 4.787 4.813 11.187 7.424 17.971 7.424h307.686c9.088 0 17.587-4.89 22.118-12.774 4.582-7.91 4.582-17.69 0-25.574-4.531-7.91-13.030-12.8-22.118-12.8h-307.507zM52.513 300.692c-13.978 0.077-25.472 11.571-25.574 25.6-0.051 6.733 2.637 13.338 7.424 18.099 4.787 4.838 11.187 7.45 17.971 7.45h174.285c7.296 0 13.568-2.56 18.253-7.322 4.813-4.762 7.475-11.418 7.322-18.176 0.051-6.835-2.662-13.466-7.45-18.227-4.787-4.787-11.136-7.424-17.869-7.424h-174.362zM680.225 202.107c-2.227 0-4.454 0.256-6.605 0.87-8.858 2.33-15.846 9.318-18.227 18.202-2.33 8.883 0.256 18.406 6.784 24.883l55.322 55.296h-178.227c-14.003 0.102-25.472 11.597-25.574 25.6-0.077 6.733 2.637 13.338 7.424 18.15 4.787 4.762 11.136 7.424 17.869 7.424h178.509l-55.322 55.296c-6.63 6.477-9.267 16.051-6.912 24.96 2.33 8.909 9.344 15.949 18.278 18.278 2.125 0.589 4.326 0.87 6.528 0.87 6.886 0 13.568-2.842 18.381-7.757l100.096-98.765c1.434-1.306 2.637-2.688 3.635-4.173l0.973-2.432c-0.614 0 0.077-1.664 1.101-3.046v-0.486l0.563-2.688c0.742-2.816 0.922-4.454 0.819-6.144l-0.486-0.794-0.179-3.584-0.64-2.79-1.126-3.507-1.69-2.432c-1.024-1.485-2.227-2.893-3.558-4.173l-99.482-99.43c-4.787-4.864-11.418-7.629-18.253-7.629zM51.873 177.3c-7.014 0-13.363 2.637-18.176 7.424-4.762 4.762-7.475 11.366-7.424 18.125 0.102 14.003 11.597 25.498 25.626 25.6h86.656c9.421 0 17.92-4.838 22.502-12.698 4.634-7.936 4.634-17.818 0-25.779-4.557-7.834-13.030-12.672-22.067-12.672h-87.117zM243.259 856.955c-22.323 0-51.328-17.638-62.080-37.683l-79.36-149.376c-4.838-9.549-8.73-19.61-11.597-30.003v-3.098l2.97-1.459h842.445l-1.229 3.994c-2.867 9.344-6.528 18.483-10.854 27.136l-79.386 152.781c-10.778 20.070-39.808 37.709-62.131 37.709h-538.778zM109.678-12.805c-22.272 0-43.238 8.678-58.982 24.448-15.565 15.565-24.474 37.094-24.422 59.162v36.019c0 14.131 11.469 25.6 25.574 25.6s25.6-11.469 25.6-25.6v-35.379c0.128-17.382 14.362-31.616 31.744-31.744h804.915c8.525 0 16.666 3.379 22.554 9.216 5.939 5.965 9.293 14.182 9.216 22.554v498.227c0.102 3.917-0.128 7.885-0.666 11.802l-0.384 2.662h-867.379v-3.098c0-1.306-0.179-2.79-0.358-4.198s-0.333-2.765-0.333-3.814v-23.347c0-14.106-11.469-25.574-25.574-25.574s-25.574 11.469-25.574 25.574v23.347c0 36.608 13.286 89.882 30.285 121.293l79.386 149.376c19.558 36.48 66.995 65.075 108.006 65.075h538.086c41.472 0 88.909-28.877 107.981-65.715l79.386-152.73c16.64-30.746 29.67-83.968 29.67-121.267v-498.278c-0.128-45.978-37.658-83.482-83.635-83.61h-805.094z" />
<glyph unicode="&#xe918;" glyph-name="address" d="M512-7.111c-44.66 0-305.657 206.204-377.258 341.333-31.543 59.53-49.409 127.048-49.409 199.111 0 235.641 191.025 426.667 426.667 426.667s426.667-191.025 426.667-426.667c0-72.643-17.475-139.238-49.493-199.111-71.845-134.346-332.514-341.333-377.173-341.333zM531.911 98.046c29.596 19.988 66.137 48.276 102.853 79.839 83.404 71.698 152.584 146.883 179.159 196.578 26.070 48.749 39.409 101.676 39.409 158.87 0 188.513-152.82 341.333-341.333 341.333s-341.333-152.82-341.333-341.333c0-56.385 13.616-110.35 39.478-159.158 26.408-49.838 95.421-124.921 178.891-196.527 36.681-31.467 73.238-59.683 102.885-79.631 7.371-4.96 14.104-9.263 20.012-12.817 5.897 3.562 12.619 7.874 19.979 12.845zM512 343.704c-104.73 0-189.63 84.9-189.63 189.63s84.9 189.63 189.63 189.63c104.73 0 189.63-84.9 189.63-189.63s-84.9-189.63-189.63-189.63zM512 429.037c57.601 0 104.296 46.695 104.296 104.296s-46.695 104.296-104.296 104.296c-57.601 0-104.296-46.695-104.296-104.296s46.695-104.296 104.296-104.296z" />
<glyph unicode="&#xe919;" glyph-name="attention" d="M288.622 28.32l-181.524-69.817c-18.852-7.251-40.012 2.154-47.262 21.005-3.25 8.451-3.25 17.806 0 26.257l64.335 167.27c-55.165 77.632-87.599 172.54-87.599 275.024 0 262.54 212.857 475.37 475.429 475.37s475.429-212.83 475.429-475.37c0-262.54-212.857-475.37-475.429-475.37-80.742 0-156.782 20.125-223.378 55.631zM512 265.143c-30.297 0-54.857-24.56-54.857-54.857s24.56-54.857 54.857-54.857c30.297 0 54.857 24.56 54.857 54.857s-24.56 54.857-54.857 54.857zM512 740.571c-2.019 0-4.037-0.092-6.047-0.274-36.739-3.34-63.814-35.83-60.474-72.568l26.663-293.313c1.86-20.462 19.017-36.13 39.563-36.13 20.555 0 37.725 15.658 39.616 36.125l27.094 293.328c0.188 2.039 0.283 4.087 0.283 6.135 0 36.836-29.862 66.698-66.698 66.698z" />
<glyph unicode="&#xe91a;" glyph-name="trash" horiz-adv-x="896" d="M825.143 768l-79.953-746.227c-5.227-48.781-46.393-85.773-95.454-85.773h-403.473c-49.061 0-90.227 36.991-95.454 85.773l-79.953 746.227h-38.857c-17.673 0-32 14.327-32 32s14.327 32 32 32h256v32c0 53.019 42.981 96 96 96h128c53.019 0 96-42.981 96-96v-32h256c17.673 0 32-14.327 32-32s-14.327-32-32-32h-38.857zM135.223 768l79.222-739.409c1.742-16.26 15.464-28.591 31.818-28.591h403.473c16.354 0 30.076 12.33 31.818 28.591l79.222 739.409h-625.553zM544 832v32c0 17.673-14.327 32-32 32h-128c-17.673 0-32-14.327-32-32v-32h192zM288 608c17.673 0 32-14.327 32-32v-384c0-17.673-14.327-32-32-32s-32 14.327-32 32v384c0 17.673 14.327 32 32 32zM448 608c17.673 0 32-14.327 32-32v-384c0-17.673-14.327-32-32-32s-32 14.327-32 32v384c0 17.673 14.327 32 32 32zM608 608c17.673 0 32-14.327 32-32v-384c0-17.673-14.327-32-32-32s-32 14.327-32 32v384c0 17.673 14.327 32 32 32z" />
<glyph unicode="&#xe91b;" glyph-name="zoom-in" d="M384 576v102.4c0 14.138 11.462 25.6 25.6 25.6s25.6-11.462 25.6-25.6v-102.4h102.4c14.138 0 25.6-11.462 25.6-25.6s-11.462-25.6-25.6-25.6h-102.4v-102.4c0-14.138-11.462-25.6-25.6-25.6s-25.6 11.462-25.6 25.6v102.4h-102.4c-14.138 0-25.6 11.462-25.6 25.6s11.462 25.6 25.6 25.6h102.4zM724.39 282.456l253.826-255.706c12.339-12.43 12.302-32.498-0.083-44.883s-32.452-12.422-44.883-0.083l-255.753 253.872c-71.267-60.544-163.26-96.989-263.631-96.989-224.755 0-409.6 182.745-409.6 409.6 0 224.755 182.745 409.6 409.6 409.6s409.6-182.745 409.6-409.6c-0.941-101.604-38.118-194.359-99.077-265.811zM413.867 896.952c-193.247 0-350.786-157.538-350.786-350.786s157.538-350.786 350.786-350.786c193.247 0 350.786 157.538 350.786 350.786-2.101 193.247-159.639 350.786-350.786 350.786z" />
<glyph unicode="&#xe91c;" glyph-name="close" d="M512 502.306l380.141 380.141c14.996 14.996 39.31 14.996 54.306 0s14.996-39.31 0-54.306l-380.141-380.141 380.141-380.141c14.996-14.996 14.996-39.31 0-54.306s-39.31-14.996-54.306 0l-380.141 380.141-380.141-380.141c-14.996-14.996-39.31-14.996-54.306 0s-14.996 39.31 0 54.306l380.141 380.141-380.141 380.141c-14.996 14.996-14.996 39.31 0 54.306s39.31 14.996 54.306 0l380.141-380.141z" />
<glyph unicode="&#xe91d;" glyph-name="article" d="M768 512h128c35.346 0 64-28.654 64-64v-384c0-35.346-28.654-64-64-64h-768c-35.346 0-64 28.654-64 64v768c0 35.346 28.654 64 64 64h576c35.346 0 64-28.654 64-64v-320zM768 64h128v384h-128v-384zM128 832v-768h576v768h-576zM288 704h256c17.673 0 32-14.327 32-32s-14.327-32-32-32h-256c-17.673 0-32 14.327-32 32s14.327 32 32 32zM288 320h256c17.673 0 32-14.327 32-32s-14.327-32-32-32h-256c-17.673 0-32 14.327-32 32s14.327 32 32 32zM288 512h192c17.673 0 32-14.327 32-32s-14.327-32-32-32h-192c-17.673 0-32 14.327-32 32s14.327 32 32 32z" />
<glyph unicode="&#xe91e;" glyph-name="like" d="M950.857 594.286v36.571c0 121.187-98.242 219.429-219.429 219.429-63.428 0-123.043-27.168-164.572-74.256l-54.856-62.199-54.856 62.199c-41.529 47.088-101.145 74.256-164.572 74.256-121.187 0-219.429-98.242-219.429-219.429v-36.571c0-154.147 131.993-323.73 438.857-547.818 306.859 224.081 438.857 393.668 438.857 547.818zM512 824.41c16.26 18.437 34.699 34.671 54.835 48.38 47.523 32.351 104.485 50.638 164.594 50.638 161.583 0 292.571-130.989 292.571-292.571v-36.571c0-188.639-152.35-377.51-479.807-614.849-19.209-13.923-45.192-13.921-64.388 0.002-327.455 237.338-479.804 426.208-479.804 614.847v36.571c0 161.583 130.989 292.571 292.571 292.571 60.109 0 117.070-18.287 164.58-50.629 20.15-13.718 38.588-29.953 54.848-48.389z" />
<glyph unicode="&#xe91f;" glyph-name="share" d="M182.857 338.286c60.594 0 109.714 49.121 109.714 109.714s-49.121 109.714-109.714 109.714c-60.594 0-109.714-49.121-109.714-109.714s49.121-109.714 109.714-109.714zM333.532 344.365c-32.977-47.854-88.163-79.223-150.675-79.223-100.989 0-182.857 81.868-182.857 182.857s81.868 182.857 182.857 182.857c63.406 0 119.274-32.272 152.076-81.286l327.421 189.036c-2.665 12.424-4.068 25.316-4.068 38.535 0 100.989 81.868 182.857 182.857 182.857s182.857-81.868 182.857-182.857c0-100.989-81.868-182.857-182.857-182.857-61.537 0-115.974 30.397-149.116 76.996l-329.311-190.128c1.969-10.752 2.998-21.833 2.998-33.154 0-11.826-1.123-23.39-3.267-34.591l312.282-218.662c28.827 63.111 92.499 106.967 166.414 106.967 100.989 0 182.857-81.868 182.857-182.857s-81.868-182.857-182.857-182.857c-100.357 0-181.832 80.846-182.848 180.963l-324.764 227.402zM841.143 667.429c60.594 0 109.714 49.121 109.714 109.714s-49.121 109.714-109.714 109.714c-60.594 0-109.714-49.121-109.714-109.714s49.121-109.714 109.714-109.714zM841.143 9.143c60.594 0 109.714 49.121 109.714 109.714s-49.121 109.714-109.714 109.714c-60.594 0-109.714-49.121-109.714-109.714s49.121-109.714 109.714-109.714z" />
<glyph unicode="&#xe920;" glyph-name="alert" d="M512-64c-282.256 0-512 229.744-512 512s229.744 512 512 512c282.256 0 512-229.744 512-512s-229.744-512-512-512zM512 905.299c-251.624 0-457.299-205.675-457.299-457.299s205.675-457.299 457.299-457.299c251.624 0 457.299 205.675 457.299 457.299s-205.675 457.299-457.299 457.299zM512 725.333c20.619 0 37.333-16.715 37.333-37.333v-288c0-20.619-16.715-37.333-37.333-37.333s-37.333 16.715-37.333 37.333v288c0 20.619 16.715 37.333 37.333 37.333zM512 176c-26.51 0-48 21.49-48 48s21.49 48 48 48c26.51 0 48-21.49 48-48s-21.49-48-48-48z" />
</font>
</defs>
</svg>
